G04 #@! TF.GenerationSoftware,KiCad,Pcbnew,(5.1.5-0-10_14)*
G04 #@! TF.CreationDate,2020-03-24T18:15:21-07:00*
G04 #@! TF.ProjectId,display_module,64697370-6c61-4795-9f6d-6f64756c652e,rev?*
G04 #@! TF.SameCoordinates,Original*
G04 #@! TF.FileFunction,Profile,NP*
%FSLAX46Y46*%
G04 Gerber Fmt 4.6, Leading zero omitted, Abs format (unit mm)*
G04 Created by KiCad (PCBNEW (5.1.5-0-10_14)) date 2020-03-24 18:15:21*
%MOMM*%
%LPD*%
G04 APERTURE LIST*
%ADD10C,0.150000*%
G04 APERTURE END LIST*
D10*
X126750000Y-120000000D02*
X144500000Y-120000000D01*
X124250000Y-122500000D02*
G75*
G02X126750000Y-120000000I2500000J0D01*
G01*
X116750000Y-120000000D02*
G75*
G02X119250000Y-122500000I0J-2500000D01*
G01*
X124250000Y-122500000D02*
G75*
G02X119250000Y-122500000I-2500000J0D01*
G01*
X180250000Y-120000000D02*
X193000000Y-120000000D01*
X177750000Y-122500000D02*
G75*
G02X180250000Y-120000000I2500000J0D01*
G01*
X170250000Y-120000000D02*
G75*
G02X172750000Y-122500000I0J-2500000D01*
G01*
X177750000Y-122500000D02*
G75*
G02X172750000Y-122500000I-2500000J0D01*
G01*
X152500000Y-120000000D02*
X170250000Y-120000000D01*
X152500000Y-120000000D02*
G75*
G03X148500000Y-118000000I-4000000J-3000000D01*
G01*
X148500000Y-118000000D02*
G75*
G03X144500000Y-120000000I0J-5000000D01*
G01*
X144500000Y-90000000D02*
X126750000Y-90000000D01*
X126750000Y-90000000D02*
G75*
G02X124250000Y-87500000I0J2500000D01*
G01*
X116750095Y-90000000D02*
G75*
G03X119250095Y-87500000I0J2500000D01*
G01*
X124250000Y-87500000D02*
G75*
G03X121750000Y-85000000I-2500000J0D01*
G01*
X119250000Y-87500000D02*
G75*
G02X121750000Y-85000000I2500000J0D01*
G01*
X180250000Y-90000000D02*
G75*
G02X177750000Y-87500000I0J2500000D01*
G01*
X170250000Y-90000000D02*
G75*
G03X172750000Y-87500000I0J2500000D01*
G01*
X170250000Y-90000000D02*
X152500000Y-90000000D01*
X172750000Y-87500000D02*
G75*
G02X175250000Y-85000000I2500000J0D01*
G01*
X177750000Y-87500000D02*
G75*
G03X175250000Y-85000000I-2500000J0D01*
G01*
X116750000Y-90000000D02*
X104000000Y-90000000D01*
X144500000Y-90000000D02*
G75*
G03X148500000Y-92000000I4000000J3000000D01*
G01*
X152500000Y-90000000D02*
G75*
G02X148500000Y-92000000I-4000000J3000000D01*
G01*
X196500000Y-93500000D02*
G75*
G03X193000000Y-90000000I-3500000J0D01*
G01*
X193000000Y-120000000D02*
G75*
G03X196500000Y-116500000I0J3500000D01*
G01*
X100500000Y-116500000D02*
G75*
G03X104000000Y-120000000I3500000J0D01*
G01*
X104000000Y-90000000D02*
G75*
G03X100500000Y-93500000I0J-3500000D01*
G01*
X193000000Y-90000000D02*
X180250000Y-90000000D01*
X104000000Y-120000000D02*
X116750000Y-120000000D01*
X196500000Y-93500000D02*
X196500000Y-116500000D01*
X100500000Y-93500000D02*
X100500000Y-116500000D01*
M02*
