G04 #@! TF.GenerationSoftware,KiCad,Pcbnew,(5.1.5-0-10_14)*
G04 #@! TF.CreationDate,2020-03-24T18:15:21-07:00*
G04 #@! TF.ProjectId,display_module,64697370-6c61-4795-9f6d-6f64756c652e,rev?*
G04 #@! TF.SameCoordinates,Original*
G04 #@! TF.FileFunction,Copper,L2,Bot*
G04 #@! TF.FilePolarity,Positive*
%FSLAX46Y46*%
G04 Gerber Fmt 4.6, Leading zero omitted, Abs format (unit mm)*
G04 Created by KiCad (PCBNEW (5.1.5-0-10_14)) date 2020-03-24 18:15:21*
%MOMM*%
%LPD*%
G04 APERTURE LIST*
%ADD10O,1.700000X1.700000*%
%ADD11R,1.700000X1.700000*%
%ADD12C,2.200000*%
%ADD13C,0.600000*%
%ADD14C,0.200000*%
%ADD15C,0.300000*%
G04 APERTURE END LIST*
D10*
X144690000Y-93500000D03*
X147230000Y-93500000D03*
X149770000Y-93500000D03*
D11*
X152310000Y-93500000D03*
D10*
X145960000Y-116500000D03*
X148500000Y-116500000D03*
D11*
X151040000Y-116500000D03*
D12*
X182000000Y-113000000D03*
X190000000Y-113000000D03*
X186000000Y-114000000D03*
X191750000Y-109500000D03*
X180250000Y-105000000D03*
X182000000Y-97000000D03*
X190000000Y-97000000D03*
X180250000Y-109500000D03*
X191750000Y-105000000D03*
X186000000Y-96000000D03*
X191750000Y-100500000D03*
X180250000Y-100500000D03*
X107000000Y-113000000D03*
X115000000Y-113000000D03*
X111000000Y-114000000D03*
X116750000Y-109500000D03*
X105250000Y-105000000D03*
X107000000Y-97000000D03*
X115000000Y-97000000D03*
X105250000Y-109500000D03*
X116750000Y-105000000D03*
X111000000Y-96000000D03*
X116750000Y-100500000D03*
X105250000Y-100500000D03*
X160500000Y-113000000D03*
X168500000Y-113000000D03*
X164500000Y-114000000D03*
X170250000Y-109500000D03*
X158750000Y-105000000D03*
X160500000Y-97000000D03*
X168500000Y-97000000D03*
X158750000Y-109500000D03*
X170250000Y-105000000D03*
X164500000Y-96000000D03*
X170250000Y-100500000D03*
X158750000Y-100500000D03*
X128500000Y-113000000D03*
X136500000Y-113000000D03*
X132500000Y-114000000D03*
X138250000Y-109500000D03*
X126750000Y-105000000D03*
X128500000Y-97000000D03*
X136500000Y-97000000D03*
X126750000Y-109500000D03*
X138250000Y-105000000D03*
X132500000Y-96000000D03*
X138250000Y-100500000D03*
X126750000Y-100500000D03*
D13*
X151900000Y-109400000D03*
X188200000Y-117500000D03*
X151100000Y-110000000D03*
X181750000Y-117500000D03*
X154600000Y-112600000D03*
X183750000Y-110000000D03*
X152700000Y-110200000D03*
X173250000Y-115000000D03*
X152200000Y-107500000D03*
X150999993Y-102700007D03*
X152800000Y-104400006D03*
X151699994Y-104400000D03*
X146947499Y-107991640D03*
X133750000Y-116000000D03*
X147806082Y-107721720D03*
X127500000Y-115500000D03*
X149283136Y-110219672D03*
X148710086Y-109525673D03*
X145400000Y-103200000D03*
X147500000Y-104800000D03*
X147200000Y-106400006D03*
X144600000Y-102300000D03*
X148111776Y-108853329D03*
X146600000Y-105600000D03*
X146444980Y-107244984D03*
X146200002Y-104000000D03*
X146900000Y-101800000D03*
X149700000Y-96900000D03*
X144300000Y-95600000D03*
X130500000Y-110000000D03*
X130500000Y-100000000D03*
D14*
X151900000Y-112107122D02*
X151900000Y-109824264D01*
X157292898Y-117500020D02*
X151900000Y-112107122D01*
X186600000Y-115900000D02*
X181200000Y-115900000D01*
X188200000Y-117500000D02*
X186600000Y-115900000D01*
X179599980Y-117500020D02*
X157292898Y-117500020D01*
X181200000Y-115900000D02*
X179599980Y-117500020D01*
X151900000Y-109824264D02*
X151900000Y-109400000D01*
X181750000Y-117500000D02*
X181150000Y-118100000D01*
X181150000Y-118100000D02*
X157100000Y-118100000D01*
X157100000Y-118100000D02*
X150900000Y-111900000D01*
X150900000Y-111900000D02*
X150900000Y-110200000D01*
X150900000Y-110200000D02*
X151000000Y-110100000D01*
X151000000Y-110100000D02*
X151100000Y-110000000D01*
X183750000Y-110000000D02*
X182250000Y-110000000D01*
X182250000Y-110000000D02*
X179000000Y-113250000D01*
X179000000Y-113250000D02*
X172750000Y-113250000D01*
X172750000Y-113250000D02*
X169500000Y-116500000D01*
X169500000Y-116500000D02*
X157707120Y-116500000D01*
X157707120Y-116500000D02*
X154600000Y-113392880D01*
X154600000Y-113392880D02*
X154600000Y-112600000D01*
X152700000Y-110624264D02*
X152700000Y-110200000D01*
X152700000Y-112200002D02*
X152700000Y-110624264D01*
X157500008Y-117000010D02*
X152700000Y-112200002D01*
X171249990Y-117000010D02*
X157500008Y-117000010D01*
X173250000Y-115000000D02*
X171249990Y-117000010D01*
X154100000Y-107500000D02*
X152200000Y-107500000D01*
X157850000Y-111250000D02*
X154100000Y-107500000D01*
X168500000Y-113000000D02*
X166750000Y-111250000D01*
X166750000Y-111250000D02*
X157850000Y-111250000D01*
X173000000Y-97750000D02*
X168749989Y-93499989D01*
X170250000Y-109500000D02*
X173000000Y-106750000D01*
X173000000Y-106750000D02*
X173000000Y-97750000D01*
X168749989Y-93499989D02*
X160214009Y-93499989D01*
X160214009Y-93499989D02*
X151000000Y-102713998D01*
X152800000Y-103975742D02*
X152800000Y-104400006D01*
X152800000Y-103144366D02*
X152800000Y-103975742D01*
X160500000Y-97000000D02*
X158944366Y-97000000D01*
X158944366Y-97000000D02*
X152800000Y-103144366D01*
X170250000Y-105000000D02*
X172499989Y-102750011D01*
X172499989Y-97957111D02*
X168542878Y-94000000D01*
X168542878Y-94000000D02*
X160700000Y-94000000D01*
X172499989Y-102750011D02*
X172499989Y-97957111D01*
X160700000Y-94000000D02*
X151699994Y-103000006D01*
X151699994Y-103000006D02*
X151699994Y-103975736D01*
X151699994Y-103975736D02*
X151699994Y-104400000D01*
X138201098Y-116000000D02*
X146209458Y-107991640D01*
X146209458Y-107991640D02*
X146523235Y-107991640D01*
X133750000Y-116000000D02*
X138201098Y-116000000D01*
X146523235Y-107991640D02*
X146947499Y-107991640D01*
X147260425Y-108691641D02*
X147806082Y-108145984D01*
X147806082Y-108145984D02*
X147806082Y-107721720D01*
X146449396Y-108691641D02*
X147260425Y-108691641D01*
X138226789Y-116914248D02*
X146449396Y-108691641D01*
X128914248Y-116914248D02*
X138226789Y-116914248D01*
X127500000Y-115500000D02*
X128914248Y-116914248D01*
X115000000Y-113000000D02*
X120500008Y-118500008D01*
X120500008Y-118500008D02*
X138899992Y-118500008D01*
X138899992Y-118500008D02*
X146880329Y-110519671D01*
X148983137Y-110519671D02*
X149283136Y-110219672D01*
X146880329Y-110519671D02*
X148983137Y-110519671D01*
X138641013Y-117914268D02*
X146729609Y-109825672D01*
X148410087Y-109825672D02*
X148710086Y-109525673D01*
X116750000Y-109500000D02*
X125164268Y-117914268D01*
X146729609Y-109825672D02*
X148410087Y-109825672D01*
X125164268Y-117914268D02*
X138641013Y-117914268D01*
X144975736Y-103200000D02*
X145400000Y-103200000D01*
X144463996Y-103200000D02*
X144975736Y-103200000D01*
X143899998Y-102636002D02*
X144463996Y-103200000D01*
X138207131Y-91750011D02*
X143899998Y-97442878D01*
X107707111Y-91750011D02*
X138207131Y-91750011D01*
X143899998Y-97442878D02*
X143899998Y-102636002D01*
X102750011Y-96707111D02*
X107707111Y-91750011D01*
X102750011Y-102500011D02*
X102750011Y-96707111D01*
X105250000Y-105000000D02*
X102750011Y-102500011D01*
X142899978Y-103050226D02*
X144649752Y-104800000D01*
X147075736Y-104800000D02*
X147500000Y-104800000D01*
X107000000Y-97000000D02*
X111249967Y-92750033D01*
X142899978Y-97975714D02*
X142899978Y-103050226D01*
X137674297Y-92750033D02*
X142899978Y-97975714D01*
X111249967Y-92750033D02*
X137674297Y-92750033D01*
X144649752Y-104800000D02*
X147075736Y-104800000D01*
X141899958Y-103464450D02*
X144835514Y-106400006D01*
X118249945Y-93750055D02*
X137207175Y-93750055D01*
X144835514Y-106400006D02*
X146775736Y-106400006D01*
X141899958Y-98442838D02*
X141899958Y-103464450D01*
X137207175Y-93750055D02*
X141899958Y-98442838D01*
X146775736Y-106400006D02*
X147200000Y-106400006D01*
X115000000Y-97000000D02*
X118249945Y-93750055D01*
X102250000Y-96500000D02*
X107500000Y-91250000D01*
X102250000Y-106500000D02*
X102250000Y-96500000D01*
X144600000Y-97300000D02*
X144600000Y-101875736D01*
X144600000Y-101875736D02*
X144600000Y-102300000D01*
X105250000Y-109500000D02*
X102250000Y-106500000D01*
X107500000Y-91250000D02*
X138550000Y-91250000D01*
X138550000Y-91250000D02*
X144600000Y-97300000D01*
X147811777Y-109153328D02*
X148111776Y-108853329D01*
X120825742Y-112868620D02*
X125371380Y-117414258D01*
X120825742Y-109075742D02*
X120825742Y-112868620D01*
X116750000Y-105000000D02*
X120825742Y-109075742D01*
X138433901Y-117414258D02*
X146656508Y-109191652D01*
X147773453Y-109191652D02*
X147811777Y-109153328D01*
X146656508Y-109191652D02*
X147773453Y-109191652D01*
X125371380Y-117414258D02*
X138433901Y-117414258D01*
X144742630Y-105600000D02*
X146175736Y-105600000D01*
X137467186Y-93250044D02*
X142399968Y-98182826D01*
X146175736Y-105600000D02*
X146600000Y-105600000D01*
X142399968Y-103257338D02*
X144742630Y-105600000D01*
X142399968Y-98182826D02*
X142399968Y-103257338D01*
X111000000Y-96000000D02*
X113749956Y-93250044D01*
X113749956Y-93250044D02*
X137467186Y-93250044D01*
X141399948Y-103671562D02*
X144973370Y-107244984D01*
X141399948Y-98649950D02*
X141399948Y-103671562D01*
X137000064Y-94250066D02*
X141399948Y-98649950D01*
X122999934Y-94250066D02*
X137000064Y-94250066D01*
X116750000Y-100500000D02*
X122999934Y-94250066D01*
X146020716Y-107244984D02*
X146444980Y-107244984D01*
X144973370Y-107244984D02*
X146020716Y-107244984D01*
X138000020Y-92250022D02*
X143399988Y-97649990D01*
X107914222Y-92250022D02*
X138000020Y-92250022D01*
X105250000Y-94914244D02*
X107914222Y-92250022D01*
X105250000Y-100500000D02*
X105250000Y-94914244D01*
X145775738Y-104000000D02*
X146200002Y-104000000D01*
X144556874Y-104000000D02*
X145775738Y-104000000D01*
X143399988Y-102843114D02*
X144556874Y-104000000D01*
X143399988Y-97649990D02*
X143399988Y-102843114D01*
D15*
X151040000Y-116500000D02*
X151040000Y-114240000D01*
X151040000Y-114240000D02*
X150200000Y-113400000D01*
X150200000Y-113400000D02*
X150200000Y-105300000D01*
X150200000Y-105300000D02*
X150200000Y-105100000D01*
X150200000Y-105100000D02*
X146900000Y-101800000D01*
D14*
X149700000Y-95970000D02*
X149700000Y-96900000D01*
X147230000Y-93500000D02*
X149700000Y-95970000D01*
X144300000Y-95600000D02*
X146800000Y-95600000D01*
X146800000Y-95600000D02*
X149000000Y-97800000D01*
X149000000Y-97800000D02*
X150900000Y-97800000D01*
X152310000Y-96390000D02*
X152310000Y-93500000D01*
X150900000Y-97800000D02*
X152310000Y-96390000D01*
X130500000Y-110000000D02*
X133250000Y-110000000D01*
X133250000Y-110000000D02*
X138250000Y-105000000D01*
X134500000Y-100000000D02*
X135000000Y-100500000D01*
X135000000Y-100500000D02*
X138250000Y-100500000D01*
X130500000Y-100000000D02*
X134500000Y-100000000D01*
M02*
