G04 #@! TF.GenerationSoftware,KiCad,Pcbnew,(5.1.5-0-10_14)*
G04 #@! TF.CreationDate,2020-03-24T18:15:21-07:00*
G04 #@! TF.ProjectId,display_module,64697370-6c61-4795-9f6d-6f64756c652e,rev?*
G04 #@! TF.SameCoordinates,Original*
G04 #@! TF.FileFunction,Legend,Bot*
G04 #@! TF.FilePolarity,Positive*
%FSLAX46Y46*%
G04 Gerber Fmt 4.6, Leading zero omitted, Abs format (unit mm)*
G04 Created by KiCad (PCBNEW (5.1.5-0-10_14)) date 2020-03-24 18:15:21*
%MOMM*%
%LPD*%
G04 APERTURE LIST*
%ADD10C,0.150000*%
G04 APERTURE END LIST*
D10*
X182700000Y-111500000D02*
X183300000Y-111000000D01*
X182700000Y-111500000D02*
X182800000Y-110700000D01*
X183500000Y-110000000D02*
X182700000Y-111500000D01*
X195968330Y-93229292D02*
G75*
G03X186000000Y-90000000I-9968330J-13770708D01*
G01*
X195975179Y-116765747D02*
G75*
G02X186000000Y-120000000I-9975179J13765747D01*
G01*
X176000000Y-116700000D02*
X176000000Y-93300000D01*
X196000000Y-93300000D02*
X196000000Y-116700000D01*
X176031670Y-116770708D02*
G75*
G03X186000000Y-120000000I9968330J13770708D01*
G01*
X176024821Y-93234253D02*
G75*
G02X186000000Y-90000000I9975179J-13765747D01*
G01*
X107700000Y-111500000D02*
X108300000Y-111000000D01*
X107700000Y-111500000D02*
X107800000Y-110700000D01*
X108500000Y-110000000D02*
X107700000Y-111500000D01*
X120968330Y-93229292D02*
G75*
G03X111000000Y-90000000I-9968330J-13770708D01*
G01*
X120975179Y-116765747D02*
G75*
G02X111000000Y-120000000I-9975179J13765747D01*
G01*
X101000000Y-116700000D02*
X101000000Y-93300000D01*
X121000000Y-93300000D02*
X121000000Y-116700000D01*
X101031670Y-116770708D02*
G75*
G03X111000000Y-120000000I9968330J13770708D01*
G01*
X101024821Y-93234253D02*
G75*
G02X111000000Y-90000000I9975179J-13765747D01*
G01*
X161200000Y-111500000D02*
X161800000Y-111000000D01*
X161200000Y-111500000D02*
X161300000Y-110700000D01*
X162000000Y-110000000D02*
X161200000Y-111500000D01*
X174468330Y-93229292D02*
G75*
G03X164500000Y-90000000I-9968330J-13770708D01*
G01*
X174475179Y-116765747D02*
G75*
G02X164500000Y-120000000I-9975179J13765747D01*
G01*
X154500000Y-116700000D02*
X154500000Y-93300000D01*
X174500000Y-93300000D02*
X174500000Y-116700000D01*
X154531670Y-116770708D02*
G75*
G03X164500000Y-120000000I9968330J13770708D01*
G01*
X154524821Y-93234253D02*
G75*
G02X164500000Y-90000000I9975179J-13765747D01*
G01*
X129200000Y-111500000D02*
X129800000Y-111000000D01*
X129200000Y-111500000D02*
X129300000Y-110700000D01*
X130000000Y-110000000D02*
X129200000Y-111500000D01*
X142468330Y-93229292D02*
G75*
G03X132500000Y-90000000I-9968330J-13770708D01*
G01*
X142475179Y-116765747D02*
G75*
G02X132500000Y-120000000I-9975179J13765747D01*
G01*
X122500000Y-116700000D02*
X122500000Y-93300000D01*
X142500000Y-93300000D02*
X142500000Y-116700000D01*
X122531670Y-116770708D02*
G75*
G03X132500000Y-120000000I9968330J13770708D01*
G01*
X122524821Y-93234253D02*
G75*
G02X132500000Y-90000000I9975179J-13765747D01*
G01*
M02*
