G04 #@! TF.GenerationSoftware,KiCad,Pcbnew,(5.1.5-0-10_14)*
G04 #@! TF.CreationDate,2020-03-24T18:15:21-07:00*
G04 #@! TF.ProjectId,display_module,64697370-6c61-4795-9f6d-6f64756c652e,rev?*
G04 #@! TF.SameCoordinates,Original*
G04 #@! TF.FileFunction,Copper,L1,Top*
G04 #@! TF.FilePolarity,Positive*
%FSLAX46Y46*%
G04 Gerber Fmt 4.6, Leading zero omitted, Abs format (unit mm)*
G04 Created by KiCad (PCBNEW (5.1.5-0-10_14)) date 2020-03-24 18:15:21*
%MOMM*%
%LPD*%
G04 APERTURE LIST*
%ADD10C,0.100000*%
%ADD11O,1.700000X1.700000*%
%ADD12R,1.700000X1.700000*%
%ADD13C,2.200000*%
%ADD14R,0.500000X2.200000*%
%ADD15R,2.200000X0.500000*%
%ADD16C,0.600000*%
%ADD17C,0.300000*%
%ADD18C,0.200000*%
G04 APERTURE END LIST*
G04 #@! TA.AperFunction,SMDPad,CuDef*
D10*
G36*
X134005142Y-116801174D02*
G01*
X134028803Y-116804684D01*
X134052007Y-116810496D01*
X134074529Y-116818554D01*
X134096153Y-116828782D01*
X134116670Y-116841079D01*
X134135883Y-116855329D01*
X134153607Y-116871393D01*
X134169671Y-116889117D01*
X134183921Y-116908330D01*
X134196218Y-116928847D01*
X134206446Y-116950471D01*
X134214504Y-116972993D01*
X134220316Y-116996197D01*
X134223826Y-117019858D01*
X134225000Y-117043750D01*
X134225000Y-117956250D01*
X134223826Y-117980142D01*
X134220316Y-118003803D01*
X134214504Y-118027007D01*
X134206446Y-118049529D01*
X134196218Y-118071153D01*
X134183921Y-118091670D01*
X134169671Y-118110883D01*
X134153607Y-118128607D01*
X134135883Y-118144671D01*
X134116670Y-118158921D01*
X134096153Y-118171218D01*
X134074529Y-118181446D01*
X134052007Y-118189504D01*
X134028803Y-118195316D01*
X134005142Y-118198826D01*
X133981250Y-118200000D01*
X133493750Y-118200000D01*
X133469858Y-118198826D01*
X133446197Y-118195316D01*
X133422993Y-118189504D01*
X133400471Y-118181446D01*
X133378847Y-118171218D01*
X133358330Y-118158921D01*
X133339117Y-118144671D01*
X133321393Y-118128607D01*
X133305329Y-118110883D01*
X133291079Y-118091670D01*
X133278782Y-118071153D01*
X133268554Y-118049529D01*
X133260496Y-118027007D01*
X133254684Y-118003803D01*
X133251174Y-117980142D01*
X133250000Y-117956250D01*
X133250000Y-117043750D01*
X133251174Y-117019858D01*
X133254684Y-116996197D01*
X133260496Y-116972993D01*
X133268554Y-116950471D01*
X133278782Y-116928847D01*
X133291079Y-116908330D01*
X133305329Y-116889117D01*
X133321393Y-116871393D01*
X133339117Y-116855329D01*
X133358330Y-116841079D01*
X133378847Y-116828782D01*
X133400471Y-116818554D01*
X133422993Y-116810496D01*
X133446197Y-116804684D01*
X133469858Y-116801174D01*
X133493750Y-116800000D01*
X133981250Y-116800000D01*
X134005142Y-116801174D01*
G37*
G04 #@! TD.AperFunction*
G04 #@! TA.AperFunction,SMDPad,CuDef*
G36*
X132130142Y-116801174D02*
G01*
X132153803Y-116804684D01*
X132177007Y-116810496D01*
X132199529Y-116818554D01*
X132221153Y-116828782D01*
X132241670Y-116841079D01*
X132260883Y-116855329D01*
X132278607Y-116871393D01*
X132294671Y-116889117D01*
X132308921Y-116908330D01*
X132321218Y-116928847D01*
X132331446Y-116950471D01*
X132339504Y-116972993D01*
X132345316Y-116996197D01*
X132348826Y-117019858D01*
X132350000Y-117043750D01*
X132350000Y-117956250D01*
X132348826Y-117980142D01*
X132345316Y-118003803D01*
X132339504Y-118027007D01*
X132331446Y-118049529D01*
X132321218Y-118071153D01*
X132308921Y-118091670D01*
X132294671Y-118110883D01*
X132278607Y-118128607D01*
X132260883Y-118144671D01*
X132241670Y-118158921D01*
X132221153Y-118171218D01*
X132199529Y-118181446D01*
X132177007Y-118189504D01*
X132153803Y-118195316D01*
X132130142Y-118198826D01*
X132106250Y-118200000D01*
X131618750Y-118200000D01*
X131594858Y-118198826D01*
X131571197Y-118195316D01*
X131547993Y-118189504D01*
X131525471Y-118181446D01*
X131503847Y-118171218D01*
X131483330Y-118158921D01*
X131464117Y-118144671D01*
X131446393Y-118128607D01*
X131430329Y-118110883D01*
X131416079Y-118091670D01*
X131403782Y-118071153D01*
X131393554Y-118049529D01*
X131385496Y-118027007D01*
X131379684Y-118003803D01*
X131376174Y-117980142D01*
X131375000Y-117956250D01*
X131375000Y-117043750D01*
X131376174Y-117019858D01*
X131379684Y-116996197D01*
X131385496Y-116972993D01*
X131393554Y-116950471D01*
X131403782Y-116928847D01*
X131416079Y-116908330D01*
X131430329Y-116889117D01*
X131446393Y-116871393D01*
X131464117Y-116855329D01*
X131483330Y-116841079D01*
X131503847Y-116828782D01*
X131525471Y-116818554D01*
X131547993Y-116810496D01*
X131571197Y-116804684D01*
X131594858Y-116801174D01*
X131618750Y-116800000D01*
X132106250Y-116800000D01*
X132130142Y-116801174D01*
G37*
G04 #@! TD.AperFunction*
G04 #@! TA.AperFunction,SMDPad,CuDef*
G36*
X183080142Y-116801174D02*
G01*
X183103803Y-116804684D01*
X183127007Y-116810496D01*
X183149529Y-116818554D01*
X183171153Y-116828782D01*
X183191670Y-116841079D01*
X183210883Y-116855329D01*
X183228607Y-116871393D01*
X183244671Y-116889117D01*
X183258921Y-116908330D01*
X183271218Y-116928847D01*
X183281446Y-116950471D01*
X183289504Y-116972993D01*
X183295316Y-116996197D01*
X183298826Y-117019858D01*
X183300000Y-117043750D01*
X183300000Y-117956250D01*
X183298826Y-117980142D01*
X183295316Y-118003803D01*
X183289504Y-118027007D01*
X183281446Y-118049529D01*
X183271218Y-118071153D01*
X183258921Y-118091670D01*
X183244671Y-118110883D01*
X183228607Y-118128607D01*
X183210883Y-118144671D01*
X183191670Y-118158921D01*
X183171153Y-118171218D01*
X183149529Y-118181446D01*
X183127007Y-118189504D01*
X183103803Y-118195316D01*
X183080142Y-118198826D01*
X183056250Y-118200000D01*
X182568750Y-118200000D01*
X182544858Y-118198826D01*
X182521197Y-118195316D01*
X182497993Y-118189504D01*
X182475471Y-118181446D01*
X182453847Y-118171218D01*
X182433330Y-118158921D01*
X182414117Y-118144671D01*
X182396393Y-118128607D01*
X182380329Y-118110883D01*
X182366079Y-118091670D01*
X182353782Y-118071153D01*
X182343554Y-118049529D01*
X182335496Y-118027007D01*
X182329684Y-118003803D01*
X182326174Y-117980142D01*
X182325000Y-117956250D01*
X182325000Y-117043750D01*
X182326174Y-117019858D01*
X182329684Y-116996197D01*
X182335496Y-116972993D01*
X182343554Y-116950471D01*
X182353782Y-116928847D01*
X182366079Y-116908330D01*
X182380329Y-116889117D01*
X182396393Y-116871393D01*
X182414117Y-116855329D01*
X182433330Y-116841079D01*
X182453847Y-116828782D01*
X182475471Y-116818554D01*
X182497993Y-116810496D01*
X182521197Y-116804684D01*
X182544858Y-116801174D01*
X182568750Y-116800000D01*
X183056250Y-116800000D01*
X183080142Y-116801174D01*
G37*
G04 #@! TD.AperFunction*
G04 #@! TA.AperFunction,SMDPad,CuDef*
G36*
X184955142Y-116801174D02*
G01*
X184978803Y-116804684D01*
X185002007Y-116810496D01*
X185024529Y-116818554D01*
X185046153Y-116828782D01*
X185066670Y-116841079D01*
X185085883Y-116855329D01*
X185103607Y-116871393D01*
X185119671Y-116889117D01*
X185133921Y-116908330D01*
X185146218Y-116928847D01*
X185156446Y-116950471D01*
X185164504Y-116972993D01*
X185170316Y-116996197D01*
X185173826Y-117019858D01*
X185175000Y-117043750D01*
X185175000Y-117956250D01*
X185173826Y-117980142D01*
X185170316Y-118003803D01*
X185164504Y-118027007D01*
X185156446Y-118049529D01*
X185146218Y-118071153D01*
X185133921Y-118091670D01*
X185119671Y-118110883D01*
X185103607Y-118128607D01*
X185085883Y-118144671D01*
X185066670Y-118158921D01*
X185046153Y-118171218D01*
X185024529Y-118181446D01*
X185002007Y-118189504D01*
X184978803Y-118195316D01*
X184955142Y-118198826D01*
X184931250Y-118200000D01*
X184443750Y-118200000D01*
X184419858Y-118198826D01*
X184396197Y-118195316D01*
X184372993Y-118189504D01*
X184350471Y-118181446D01*
X184328847Y-118171218D01*
X184308330Y-118158921D01*
X184289117Y-118144671D01*
X184271393Y-118128607D01*
X184255329Y-118110883D01*
X184241079Y-118091670D01*
X184228782Y-118071153D01*
X184218554Y-118049529D01*
X184210496Y-118027007D01*
X184204684Y-118003803D01*
X184201174Y-117980142D01*
X184200000Y-117956250D01*
X184200000Y-117043750D01*
X184201174Y-117019858D01*
X184204684Y-116996197D01*
X184210496Y-116972993D01*
X184218554Y-116950471D01*
X184228782Y-116928847D01*
X184241079Y-116908330D01*
X184255329Y-116889117D01*
X184271393Y-116871393D01*
X184289117Y-116855329D01*
X184308330Y-116841079D01*
X184328847Y-116828782D01*
X184350471Y-116818554D01*
X184372993Y-116810496D01*
X184396197Y-116804684D01*
X184419858Y-116801174D01*
X184443750Y-116800000D01*
X184931250Y-116800000D01*
X184955142Y-116801174D01*
G37*
G04 #@! TD.AperFunction*
G04 #@! TA.AperFunction,SMDPad,CuDef*
G36*
X107330142Y-116801174D02*
G01*
X107353803Y-116804684D01*
X107377007Y-116810496D01*
X107399529Y-116818554D01*
X107421153Y-116828782D01*
X107441670Y-116841079D01*
X107460883Y-116855329D01*
X107478607Y-116871393D01*
X107494671Y-116889117D01*
X107508921Y-116908330D01*
X107521218Y-116928847D01*
X107531446Y-116950471D01*
X107539504Y-116972993D01*
X107545316Y-116996197D01*
X107548826Y-117019858D01*
X107550000Y-117043750D01*
X107550000Y-117956250D01*
X107548826Y-117980142D01*
X107545316Y-118003803D01*
X107539504Y-118027007D01*
X107531446Y-118049529D01*
X107521218Y-118071153D01*
X107508921Y-118091670D01*
X107494671Y-118110883D01*
X107478607Y-118128607D01*
X107460883Y-118144671D01*
X107441670Y-118158921D01*
X107421153Y-118171218D01*
X107399529Y-118181446D01*
X107377007Y-118189504D01*
X107353803Y-118195316D01*
X107330142Y-118198826D01*
X107306250Y-118200000D01*
X106818750Y-118200000D01*
X106794858Y-118198826D01*
X106771197Y-118195316D01*
X106747993Y-118189504D01*
X106725471Y-118181446D01*
X106703847Y-118171218D01*
X106683330Y-118158921D01*
X106664117Y-118144671D01*
X106646393Y-118128607D01*
X106630329Y-118110883D01*
X106616079Y-118091670D01*
X106603782Y-118071153D01*
X106593554Y-118049529D01*
X106585496Y-118027007D01*
X106579684Y-118003803D01*
X106576174Y-117980142D01*
X106575000Y-117956250D01*
X106575000Y-117043750D01*
X106576174Y-117019858D01*
X106579684Y-116996197D01*
X106585496Y-116972993D01*
X106593554Y-116950471D01*
X106603782Y-116928847D01*
X106616079Y-116908330D01*
X106630329Y-116889117D01*
X106646393Y-116871393D01*
X106664117Y-116855329D01*
X106683330Y-116841079D01*
X106703847Y-116828782D01*
X106725471Y-116818554D01*
X106747993Y-116810496D01*
X106771197Y-116804684D01*
X106794858Y-116801174D01*
X106818750Y-116800000D01*
X107306250Y-116800000D01*
X107330142Y-116801174D01*
G37*
G04 #@! TD.AperFunction*
G04 #@! TA.AperFunction,SMDPad,CuDef*
G36*
X109205142Y-116801174D02*
G01*
X109228803Y-116804684D01*
X109252007Y-116810496D01*
X109274529Y-116818554D01*
X109296153Y-116828782D01*
X109316670Y-116841079D01*
X109335883Y-116855329D01*
X109353607Y-116871393D01*
X109369671Y-116889117D01*
X109383921Y-116908330D01*
X109396218Y-116928847D01*
X109406446Y-116950471D01*
X109414504Y-116972993D01*
X109420316Y-116996197D01*
X109423826Y-117019858D01*
X109425000Y-117043750D01*
X109425000Y-117956250D01*
X109423826Y-117980142D01*
X109420316Y-118003803D01*
X109414504Y-118027007D01*
X109406446Y-118049529D01*
X109396218Y-118071153D01*
X109383921Y-118091670D01*
X109369671Y-118110883D01*
X109353607Y-118128607D01*
X109335883Y-118144671D01*
X109316670Y-118158921D01*
X109296153Y-118171218D01*
X109274529Y-118181446D01*
X109252007Y-118189504D01*
X109228803Y-118195316D01*
X109205142Y-118198826D01*
X109181250Y-118200000D01*
X108693750Y-118200000D01*
X108669858Y-118198826D01*
X108646197Y-118195316D01*
X108622993Y-118189504D01*
X108600471Y-118181446D01*
X108578847Y-118171218D01*
X108558330Y-118158921D01*
X108539117Y-118144671D01*
X108521393Y-118128607D01*
X108505329Y-118110883D01*
X108491079Y-118091670D01*
X108478782Y-118071153D01*
X108468554Y-118049529D01*
X108460496Y-118027007D01*
X108454684Y-118003803D01*
X108451174Y-117980142D01*
X108450000Y-117956250D01*
X108450000Y-117043750D01*
X108451174Y-117019858D01*
X108454684Y-116996197D01*
X108460496Y-116972993D01*
X108468554Y-116950471D01*
X108478782Y-116928847D01*
X108491079Y-116908330D01*
X108505329Y-116889117D01*
X108521393Y-116871393D01*
X108539117Y-116855329D01*
X108558330Y-116841079D01*
X108578847Y-116828782D01*
X108600471Y-116818554D01*
X108622993Y-116810496D01*
X108646197Y-116804684D01*
X108669858Y-116801174D01*
X108693750Y-116800000D01*
X109181250Y-116800000D01*
X109205142Y-116801174D01*
G37*
G04 #@! TD.AperFunction*
G04 #@! TA.AperFunction,SMDPad,CuDef*
G36*
X138705142Y-92301174D02*
G01*
X138728803Y-92304684D01*
X138752007Y-92310496D01*
X138774529Y-92318554D01*
X138796153Y-92328782D01*
X138816670Y-92341079D01*
X138835883Y-92355329D01*
X138853607Y-92371393D01*
X138869671Y-92389117D01*
X138883921Y-92408330D01*
X138896218Y-92428847D01*
X138906446Y-92450471D01*
X138914504Y-92472993D01*
X138920316Y-92496197D01*
X138923826Y-92519858D01*
X138925000Y-92543750D01*
X138925000Y-93456250D01*
X138923826Y-93480142D01*
X138920316Y-93503803D01*
X138914504Y-93527007D01*
X138906446Y-93549529D01*
X138896218Y-93571153D01*
X138883921Y-93591670D01*
X138869671Y-93610883D01*
X138853607Y-93628607D01*
X138835883Y-93644671D01*
X138816670Y-93658921D01*
X138796153Y-93671218D01*
X138774529Y-93681446D01*
X138752007Y-93689504D01*
X138728803Y-93695316D01*
X138705142Y-93698826D01*
X138681250Y-93700000D01*
X138193750Y-93700000D01*
X138169858Y-93698826D01*
X138146197Y-93695316D01*
X138122993Y-93689504D01*
X138100471Y-93681446D01*
X138078847Y-93671218D01*
X138058330Y-93658921D01*
X138039117Y-93644671D01*
X138021393Y-93628607D01*
X138005329Y-93610883D01*
X137991079Y-93591670D01*
X137978782Y-93571153D01*
X137968554Y-93549529D01*
X137960496Y-93527007D01*
X137954684Y-93503803D01*
X137951174Y-93480142D01*
X137950000Y-93456250D01*
X137950000Y-92543750D01*
X137951174Y-92519858D01*
X137954684Y-92496197D01*
X137960496Y-92472993D01*
X137968554Y-92450471D01*
X137978782Y-92428847D01*
X137991079Y-92408330D01*
X138005329Y-92389117D01*
X138021393Y-92371393D01*
X138039117Y-92355329D01*
X138058330Y-92341079D01*
X138078847Y-92328782D01*
X138100471Y-92318554D01*
X138122993Y-92310496D01*
X138146197Y-92304684D01*
X138169858Y-92301174D01*
X138193750Y-92300000D01*
X138681250Y-92300000D01*
X138705142Y-92301174D01*
G37*
G04 #@! TD.AperFunction*
G04 #@! TA.AperFunction,SMDPad,CuDef*
G36*
X136830142Y-92301174D02*
G01*
X136853803Y-92304684D01*
X136877007Y-92310496D01*
X136899529Y-92318554D01*
X136921153Y-92328782D01*
X136941670Y-92341079D01*
X136960883Y-92355329D01*
X136978607Y-92371393D01*
X136994671Y-92389117D01*
X137008921Y-92408330D01*
X137021218Y-92428847D01*
X137031446Y-92450471D01*
X137039504Y-92472993D01*
X137045316Y-92496197D01*
X137048826Y-92519858D01*
X137050000Y-92543750D01*
X137050000Y-93456250D01*
X137048826Y-93480142D01*
X137045316Y-93503803D01*
X137039504Y-93527007D01*
X137031446Y-93549529D01*
X137021218Y-93571153D01*
X137008921Y-93591670D01*
X136994671Y-93610883D01*
X136978607Y-93628607D01*
X136960883Y-93644671D01*
X136941670Y-93658921D01*
X136921153Y-93671218D01*
X136899529Y-93681446D01*
X136877007Y-93689504D01*
X136853803Y-93695316D01*
X136830142Y-93698826D01*
X136806250Y-93700000D01*
X136318750Y-93700000D01*
X136294858Y-93698826D01*
X136271197Y-93695316D01*
X136247993Y-93689504D01*
X136225471Y-93681446D01*
X136203847Y-93671218D01*
X136183330Y-93658921D01*
X136164117Y-93644671D01*
X136146393Y-93628607D01*
X136130329Y-93610883D01*
X136116079Y-93591670D01*
X136103782Y-93571153D01*
X136093554Y-93549529D01*
X136085496Y-93527007D01*
X136079684Y-93503803D01*
X136076174Y-93480142D01*
X136075000Y-93456250D01*
X136075000Y-92543750D01*
X136076174Y-92519858D01*
X136079684Y-92496197D01*
X136085496Y-92472993D01*
X136093554Y-92450471D01*
X136103782Y-92428847D01*
X136116079Y-92408330D01*
X136130329Y-92389117D01*
X136146393Y-92371393D01*
X136164117Y-92355329D01*
X136183330Y-92341079D01*
X136203847Y-92328782D01*
X136225471Y-92318554D01*
X136247993Y-92310496D01*
X136271197Y-92304684D01*
X136294858Y-92301174D01*
X136318750Y-92300000D01*
X136806250Y-92300000D01*
X136830142Y-92301174D01*
G37*
G04 #@! TD.AperFunction*
G04 #@! TA.AperFunction,SMDPad,CuDef*
G36*
X133705142Y-99301174D02*
G01*
X133728803Y-99304684D01*
X133752007Y-99310496D01*
X133774529Y-99318554D01*
X133796153Y-99328782D01*
X133816670Y-99341079D01*
X133835883Y-99355329D01*
X133853607Y-99371393D01*
X133869671Y-99389117D01*
X133883921Y-99408330D01*
X133896218Y-99428847D01*
X133906446Y-99450471D01*
X133914504Y-99472993D01*
X133920316Y-99496197D01*
X133923826Y-99519858D01*
X133925000Y-99543750D01*
X133925000Y-100456250D01*
X133923826Y-100480142D01*
X133920316Y-100503803D01*
X133914504Y-100527007D01*
X133906446Y-100549529D01*
X133896218Y-100571153D01*
X133883921Y-100591670D01*
X133869671Y-100610883D01*
X133853607Y-100628607D01*
X133835883Y-100644671D01*
X133816670Y-100658921D01*
X133796153Y-100671218D01*
X133774529Y-100681446D01*
X133752007Y-100689504D01*
X133728803Y-100695316D01*
X133705142Y-100698826D01*
X133681250Y-100700000D01*
X133193750Y-100700000D01*
X133169858Y-100698826D01*
X133146197Y-100695316D01*
X133122993Y-100689504D01*
X133100471Y-100681446D01*
X133078847Y-100671218D01*
X133058330Y-100658921D01*
X133039117Y-100644671D01*
X133021393Y-100628607D01*
X133005329Y-100610883D01*
X132991079Y-100591670D01*
X132978782Y-100571153D01*
X132968554Y-100549529D01*
X132960496Y-100527007D01*
X132954684Y-100503803D01*
X132951174Y-100480142D01*
X132950000Y-100456250D01*
X132950000Y-99543750D01*
X132951174Y-99519858D01*
X132954684Y-99496197D01*
X132960496Y-99472993D01*
X132968554Y-99450471D01*
X132978782Y-99428847D01*
X132991079Y-99408330D01*
X133005329Y-99389117D01*
X133021393Y-99371393D01*
X133039117Y-99355329D01*
X133058330Y-99341079D01*
X133078847Y-99328782D01*
X133100471Y-99318554D01*
X133122993Y-99310496D01*
X133146197Y-99304684D01*
X133169858Y-99301174D01*
X133193750Y-99300000D01*
X133681250Y-99300000D01*
X133705142Y-99301174D01*
G37*
G04 #@! TD.AperFunction*
G04 #@! TA.AperFunction,SMDPad,CuDef*
G36*
X131830142Y-99301174D02*
G01*
X131853803Y-99304684D01*
X131877007Y-99310496D01*
X131899529Y-99318554D01*
X131921153Y-99328782D01*
X131941670Y-99341079D01*
X131960883Y-99355329D01*
X131978607Y-99371393D01*
X131994671Y-99389117D01*
X132008921Y-99408330D01*
X132021218Y-99428847D01*
X132031446Y-99450471D01*
X132039504Y-99472993D01*
X132045316Y-99496197D01*
X132048826Y-99519858D01*
X132050000Y-99543750D01*
X132050000Y-100456250D01*
X132048826Y-100480142D01*
X132045316Y-100503803D01*
X132039504Y-100527007D01*
X132031446Y-100549529D01*
X132021218Y-100571153D01*
X132008921Y-100591670D01*
X131994671Y-100610883D01*
X131978607Y-100628607D01*
X131960883Y-100644671D01*
X131941670Y-100658921D01*
X131921153Y-100671218D01*
X131899529Y-100681446D01*
X131877007Y-100689504D01*
X131853803Y-100695316D01*
X131830142Y-100698826D01*
X131806250Y-100700000D01*
X131318750Y-100700000D01*
X131294858Y-100698826D01*
X131271197Y-100695316D01*
X131247993Y-100689504D01*
X131225471Y-100681446D01*
X131203847Y-100671218D01*
X131183330Y-100658921D01*
X131164117Y-100644671D01*
X131146393Y-100628607D01*
X131130329Y-100610883D01*
X131116079Y-100591670D01*
X131103782Y-100571153D01*
X131093554Y-100549529D01*
X131085496Y-100527007D01*
X131079684Y-100503803D01*
X131076174Y-100480142D01*
X131075000Y-100456250D01*
X131075000Y-99543750D01*
X131076174Y-99519858D01*
X131079684Y-99496197D01*
X131085496Y-99472993D01*
X131093554Y-99450471D01*
X131103782Y-99428847D01*
X131116079Y-99408330D01*
X131130329Y-99389117D01*
X131146393Y-99371393D01*
X131164117Y-99355329D01*
X131183330Y-99341079D01*
X131203847Y-99328782D01*
X131225471Y-99318554D01*
X131247993Y-99310496D01*
X131271197Y-99304684D01*
X131294858Y-99301174D01*
X131318750Y-99300000D01*
X131806250Y-99300000D01*
X131830142Y-99301174D01*
G37*
G04 #@! TD.AperFunction*
G04 #@! TA.AperFunction,SMDPad,CuDef*
G36*
X133705142Y-109301174D02*
G01*
X133728803Y-109304684D01*
X133752007Y-109310496D01*
X133774529Y-109318554D01*
X133796153Y-109328782D01*
X133816670Y-109341079D01*
X133835883Y-109355329D01*
X133853607Y-109371393D01*
X133869671Y-109389117D01*
X133883921Y-109408330D01*
X133896218Y-109428847D01*
X133906446Y-109450471D01*
X133914504Y-109472993D01*
X133920316Y-109496197D01*
X133923826Y-109519858D01*
X133925000Y-109543750D01*
X133925000Y-110456250D01*
X133923826Y-110480142D01*
X133920316Y-110503803D01*
X133914504Y-110527007D01*
X133906446Y-110549529D01*
X133896218Y-110571153D01*
X133883921Y-110591670D01*
X133869671Y-110610883D01*
X133853607Y-110628607D01*
X133835883Y-110644671D01*
X133816670Y-110658921D01*
X133796153Y-110671218D01*
X133774529Y-110681446D01*
X133752007Y-110689504D01*
X133728803Y-110695316D01*
X133705142Y-110698826D01*
X133681250Y-110700000D01*
X133193750Y-110700000D01*
X133169858Y-110698826D01*
X133146197Y-110695316D01*
X133122993Y-110689504D01*
X133100471Y-110681446D01*
X133078847Y-110671218D01*
X133058330Y-110658921D01*
X133039117Y-110644671D01*
X133021393Y-110628607D01*
X133005329Y-110610883D01*
X132991079Y-110591670D01*
X132978782Y-110571153D01*
X132968554Y-110549529D01*
X132960496Y-110527007D01*
X132954684Y-110503803D01*
X132951174Y-110480142D01*
X132950000Y-110456250D01*
X132950000Y-109543750D01*
X132951174Y-109519858D01*
X132954684Y-109496197D01*
X132960496Y-109472993D01*
X132968554Y-109450471D01*
X132978782Y-109428847D01*
X132991079Y-109408330D01*
X133005329Y-109389117D01*
X133021393Y-109371393D01*
X133039117Y-109355329D01*
X133058330Y-109341079D01*
X133078847Y-109328782D01*
X133100471Y-109318554D01*
X133122993Y-109310496D01*
X133146197Y-109304684D01*
X133169858Y-109301174D01*
X133193750Y-109300000D01*
X133681250Y-109300000D01*
X133705142Y-109301174D01*
G37*
G04 #@! TD.AperFunction*
G04 #@! TA.AperFunction,SMDPad,CuDef*
G36*
X131830142Y-109301174D02*
G01*
X131853803Y-109304684D01*
X131877007Y-109310496D01*
X131899529Y-109318554D01*
X131921153Y-109328782D01*
X131941670Y-109341079D01*
X131960883Y-109355329D01*
X131978607Y-109371393D01*
X131994671Y-109389117D01*
X132008921Y-109408330D01*
X132021218Y-109428847D01*
X132031446Y-109450471D01*
X132039504Y-109472993D01*
X132045316Y-109496197D01*
X132048826Y-109519858D01*
X132050000Y-109543750D01*
X132050000Y-110456250D01*
X132048826Y-110480142D01*
X132045316Y-110503803D01*
X132039504Y-110527007D01*
X132031446Y-110549529D01*
X132021218Y-110571153D01*
X132008921Y-110591670D01*
X131994671Y-110610883D01*
X131978607Y-110628607D01*
X131960883Y-110644671D01*
X131941670Y-110658921D01*
X131921153Y-110671218D01*
X131899529Y-110681446D01*
X131877007Y-110689504D01*
X131853803Y-110695316D01*
X131830142Y-110698826D01*
X131806250Y-110700000D01*
X131318750Y-110700000D01*
X131294858Y-110698826D01*
X131271197Y-110695316D01*
X131247993Y-110689504D01*
X131225471Y-110681446D01*
X131203847Y-110671218D01*
X131183330Y-110658921D01*
X131164117Y-110644671D01*
X131146393Y-110628607D01*
X131130329Y-110610883D01*
X131116079Y-110591670D01*
X131103782Y-110571153D01*
X131093554Y-110549529D01*
X131085496Y-110527007D01*
X131079684Y-110503803D01*
X131076174Y-110480142D01*
X131075000Y-110456250D01*
X131075000Y-109543750D01*
X131076174Y-109519858D01*
X131079684Y-109496197D01*
X131085496Y-109472993D01*
X131093554Y-109450471D01*
X131103782Y-109428847D01*
X131116079Y-109408330D01*
X131130329Y-109389117D01*
X131146393Y-109371393D01*
X131164117Y-109355329D01*
X131183330Y-109341079D01*
X131203847Y-109328782D01*
X131225471Y-109318554D01*
X131247993Y-109310496D01*
X131271197Y-109304684D01*
X131294858Y-109301174D01*
X131318750Y-109300000D01*
X131806250Y-109300000D01*
X131830142Y-109301174D01*
G37*
G04 #@! TD.AperFunction*
G04 #@! TA.AperFunction,SMDPad,CuDef*
G36*
X142005142Y-112501174D02*
G01*
X142028803Y-112504684D01*
X142052007Y-112510496D01*
X142074529Y-112518554D01*
X142096153Y-112528782D01*
X142116670Y-112541079D01*
X142135883Y-112555329D01*
X142153607Y-112571393D01*
X142169671Y-112589117D01*
X142183921Y-112608330D01*
X142196218Y-112628847D01*
X142206446Y-112650471D01*
X142214504Y-112672993D01*
X142220316Y-112696197D01*
X142223826Y-112719858D01*
X142225000Y-112743750D01*
X142225000Y-113656250D01*
X142223826Y-113680142D01*
X142220316Y-113703803D01*
X142214504Y-113727007D01*
X142206446Y-113749529D01*
X142196218Y-113771153D01*
X142183921Y-113791670D01*
X142169671Y-113810883D01*
X142153607Y-113828607D01*
X142135883Y-113844671D01*
X142116670Y-113858921D01*
X142096153Y-113871218D01*
X142074529Y-113881446D01*
X142052007Y-113889504D01*
X142028803Y-113895316D01*
X142005142Y-113898826D01*
X141981250Y-113900000D01*
X141493750Y-113900000D01*
X141469858Y-113898826D01*
X141446197Y-113895316D01*
X141422993Y-113889504D01*
X141400471Y-113881446D01*
X141378847Y-113871218D01*
X141358330Y-113858921D01*
X141339117Y-113844671D01*
X141321393Y-113828607D01*
X141305329Y-113810883D01*
X141291079Y-113791670D01*
X141278782Y-113771153D01*
X141268554Y-113749529D01*
X141260496Y-113727007D01*
X141254684Y-113703803D01*
X141251174Y-113680142D01*
X141250000Y-113656250D01*
X141250000Y-112743750D01*
X141251174Y-112719858D01*
X141254684Y-112696197D01*
X141260496Y-112672993D01*
X141268554Y-112650471D01*
X141278782Y-112628847D01*
X141291079Y-112608330D01*
X141305329Y-112589117D01*
X141321393Y-112571393D01*
X141339117Y-112555329D01*
X141358330Y-112541079D01*
X141378847Y-112528782D01*
X141400471Y-112518554D01*
X141422993Y-112510496D01*
X141446197Y-112504684D01*
X141469858Y-112501174D01*
X141493750Y-112500000D01*
X141981250Y-112500000D01*
X142005142Y-112501174D01*
G37*
G04 #@! TD.AperFunction*
G04 #@! TA.AperFunction,SMDPad,CuDef*
G36*
X140130142Y-112501174D02*
G01*
X140153803Y-112504684D01*
X140177007Y-112510496D01*
X140199529Y-112518554D01*
X140221153Y-112528782D01*
X140241670Y-112541079D01*
X140260883Y-112555329D01*
X140278607Y-112571393D01*
X140294671Y-112589117D01*
X140308921Y-112608330D01*
X140321218Y-112628847D01*
X140331446Y-112650471D01*
X140339504Y-112672993D01*
X140345316Y-112696197D01*
X140348826Y-112719858D01*
X140350000Y-112743750D01*
X140350000Y-113656250D01*
X140348826Y-113680142D01*
X140345316Y-113703803D01*
X140339504Y-113727007D01*
X140331446Y-113749529D01*
X140321218Y-113771153D01*
X140308921Y-113791670D01*
X140294671Y-113810883D01*
X140278607Y-113828607D01*
X140260883Y-113844671D01*
X140241670Y-113858921D01*
X140221153Y-113871218D01*
X140199529Y-113881446D01*
X140177007Y-113889504D01*
X140153803Y-113895316D01*
X140130142Y-113898826D01*
X140106250Y-113900000D01*
X139618750Y-113900000D01*
X139594858Y-113898826D01*
X139571197Y-113895316D01*
X139547993Y-113889504D01*
X139525471Y-113881446D01*
X139503847Y-113871218D01*
X139483330Y-113858921D01*
X139464117Y-113844671D01*
X139446393Y-113828607D01*
X139430329Y-113810883D01*
X139416079Y-113791670D01*
X139403782Y-113771153D01*
X139393554Y-113749529D01*
X139385496Y-113727007D01*
X139379684Y-113703803D01*
X139376174Y-113680142D01*
X139375000Y-113656250D01*
X139375000Y-112743750D01*
X139376174Y-112719858D01*
X139379684Y-112696197D01*
X139385496Y-112672993D01*
X139393554Y-112650471D01*
X139403782Y-112628847D01*
X139416079Y-112608330D01*
X139430329Y-112589117D01*
X139446393Y-112571393D01*
X139464117Y-112555329D01*
X139483330Y-112541079D01*
X139503847Y-112528782D01*
X139525471Y-112518554D01*
X139547993Y-112510496D01*
X139571197Y-112504684D01*
X139594858Y-112501174D01*
X139618750Y-112500000D01*
X140106250Y-112500000D01*
X140130142Y-112501174D01*
G37*
G04 #@! TD.AperFunction*
G04 #@! TA.AperFunction,SMDPad,CuDef*
G36*
X139705142Y-116801174D02*
G01*
X139728803Y-116804684D01*
X139752007Y-116810496D01*
X139774529Y-116818554D01*
X139796153Y-116828782D01*
X139816670Y-116841079D01*
X139835883Y-116855329D01*
X139853607Y-116871393D01*
X139869671Y-116889117D01*
X139883921Y-116908330D01*
X139896218Y-116928847D01*
X139906446Y-116950471D01*
X139914504Y-116972993D01*
X139920316Y-116996197D01*
X139923826Y-117019858D01*
X139925000Y-117043750D01*
X139925000Y-117956250D01*
X139923826Y-117980142D01*
X139920316Y-118003803D01*
X139914504Y-118027007D01*
X139906446Y-118049529D01*
X139896218Y-118071153D01*
X139883921Y-118091670D01*
X139869671Y-118110883D01*
X139853607Y-118128607D01*
X139835883Y-118144671D01*
X139816670Y-118158921D01*
X139796153Y-118171218D01*
X139774529Y-118181446D01*
X139752007Y-118189504D01*
X139728803Y-118195316D01*
X139705142Y-118198826D01*
X139681250Y-118200000D01*
X139193750Y-118200000D01*
X139169858Y-118198826D01*
X139146197Y-118195316D01*
X139122993Y-118189504D01*
X139100471Y-118181446D01*
X139078847Y-118171218D01*
X139058330Y-118158921D01*
X139039117Y-118144671D01*
X139021393Y-118128607D01*
X139005329Y-118110883D01*
X138991079Y-118091670D01*
X138978782Y-118071153D01*
X138968554Y-118049529D01*
X138960496Y-118027007D01*
X138954684Y-118003803D01*
X138951174Y-117980142D01*
X138950000Y-117956250D01*
X138950000Y-117043750D01*
X138951174Y-117019858D01*
X138954684Y-116996197D01*
X138960496Y-116972993D01*
X138968554Y-116950471D01*
X138978782Y-116928847D01*
X138991079Y-116908330D01*
X139005329Y-116889117D01*
X139021393Y-116871393D01*
X139039117Y-116855329D01*
X139058330Y-116841079D01*
X139078847Y-116828782D01*
X139100471Y-116818554D01*
X139122993Y-116810496D01*
X139146197Y-116804684D01*
X139169858Y-116801174D01*
X139193750Y-116800000D01*
X139681250Y-116800000D01*
X139705142Y-116801174D01*
G37*
G04 #@! TD.AperFunction*
G04 #@! TA.AperFunction,SMDPad,CuDef*
G36*
X137830142Y-116801174D02*
G01*
X137853803Y-116804684D01*
X137877007Y-116810496D01*
X137899529Y-116818554D01*
X137921153Y-116828782D01*
X137941670Y-116841079D01*
X137960883Y-116855329D01*
X137978607Y-116871393D01*
X137994671Y-116889117D01*
X138008921Y-116908330D01*
X138021218Y-116928847D01*
X138031446Y-116950471D01*
X138039504Y-116972993D01*
X138045316Y-116996197D01*
X138048826Y-117019858D01*
X138050000Y-117043750D01*
X138050000Y-117956250D01*
X138048826Y-117980142D01*
X138045316Y-118003803D01*
X138039504Y-118027007D01*
X138031446Y-118049529D01*
X138021218Y-118071153D01*
X138008921Y-118091670D01*
X137994671Y-118110883D01*
X137978607Y-118128607D01*
X137960883Y-118144671D01*
X137941670Y-118158921D01*
X137921153Y-118171218D01*
X137899529Y-118181446D01*
X137877007Y-118189504D01*
X137853803Y-118195316D01*
X137830142Y-118198826D01*
X137806250Y-118200000D01*
X137318750Y-118200000D01*
X137294858Y-118198826D01*
X137271197Y-118195316D01*
X137247993Y-118189504D01*
X137225471Y-118181446D01*
X137203847Y-118171218D01*
X137183330Y-118158921D01*
X137164117Y-118144671D01*
X137146393Y-118128607D01*
X137130329Y-118110883D01*
X137116079Y-118091670D01*
X137103782Y-118071153D01*
X137093554Y-118049529D01*
X137085496Y-118027007D01*
X137079684Y-118003803D01*
X137076174Y-117980142D01*
X137075000Y-117956250D01*
X137075000Y-117043750D01*
X137076174Y-117019858D01*
X137079684Y-116996197D01*
X137085496Y-116972993D01*
X137093554Y-116950471D01*
X137103782Y-116928847D01*
X137116079Y-116908330D01*
X137130329Y-116889117D01*
X137146393Y-116871393D01*
X137164117Y-116855329D01*
X137183330Y-116841079D01*
X137203847Y-116828782D01*
X137225471Y-116818554D01*
X137247993Y-116810496D01*
X137271197Y-116804684D01*
X137294858Y-116801174D01*
X137318750Y-116800000D01*
X137806250Y-116800000D01*
X137830142Y-116801174D01*
G37*
G04 #@! TD.AperFunction*
G04 #@! TA.AperFunction,SMDPad,CuDef*
G36*
X127705142Y-116801174D02*
G01*
X127728803Y-116804684D01*
X127752007Y-116810496D01*
X127774529Y-116818554D01*
X127796153Y-116828782D01*
X127816670Y-116841079D01*
X127835883Y-116855329D01*
X127853607Y-116871393D01*
X127869671Y-116889117D01*
X127883921Y-116908330D01*
X127896218Y-116928847D01*
X127906446Y-116950471D01*
X127914504Y-116972993D01*
X127920316Y-116996197D01*
X127923826Y-117019858D01*
X127925000Y-117043750D01*
X127925000Y-117956250D01*
X127923826Y-117980142D01*
X127920316Y-118003803D01*
X127914504Y-118027007D01*
X127906446Y-118049529D01*
X127896218Y-118071153D01*
X127883921Y-118091670D01*
X127869671Y-118110883D01*
X127853607Y-118128607D01*
X127835883Y-118144671D01*
X127816670Y-118158921D01*
X127796153Y-118171218D01*
X127774529Y-118181446D01*
X127752007Y-118189504D01*
X127728803Y-118195316D01*
X127705142Y-118198826D01*
X127681250Y-118200000D01*
X127193750Y-118200000D01*
X127169858Y-118198826D01*
X127146197Y-118195316D01*
X127122993Y-118189504D01*
X127100471Y-118181446D01*
X127078847Y-118171218D01*
X127058330Y-118158921D01*
X127039117Y-118144671D01*
X127021393Y-118128607D01*
X127005329Y-118110883D01*
X126991079Y-118091670D01*
X126978782Y-118071153D01*
X126968554Y-118049529D01*
X126960496Y-118027007D01*
X126954684Y-118003803D01*
X126951174Y-117980142D01*
X126950000Y-117956250D01*
X126950000Y-117043750D01*
X126951174Y-117019858D01*
X126954684Y-116996197D01*
X126960496Y-116972993D01*
X126968554Y-116950471D01*
X126978782Y-116928847D01*
X126991079Y-116908330D01*
X127005329Y-116889117D01*
X127021393Y-116871393D01*
X127039117Y-116855329D01*
X127058330Y-116841079D01*
X127078847Y-116828782D01*
X127100471Y-116818554D01*
X127122993Y-116810496D01*
X127146197Y-116804684D01*
X127169858Y-116801174D01*
X127193750Y-116800000D01*
X127681250Y-116800000D01*
X127705142Y-116801174D01*
G37*
G04 #@! TD.AperFunction*
G04 #@! TA.AperFunction,SMDPad,CuDef*
G36*
X125830142Y-116801174D02*
G01*
X125853803Y-116804684D01*
X125877007Y-116810496D01*
X125899529Y-116818554D01*
X125921153Y-116828782D01*
X125941670Y-116841079D01*
X125960883Y-116855329D01*
X125978607Y-116871393D01*
X125994671Y-116889117D01*
X126008921Y-116908330D01*
X126021218Y-116928847D01*
X126031446Y-116950471D01*
X126039504Y-116972993D01*
X126045316Y-116996197D01*
X126048826Y-117019858D01*
X126050000Y-117043750D01*
X126050000Y-117956250D01*
X126048826Y-117980142D01*
X126045316Y-118003803D01*
X126039504Y-118027007D01*
X126031446Y-118049529D01*
X126021218Y-118071153D01*
X126008921Y-118091670D01*
X125994671Y-118110883D01*
X125978607Y-118128607D01*
X125960883Y-118144671D01*
X125941670Y-118158921D01*
X125921153Y-118171218D01*
X125899529Y-118181446D01*
X125877007Y-118189504D01*
X125853803Y-118195316D01*
X125830142Y-118198826D01*
X125806250Y-118200000D01*
X125318750Y-118200000D01*
X125294858Y-118198826D01*
X125271197Y-118195316D01*
X125247993Y-118189504D01*
X125225471Y-118181446D01*
X125203847Y-118171218D01*
X125183330Y-118158921D01*
X125164117Y-118144671D01*
X125146393Y-118128607D01*
X125130329Y-118110883D01*
X125116079Y-118091670D01*
X125103782Y-118071153D01*
X125093554Y-118049529D01*
X125085496Y-118027007D01*
X125079684Y-118003803D01*
X125076174Y-117980142D01*
X125075000Y-117956250D01*
X125075000Y-117043750D01*
X125076174Y-117019858D01*
X125079684Y-116996197D01*
X125085496Y-116972993D01*
X125093554Y-116950471D01*
X125103782Y-116928847D01*
X125116079Y-116908330D01*
X125130329Y-116889117D01*
X125146393Y-116871393D01*
X125164117Y-116855329D01*
X125183330Y-116841079D01*
X125203847Y-116828782D01*
X125225471Y-116818554D01*
X125247993Y-116810496D01*
X125271197Y-116804684D01*
X125294858Y-116801174D01*
X125318750Y-116800000D01*
X125806250Y-116800000D01*
X125830142Y-116801174D01*
G37*
G04 #@! TD.AperFunction*
G04 #@! TA.AperFunction,SMDPad,CuDef*
G36*
X156980142Y-115076174D02*
G01*
X157003803Y-115079684D01*
X157027007Y-115085496D01*
X157049529Y-115093554D01*
X157071153Y-115103782D01*
X157091670Y-115116079D01*
X157110883Y-115130329D01*
X157128607Y-115146393D01*
X157144671Y-115164117D01*
X157158921Y-115183330D01*
X157171218Y-115203847D01*
X157181446Y-115225471D01*
X157189504Y-115247993D01*
X157195316Y-115271197D01*
X157198826Y-115294858D01*
X157200000Y-115318750D01*
X157200000Y-115806250D01*
X157198826Y-115830142D01*
X157195316Y-115853803D01*
X157189504Y-115877007D01*
X157181446Y-115899529D01*
X157171218Y-115921153D01*
X157158921Y-115941670D01*
X157144671Y-115960883D01*
X157128607Y-115978607D01*
X157110883Y-115994671D01*
X157091670Y-116008921D01*
X157071153Y-116021218D01*
X157049529Y-116031446D01*
X157027007Y-116039504D01*
X157003803Y-116045316D01*
X156980142Y-116048826D01*
X156956250Y-116050000D01*
X156043750Y-116050000D01*
X156019858Y-116048826D01*
X155996197Y-116045316D01*
X155972993Y-116039504D01*
X155950471Y-116031446D01*
X155928847Y-116021218D01*
X155908330Y-116008921D01*
X155889117Y-115994671D01*
X155871393Y-115978607D01*
X155855329Y-115960883D01*
X155841079Y-115941670D01*
X155828782Y-115921153D01*
X155818554Y-115899529D01*
X155810496Y-115877007D01*
X155804684Y-115853803D01*
X155801174Y-115830142D01*
X155800000Y-115806250D01*
X155800000Y-115318750D01*
X155801174Y-115294858D01*
X155804684Y-115271197D01*
X155810496Y-115247993D01*
X155818554Y-115225471D01*
X155828782Y-115203847D01*
X155841079Y-115183330D01*
X155855329Y-115164117D01*
X155871393Y-115146393D01*
X155889117Y-115130329D01*
X155908330Y-115116079D01*
X155928847Y-115103782D01*
X155950471Y-115093554D01*
X155972993Y-115085496D01*
X155996197Y-115079684D01*
X156019858Y-115076174D01*
X156043750Y-115075000D01*
X156956250Y-115075000D01*
X156980142Y-115076174D01*
G37*
G04 #@! TD.AperFunction*
G04 #@! TA.AperFunction,SMDPad,CuDef*
G36*
X156980142Y-116951174D02*
G01*
X157003803Y-116954684D01*
X157027007Y-116960496D01*
X157049529Y-116968554D01*
X157071153Y-116978782D01*
X157091670Y-116991079D01*
X157110883Y-117005329D01*
X157128607Y-117021393D01*
X157144671Y-117039117D01*
X157158921Y-117058330D01*
X157171218Y-117078847D01*
X157181446Y-117100471D01*
X157189504Y-117122993D01*
X157195316Y-117146197D01*
X157198826Y-117169858D01*
X157200000Y-117193750D01*
X157200000Y-117681250D01*
X157198826Y-117705142D01*
X157195316Y-117728803D01*
X157189504Y-117752007D01*
X157181446Y-117774529D01*
X157171218Y-117796153D01*
X157158921Y-117816670D01*
X157144671Y-117835883D01*
X157128607Y-117853607D01*
X157110883Y-117869671D01*
X157091670Y-117883921D01*
X157071153Y-117896218D01*
X157049529Y-117906446D01*
X157027007Y-117914504D01*
X157003803Y-117920316D01*
X156980142Y-117923826D01*
X156956250Y-117925000D01*
X156043750Y-117925000D01*
X156019858Y-117923826D01*
X155996197Y-117920316D01*
X155972993Y-117914504D01*
X155950471Y-117906446D01*
X155928847Y-117896218D01*
X155908330Y-117883921D01*
X155889117Y-117869671D01*
X155871393Y-117853607D01*
X155855329Y-117835883D01*
X155841079Y-117816670D01*
X155828782Y-117796153D01*
X155818554Y-117774529D01*
X155810496Y-117752007D01*
X155804684Y-117728803D01*
X155801174Y-117705142D01*
X155800000Y-117681250D01*
X155800000Y-117193750D01*
X155801174Y-117169858D01*
X155804684Y-117146197D01*
X155810496Y-117122993D01*
X155818554Y-117100471D01*
X155828782Y-117078847D01*
X155841079Y-117058330D01*
X155855329Y-117039117D01*
X155871393Y-117021393D01*
X155889117Y-117005329D01*
X155908330Y-116991079D01*
X155928847Y-116978782D01*
X155950471Y-116968554D01*
X155972993Y-116960496D01*
X155996197Y-116954684D01*
X156019858Y-116951174D01*
X156043750Y-116950000D01*
X156956250Y-116950000D01*
X156980142Y-116951174D01*
G37*
G04 #@! TD.AperFunction*
G04 #@! TA.AperFunction,SMDPad,CuDef*
G36*
X185330142Y-109301174D02*
G01*
X185353803Y-109304684D01*
X185377007Y-109310496D01*
X185399529Y-109318554D01*
X185421153Y-109328782D01*
X185441670Y-109341079D01*
X185460883Y-109355329D01*
X185478607Y-109371393D01*
X185494671Y-109389117D01*
X185508921Y-109408330D01*
X185521218Y-109428847D01*
X185531446Y-109450471D01*
X185539504Y-109472993D01*
X185545316Y-109496197D01*
X185548826Y-109519858D01*
X185550000Y-109543750D01*
X185550000Y-110456250D01*
X185548826Y-110480142D01*
X185545316Y-110503803D01*
X185539504Y-110527007D01*
X185531446Y-110549529D01*
X185521218Y-110571153D01*
X185508921Y-110591670D01*
X185494671Y-110610883D01*
X185478607Y-110628607D01*
X185460883Y-110644671D01*
X185441670Y-110658921D01*
X185421153Y-110671218D01*
X185399529Y-110681446D01*
X185377007Y-110689504D01*
X185353803Y-110695316D01*
X185330142Y-110698826D01*
X185306250Y-110700000D01*
X184818750Y-110700000D01*
X184794858Y-110698826D01*
X184771197Y-110695316D01*
X184747993Y-110689504D01*
X184725471Y-110681446D01*
X184703847Y-110671218D01*
X184683330Y-110658921D01*
X184664117Y-110644671D01*
X184646393Y-110628607D01*
X184630329Y-110610883D01*
X184616079Y-110591670D01*
X184603782Y-110571153D01*
X184593554Y-110549529D01*
X184585496Y-110527007D01*
X184579684Y-110503803D01*
X184576174Y-110480142D01*
X184575000Y-110456250D01*
X184575000Y-109543750D01*
X184576174Y-109519858D01*
X184579684Y-109496197D01*
X184585496Y-109472993D01*
X184593554Y-109450471D01*
X184603782Y-109428847D01*
X184616079Y-109408330D01*
X184630329Y-109389117D01*
X184646393Y-109371393D01*
X184664117Y-109355329D01*
X184683330Y-109341079D01*
X184703847Y-109328782D01*
X184725471Y-109318554D01*
X184747993Y-109310496D01*
X184771197Y-109304684D01*
X184794858Y-109301174D01*
X184818750Y-109300000D01*
X185306250Y-109300000D01*
X185330142Y-109301174D01*
G37*
G04 #@! TD.AperFunction*
G04 #@! TA.AperFunction,SMDPad,CuDef*
G36*
X187205142Y-109301174D02*
G01*
X187228803Y-109304684D01*
X187252007Y-109310496D01*
X187274529Y-109318554D01*
X187296153Y-109328782D01*
X187316670Y-109341079D01*
X187335883Y-109355329D01*
X187353607Y-109371393D01*
X187369671Y-109389117D01*
X187383921Y-109408330D01*
X187396218Y-109428847D01*
X187406446Y-109450471D01*
X187414504Y-109472993D01*
X187420316Y-109496197D01*
X187423826Y-109519858D01*
X187425000Y-109543750D01*
X187425000Y-110456250D01*
X187423826Y-110480142D01*
X187420316Y-110503803D01*
X187414504Y-110527007D01*
X187406446Y-110549529D01*
X187396218Y-110571153D01*
X187383921Y-110591670D01*
X187369671Y-110610883D01*
X187353607Y-110628607D01*
X187335883Y-110644671D01*
X187316670Y-110658921D01*
X187296153Y-110671218D01*
X187274529Y-110681446D01*
X187252007Y-110689504D01*
X187228803Y-110695316D01*
X187205142Y-110698826D01*
X187181250Y-110700000D01*
X186693750Y-110700000D01*
X186669858Y-110698826D01*
X186646197Y-110695316D01*
X186622993Y-110689504D01*
X186600471Y-110681446D01*
X186578847Y-110671218D01*
X186558330Y-110658921D01*
X186539117Y-110644671D01*
X186521393Y-110628607D01*
X186505329Y-110610883D01*
X186491079Y-110591670D01*
X186478782Y-110571153D01*
X186468554Y-110549529D01*
X186460496Y-110527007D01*
X186454684Y-110503803D01*
X186451174Y-110480142D01*
X186450000Y-110456250D01*
X186450000Y-109543750D01*
X186451174Y-109519858D01*
X186454684Y-109496197D01*
X186460496Y-109472993D01*
X186468554Y-109450471D01*
X186478782Y-109428847D01*
X186491079Y-109408330D01*
X186505329Y-109389117D01*
X186521393Y-109371393D01*
X186539117Y-109355329D01*
X186558330Y-109341079D01*
X186578847Y-109328782D01*
X186600471Y-109318554D01*
X186622993Y-109310496D01*
X186646197Y-109304684D01*
X186669858Y-109301174D01*
X186693750Y-109300000D01*
X187181250Y-109300000D01*
X187205142Y-109301174D01*
G37*
G04 #@! TD.AperFunction*
G04 #@! TA.AperFunction,SMDPad,CuDef*
G36*
X190330142Y-116801174D02*
G01*
X190353803Y-116804684D01*
X190377007Y-116810496D01*
X190399529Y-116818554D01*
X190421153Y-116828782D01*
X190441670Y-116841079D01*
X190460883Y-116855329D01*
X190478607Y-116871393D01*
X190494671Y-116889117D01*
X190508921Y-116908330D01*
X190521218Y-116928847D01*
X190531446Y-116950471D01*
X190539504Y-116972993D01*
X190545316Y-116996197D01*
X190548826Y-117019858D01*
X190550000Y-117043750D01*
X190550000Y-117956250D01*
X190548826Y-117980142D01*
X190545316Y-118003803D01*
X190539504Y-118027007D01*
X190531446Y-118049529D01*
X190521218Y-118071153D01*
X190508921Y-118091670D01*
X190494671Y-118110883D01*
X190478607Y-118128607D01*
X190460883Y-118144671D01*
X190441670Y-118158921D01*
X190421153Y-118171218D01*
X190399529Y-118181446D01*
X190377007Y-118189504D01*
X190353803Y-118195316D01*
X190330142Y-118198826D01*
X190306250Y-118200000D01*
X189818750Y-118200000D01*
X189794858Y-118198826D01*
X189771197Y-118195316D01*
X189747993Y-118189504D01*
X189725471Y-118181446D01*
X189703847Y-118171218D01*
X189683330Y-118158921D01*
X189664117Y-118144671D01*
X189646393Y-118128607D01*
X189630329Y-118110883D01*
X189616079Y-118091670D01*
X189603782Y-118071153D01*
X189593554Y-118049529D01*
X189585496Y-118027007D01*
X189579684Y-118003803D01*
X189576174Y-117980142D01*
X189575000Y-117956250D01*
X189575000Y-117043750D01*
X189576174Y-117019858D01*
X189579684Y-116996197D01*
X189585496Y-116972993D01*
X189593554Y-116950471D01*
X189603782Y-116928847D01*
X189616079Y-116908330D01*
X189630329Y-116889117D01*
X189646393Y-116871393D01*
X189664117Y-116855329D01*
X189683330Y-116841079D01*
X189703847Y-116828782D01*
X189725471Y-116818554D01*
X189747993Y-116810496D01*
X189771197Y-116804684D01*
X189794858Y-116801174D01*
X189818750Y-116800000D01*
X190306250Y-116800000D01*
X190330142Y-116801174D01*
G37*
G04 #@! TD.AperFunction*
G04 #@! TA.AperFunction,SMDPad,CuDef*
G36*
X192205142Y-116801174D02*
G01*
X192228803Y-116804684D01*
X192252007Y-116810496D01*
X192274529Y-116818554D01*
X192296153Y-116828782D01*
X192316670Y-116841079D01*
X192335883Y-116855329D01*
X192353607Y-116871393D01*
X192369671Y-116889117D01*
X192383921Y-116908330D01*
X192396218Y-116928847D01*
X192406446Y-116950471D01*
X192414504Y-116972993D01*
X192420316Y-116996197D01*
X192423826Y-117019858D01*
X192425000Y-117043750D01*
X192425000Y-117956250D01*
X192423826Y-117980142D01*
X192420316Y-118003803D01*
X192414504Y-118027007D01*
X192406446Y-118049529D01*
X192396218Y-118071153D01*
X192383921Y-118091670D01*
X192369671Y-118110883D01*
X192353607Y-118128607D01*
X192335883Y-118144671D01*
X192316670Y-118158921D01*
X192296153Y-118171218D01*
X192274529Y-118181446D01*
X192252007Y-118189504D01*
X192228803Y-118195316D01*
X192205142Y-118198826D01*
X192181250Y-118200000D01*
X191693750Y-118200000D01*
X191669858Y-118198826D01*
X191646197Y-118195316D01*
X191622993Y-118189504D01*
X191600471Y-118181446D01*
X191578847Y-118171218D01*
X191558330Y-118158921D01*
X191539117Y-118144671D01*
X191521393Y-118128607D01*
X191505329Y-118110883D01*
X191491079Y-118091670D01*
X191478782Y-118071153D01*
X191468554Y-118049529D01*
X191460496Y-118027007D01*
X191454684Y-118003803D01*
X191451174Y-117980142D01*
X191450000Y-117956250D01*
X191450000Y-117043750D01*
X191451174Y-117019858D01*
X191454684Y-116996197D01*
X191460496Y-116972993D01*
X191468554Y-116950471D01*
X191478782Y-116928847D01*
X191491079Y-116908330D01*
X191505329Y-116889117D01*
X191521393Y-116871393D01*
X191539117Y-116855329D01*
X191558330Y-116841079D01*
X191578847Y-116828782D01*
X191600471Y-116818554D01*
X191622993Y-116810496D01*
X191646197Y-116804684D01*
X191669858Y-116801174D01*
X191693750Y-116800000D01*
X192181250Y-116800000D01*
X192205142Y-116801174D01*
G37*
G04 #@! TD.AperFunction*
G04 #@! TA.AperFunction,SMDPad,CuDef*
G36*
X175730142Y-114451174D02*
G01*
X175753803Y-114454684D01*
X175777007Y-114460496D01*
X175799529Y-114468554D01*
X175821153Y-114478782D01*
X175841670Y-114491079D01*
X175860883Y-114505329D01*
X175878607Y-114521393D01*
X175894671Y-114539117D01*
X175908921Y-114558330D01*
X175921218Y-114578847D01*
X175931446Y-114600471D01*
X175939504Y-114622993D01*
X175945316Y-114646197D01*
X175948826Y-114669858D01*
X175950000Y-114693750D01*
X175950000Y-115181250D01*
X175948826Y-115205142D01*
X175945316Y-115228803D01*
X175939504Y-115252007D01*
X175931446Y-115274529D01*
X175921218Y-115296153D01*
X175908921Y-115316670D01*
X175894671Y-115335883D01*
X175878607Y-115353607D01*
X175860883Y-115369671D01*
X175841670Y-115383921D01*
X175821153Y-115396218D01*
X175799529Y-115406446D01*
X175777007Y-115414504D01*
X175753803Y-115420316D01*
X175730142Y-115423826D01*
X175706250Y-115425000D01*
X174793750Y-115425000D01*
X174769858Y-115423826D01*
X174746197Y-115420316D01*
X174722993Y-115414504D01*
X174700471Y-115406446D01*
X174678847Y-115396218D01*
X174658330Y-115383921D01*
X174639117Y-115369671D01*
X174621393Y-115353607D01*
X174605329Y-115335883D01*
X174591079Y-115316670D01*
X174578782Y-115296153D01*
X174568554Y-115274529D01*
X174560496Y-115252007D01*
X174554684Y-115228803D01*
X174551174Y-115205142D01*
X174550000Y-115181250D01*
X174550000Y-114693750D01*
X174551174Y-114669858D01*
X174554684Y-114646197D01*
X174560496Y-114622993D01*
X174568554Y-114600471D01*
X174578782Y-114578847D01*
X174591079Y-114558330D01*
X174605329Y-114539117D01*
X174621393Y-114521393D01*
X174639117Y-114505329D01*
X174658330Y-114491079D01*
X174678847Y-114478782D01*
X174700471Y-114468554D01*
X174722993Y-114460496D01*
X174746197Y-114454684D01*
X174769858Y-114451174D01*
X174793750Y-114450000D01*
X175706250Y-114450000D01*
X175730142Y-114451174D01*
G37*
G04 #@! TD.AperFunction*
G04 #@! TA.AperFunction,SMDPad,CuDef*
G36*
X175730142Y-112576174D02*
G01*
X175753803Y-112579684D01*
X175777007Y-112585496D01*
X175799529Y-112593554D01*
X175821153Y-112603782D01*
X175841670Y-112616079D01*
X175860883Y-112630329D01*
X175878607Y-112646393D01*
X175894671Y-112664117D01*
X175908921Y-112683330D01*
X175921218Y-112703847D01*
X175931446Y-112725471D01*
X175939504Y-112747993D01*
X175945316Y-112771197D01*
X175948826Y-112794858D01*
X175950000Y-112818750D01*
X175950000Y-113306250D01*
X175948826Y-113330142D01*
X175945316Y-113353803D01*
X175939504Y-113377007D01*
X175931446Y-113399529D01*
X175921218Y-113421153D01*
X175908921Y-113441670D01*
X175894671Y-113460883D01*
X175878607Y-113478607D01*
X175860883Y-113494671D01*
X175841670Y-113508921D01*
X175821153Y-113521218D01*
X175799529Y-113531446D01*
X175777007Y-113539504D01*
X175753803Y-113545316D01*
X175730142Y-113548826D01*
X175706250Y-113550000D01*
X174793750Y-113550000D01*
X174769858Y-113548826D01*
X174746197Y-113545316D01*
X174722993Y-113539504D01*
X174700471Y-113531446D01*
X174678847Y-113521218D01*
X174658330Y-113508921D01*
X174639117Y-113494671D01*
X174621393Y-113478607D01*
X174605329Y-113460883D01*
X174591079Y-113441670D01*
X174578782Y-113421153D01*
X174568554Y-113399529D01*
X174560496Y-113377007D01*
X174554684Y-113353803D01*
X174551174Y-113330142D01*
X174550000Y-113306250D01*
X174550000Y-112818750D01*
X174551174Y-112794858D01*
X174554684Y-112771197D01*
X174560496Y-112747993D01*
X174568554Y-112725471D01*
X174578782Y-112703847D01*
X174591079Y-112683330D01*
X174605329Y-112664117D01*
X174621393Y-112646393D01*
X174639117Y-112630329D01*
X174658330Y-112616079D01*
X174678847Y-112603782D01*
X174700471Y-112593554D01*
X174722993Y-112585496D01*
X174746197Y-112579684D01*
X174769858Y-112576174D01*
X174793750Y-112575000D01*
X175706250Y-112575000D01*
X175730142Y-112576174D01*
G37*
G04 #@! TD.AperFunction*
G04 #@! TA.AperFunction,SMDPad,CuDef*
G36*
X147505142Y-96101174D02*
G01*
X147528803Y-96104684D01*
X147552007Y-96110496D01*
X147574529Y-96118554D01*
X147596153Y-96128782D01*
X147616670Y-96141079D01*
X147635883Y-96155329D01*
X147653607Y-96171393D01*
X147669671Y-96189117D01*
X147683921Y-96208330D01*
X147696218Y-96228847D01*
X147706446Y-96250471D01*
X147714504Y-96272993D01*
X147720316Y-96296197D01*
X147723826Y-96319858D01*
X147725000Y-96343750D01*
X147725000Y-97256250D01*
X147723826Y-97280142D01*
X147720316Y-97303803D01*
X147714504Y-97327007D01*
X147706446Y-97349529D01*
X147696218Y-97371153D01*
X147683921Y-97391670D01*
X147669671Y-97410883D01*
X147653607Y-97428607D01*
X147635883Y-97444671D01*
X147616670Y-97458921D01*
X147596153Y-97471218D01*
X147574529Y-97481446D01*
X147552007Y-97489504D01*
X147528803Y-97495316D01*
X147505142Y-97498826D01*
X147481250Y-97500000D01*
X146993750Y-97500000D01*
X146969858Y-97498826D01*
X146946197Y-97495316D01*
X146922993Y-97489504D01*
X146900471Y-97481446D01*
X146878847Y-97471218D01*
X146858330Y-97458921D01*
X146839117Y-97444671D01*
X146821393Y-97428607D01*
X146805329Y-97410883D01*
X146791079Y-97391670D01*
X146778782Y-97371153D01*
X146768554Y-97349529D01*
X146760496Y-97327007D01*
X146754684Y-97303803D01*
X146751174Y-97280142D01*
X146750000Y-97256250D01*
X146750000Y-96343750D01*
X146751174Y-96319858D01*
X146754684Y-96296197D01*
X146760496Y-96272993D01*
X146768554Y-96250471D01*
X146778782Y-96228847D01*
X146791079Y-96208330D01*
X146805329Y-96189117D01*
X146821393Y-96171393D01*
X146839117Y-96155329D01*
X146858330Y-96141079D01*
X146878847Y-96128782D01*
X146900471Y-96118554D01*
X146922993Y-96110496D01*
X146946197Y-96104684D01*
X146969858Y-96101174D01*
X146993750Y-96100000D01*
X147481250Y-96100000D01*
X147505142Y-96101174D01*
G37*
G04 #@! TD.AperFunction*
G04 #@! TA.AperFunction,SMDPad,CuDef*
G36*
X145630142Y-96101174D02*
G01*
X145653803Y-96104684D01*
X145677007Y-96110496D01*
X145699529Y-96118554D01*
X145721153Y-96128782D01*
X145741670Y-96141079D01*
X145760883Y-96155329D01*
X145778607Y-96171393D01*
X145794671Y-96189117D01*
X145808921Y-96208330D01*
X145821218Y-96228847D01*
X145831446Y-96250471D01*
X145839504Y-96272993D01*
X145845316Y-96296197D01*
X145848826Y-96319858D01*
X145850000Y-96343750D01*
X145850000Y-97256250D01*
X145848826Y-97280142D01*
X145845316Y-97303803D01*
X145839504Y-97327007D01*
X145831446Y-97349529D01*
X145821218Y-97371153D01*
X145808921Y-97391670D01*
X145794671Y-97410883D01*
X145778607Y-97428607D01*
X145760883Y-97444671D01*
X145741670Y-97458921D01*
X145721153Y-97471218D01*
X145699529Y-97481446D01*
X145677007Y-97489504D01*
X145653803Y-97495316D01*
X145630142Y-97498826D01*
X145606250Y-97500000D01*
X145118750Y-97500000D01*
X145094858Y-97498826D01*
X145071197Y-97495316D01*
X145047993Y-97489504D01*
X145025471Y-97481446D01*
X145003847Y-97471218D01*
X144983330Y-97458921D01*
X144964117Y-97444671D01*
X144946393Y-97428607D01*
X144930329Y-97410883D01*
X144916079Y-97391670D01*
X144903782Y-97371153D01*
X144893554Y-97349529D01*
X144885496Y-97327007D01*
X144879684Y-97303803D01*
X144876174Y-97280142D01*
X144875000Y-97256250D01*
X144875000Y-96343750D01*
X144876174Y-96319858D01*
X144879684Y-96296197D01*
X144885496Y-96272993D01*
X144893554Y-96250471D01*
X144903782Y-96228847D01*
X144916079Y-96208330D01*
X144930329Y-96189117D01*
X144946393Y-96171393D01*
X144964117Y-96155329D01*
X144983330Y-96141079D01*
X145003847Y-96128782D01*
X145025471Y-96118554D01*
X145047993Y-96110496D01*
X145071197Y-96104684D01*
X145094858Y-96101174D01*
X145118750Y-96100000D01*
X145606250Y-96100000D01*
X145630142Y-96101174D01*
G37*
G04 #@! TD.AperFunction*
D11*
X144690000Y-93500000D03*
X147230000Y-93500000D03*
X149770000Y-93500000D03*
D12*
X152310000Y-93500000D03*
D11*
X145960000Y-116500000D03*
X148500000Y-116500000D03*
D12*
X151040000Y-116500000D03*
D13*
X182000000Y-113000000D03*
X190000000Y-113000000D03*
X186000000Y-114000000D03*
X191750000Y-109500000D03*
X180250000Y-105000000D03*
X182000000Y-97000000D03*
X190000000Y-97000000D03*
X180250000Y-109500000D03*
X191750000Y-105000000D03*
X186000000Y-96000000D03*
X191750000Y-100500000D03*
X180250000Y-100500000D03*
X107000000Y-113000000D03*
X115000000Y-113000000D03*
X111000000Y-114000000D03*
X116750000Y-109500000D03*
X105250000Y-105000000D03*
X107000000Y-97000000D03*
X115000000Y-97000000D03*
X105250000Y-109500000D03*
X116750000Y-105000000D03*
X111000000Y-96000000D03*
X116750000Y-100500000D03*
X105250000Y-100500000D03*
X160500000Y-113000000D03*
X168500000Y-113000000D03*
X164500000Y-114000000D03*
X170250000Y-109500000D03*
X158750000Y-105000000D03*
X160500000Y-97000000D03*
X168500000Y-97000000D03*
X158750000Y-109500000D03*
X170250000Y-105000000D03*
X164500000Y-96000000D03*
X170250000Y-100500000D03*
X158750000Y-100500000D03*
X128500000Y-113000000D03*
X136500000Y-113000000D03*
X132500000Y-114000000D03*
X138250000Y-109500000D03*
X126750000Y-105000000D03*
X128500000Y-97000000D03*
X136500000Y-97000000D03*
X126750000Y-109500000D03*
X138250000Y-105000000D03*
X132500000Y-96000000D03*
X138250000Y-100500000D03*
X126750000Y-100500000D03*
D14*
X144500000Y-112150000D03*
X145300000Y-112150000D03*
X146100000Y-112150000D03*
X146900000Y-112150000D03*
X147700000Y-112150000D03*
X148500000Y-112150000D03*
X149300000Y-112150000D03*
X150100000Y-112150000D03*
X150900000Y-112150000D03*
X151700000Y-112150000D03*
X152500000Y-112150000D03*
D15*
X154650000Y-110000000D03*
X154650000Y-109200000D03*
X154650000Y-108400000D03*
X154650000Y-107600000D03*
X154650000Y-106800000D03*
X154650000Y-106000000D03*
X154650000Y-105200000D03*
X154650000Y-104400000D03*
X154650000Y-103600000D03*
X154650000Y-102800000D03*
X154650000Y-102000000D03*
D14*
X152500000Y-99850000D03*
X151700000Y-99850000D03*
X150900000Y-99850000D03*
X150100000Y-99850000D03*
X149300000Y-99850000D03*
X148500000Y-99850000D03*
X147700000Y-99850000D03*
X146900000Y-99850000D03*
X146100000Y-99850000D03*
X145300000Y-99850000D03*
X144500000Y-99850000D03*
D15*
X142350000Y-102000000D03*
X142350000Y-102800000D03*
X142350000Y-103600000D03*
X142350000Y-104400000D03*
X142350000Y-105200000D03*
X142350000Y-106000000D03*
X142350000Y-106800000D03*
X142350000Y-107600000D03*
X142350000Y-108400000D03*
X142350000Y-109200000D03*
X142350000Y-110000000D03*
D16*
X151900000Y-109400000D03*
X188200000Y-117500000D03*
X151100000Y-110000000D03*
X181750000Y-117500000D03*
X154600000Y-112600000D03*
X183750000Y-110000000D03*
X152700000Y-110200000D03*
X173250000Y-115000000D03*
X152200000Y-107500000D03*
X150999993Y-102700007D03*
X152800000Y-104400006D03*
X151699994Y-104400000D03*
X146947499Y-107991640D03*
X133750000Y-116000000D03*
X147806082Y-107721720D03*
X127500000Y-115500000D03*
X149283136Y-110219672D03*
X148710086Y-109525673D03*
X145400000Y-103200000D03*
X147500000Y-104800000D03*
X147200000Y-106400006D03*
X144600000Y-102300000D03*
X148111776Y-108853329D03*
X146600000Y-105600000D03*
X146444980Y-107244984D03*
X146200002Y-104000000D03*
X146900000Y-101800000D03*
X149700000Y-96900000D03*
X144300000Y-95600000D03*
X130500000Y-110000000D03*
X130500000Y-100000000D03*
D17*
X111850001Y-119100001D02*
X129250000Y-119100001D01*
X128500000Y-114555634D02*
X129250000Y-115305634D01*
X128500000Y-113000000D02*
X128500000Y-114555634D01*
X129250000Y-115305634D02*
X129250000Y-119100001D01*
X108950000Y-117500000D02*
X110250000Y-117500000D01*
X110250000Y-117500000D02*
X111850001Y-119100001D01*
X177550000Y-117450000D02*
X182000000Y-113000000D01*
X151750000Y-114500000D02*
X154700000Y-117450000D01*
X140099999Y-119100001D02*
X144700000Y-114500000D01*
X154700000Y-117450000D02*
X177550000Y-117450000D01*
X129250000Y-119100001D02*
X140099999Y-119100001D01*
X145960000Y-114660000D02*
X145960000Y-116500000D01*
X145800000Y-114500000D02*
X145960000Y-114660000D01*
X144700000Y-114500000D02*
X145800000Y-114500000D01*
X145800000Y-114500000D02*
X151750000Y-114500000D01*
D18*
X151900000Y-109824264D02*
X151900000Y-109400000D01*
X151900000Y-110650000D02*
X151900000Y-109824264D01*
X151700000Y-112150000D02*
X151700000Y-110850000D01*
X151700000Y-110850000D02*
X151900000Y-110650000D01*
X190050000Y-117500000D02*
X188200000Y-117500000D01*
X150900000Y-110200000D02*
X151100000Y-110000000D01*
X150900000Y-112150000D02*
X150900000Y-110200000D01*
X182800000Y-117500000D02*
X181750000Y-117500000D01*
X154650000Y-111950000D02*
X154600000Y-112000000D01*
X154600000Y-112000000D02*
X154600000Y-112600000D01*
X154650000Y-110000000D02*
X154650000Y-111950000D01*
X185050000Y-110000000D02*
X183750000Y-110000000D01*
X152500000Y-110400000D02*
X152700000Y-110200000D01*
X152500000Y-112150000D02*
X152500000Y-110400000D01*
X173300000Y-114950000D02*
X173250000Y-115000000D01*
X175250000Y-114950000D02*
X173300000Y-114950000D01*
X156500000Y-115550000D02*
X157950000Y-115550000D01*
X157950000Y-115550000D02*
X160500000Y-113000000D01*
X154650000Y-109200000D02*
X153200000Y-109200000D01*
X153200000Y-109200000D02*
X153000010Y-109000010D01*
X153000010Y-109000010D02*
X153000010Y-108300010D01*
X153000010Y-108300010D02*
X152499999Y-107799999D01*
X152499999Y-107799999D02*
X152200000Y-107500000D01*
X154650000Y-106800000D02*
X153063992Y-106800000D01*
X153063992Y-106800000D02*
X150999993Y-104736001D01*
X150999993Y-104736001D02*
X150999993Y-102700007D01*
X154650000Y-107600000D02*
X156150000Y-107600000D01*
X156150000Y-107600000D02*
X158750000Y-105000000D01*
X158350000Y-104600000D02*
X158750000Y-105000000D01*
X154650000Y-104400000D02*
X152800006Y-104400000D01*
X152800006Y-104400000D02*
X152800000Y-104400006D01*
X168500000Y-97000000D02*
X165500000Y-94000000D01*
X165500000Y-94000000D02*
X159650000Y-94000000D01*
X159650000Y-94000000D02*
X156400000Y-97250000D01*
X156400000Y-97250000D02*
X156400000Y-102500000D01*
X156400000Y-102500000D02*
X156100000Y-102800000D01*
X156100000Y-102800000D02*
X154650000Y-102800000D01*
X158750000Y-109500000D02*
X157650000Y-108400000D01*
X157650000Y-108400000D02*
X154650000Y-108400000D01*
X154650000Y-106000000D02*
X153299994Y-106000000D01*
X153299994Y-106000000D02*
X151699994Y-104400000D01*
X154650000Y-103600000D02*
X156300000Y-103600000D01*
X156300000Y-103600000D02*
X157000000Y-102900000D01*
X157000000Y-102900000D02*
X157000000Y-97500002D01*
X157000000Y-97500002D02*
X159500002Y-95000000D01*
X159500002Y-95000000D02*
X161944366Y-95000000D01*
X161944366Y-95000000D02*
X162944366Y-96000000D01*
X162944366Y-96000000D02*
X164500000Y-96000000D01*
X154650000Y-102000000D02*
X154650000Y-98075000D01*
X159225011Y-93499989D02*
X167999989Y-93499989D01*
X154650000Y-98075000D02*
X159225011Y-93499989D01*
X167999989Y-93499989D02*
X170250000Y-95750000D01*
X170250000Y-95750000D02*
X170250000Y-98944366D01*
X170250000Y-98944366D02*
X170250000Y-100500000D01*
X154650000Y-105200000D02*
X155950000Y-105200000D01*
X158750000Y-102400000D02*
X158750000Y-100500000D01*
X155950000Y-105200000D02*
X158750000Y-102400000D01*
X158750000Y-100500000D02*
X158750000Y-100550000D01*
X139450000Y-117500000D02*
X140400000Y-117500000D01*
X140400000Y-117500000D02*
X144100000Y-113800000D01*
X144100000Y-113800000D02*
X145100000Y-113800000D01*
X145100000Y-113800000D02*
X145300000Y-113600000D01*
X145300000Y-113600000D02*
X145300000Y-112150000D01*
X146100000Y-112150000D02*
X146100000Y-108839139D01*
X146100000Y-108839139D02*
X146647500Y-108291639D01*
X146647500Y-108291639D02*
X146947499Y-107991640D01*
X133750000Y-117500000D02*
X133750000Y-116000000D01*
X141750000Y-113200000D02*
X142450000Y-113200000D01*
X144500000Y-112100000D02*
X144500000Y-111700000D01*
X142450000Y-113200000D02*
X143450000Y-112200000D01*
X143450000Y-112200000D02*
X144400000Y-112200000D01*
X144400000Y-112200000D02*
X144500000Y-112100000D01*
X142350000Y-102800000D02*
X140800000Y-102800000D01*
X139300000Y-93000000D02*
X138450000Y-93000000D01*
X140800000Y-102800000D02*
X140500000Y-102500000D01*
X140500000Y-102500000D02*
X140500000Y-94200000D01*
X140500000Y-94200000D02*
X139300000Y-93000000D01*
X147806082Y-108145984D02*
X147806082Y-107721720D01*
X146900000Y-109075143D02*
X147806082Y-108169061D01*
X146900000Y-112150000D02*
X146900000Y-109075143D01*
X147806082Y-108169061D02*
X147806082Y-108145984D01*
X127450000Y-117500000D02*
X127450000Y-115550000D01*
X127450000Y-115550000D02*
X127500000Y-115500000D01*
X133450000Y-110000000D02*
X134750000Y-110000000D01*
X137550000Y-107200000D02*
X140300000Y-107200000D01*
X134750000Y-110000000D02*
X137550000Y-107200000D01*
X140700000Y-107600000D02*
X140849999Y-107600000D01*
X140300000Y-107200000D02*
X140700000Y-107600000D01*
X140849999Y-107600000D02*
X142350000Y-107600000D01*
X142350000Y-103600000D02*
X140500000Y-103600000D01*
X137300000Y-102800000D02*
X134500000Y-100000000D01*
X140500000Y-103600000D02*
X139700000Y-102800000D01*
X139700000Y-102800000D02*
X137300000Y-102800000D01*
X134500000Y-100000000D02*
X133450000Y-100000000D01*
X107000000Y-113000000D02*
X107000000Y-117450000D01*
X107000000Y-117450000D02*
X107050000Y-117500000D01*
X149300000Y-112150000D02*
X149300000Y-110236536D01*
X149300000Y-110236536D02*
X149283136Y-110219672D01*
X148500000Y-112150000D02*
X148500000Y-109735759D01*
X148500000Y-109735759D02*
X148710086Y-109525673D01*
X142350000Y-105200000D02*
X144100000Y-105200000D01*
X144100000Y-105200000D02*
X145400000Y-103900000D01*
X145400000Y-103900000D02*
X145400000Y-103200000D01*
X142350000Y-106800000D02*
X144200000Y-106800000D01*
X144200000Y-106800000D02*
X146200000Y-104800000D01*
X146200000Y-104800000D02*
X147500000Y-104800000D01*
X142350000Y-109200000D02*
X144000000Y-109200000D01*
X144000000Y-109200000D02*
X145000000Y-108200000D01*
X145000000Y-108200000D02*
X145000000Y-107700000D01*
X145000000Y-107700000D02*
X146299994Y-106400006D01*
X146299994Y-106400006D02*
X146775736Y-106400006D01*
X146775736Y-106400006D02*
X147200000Y-106400006D01*
X142350000Y-104400000D02*
X144000000Y-104400000D01*
X144000000Y-104400000D02*
X144600000Y-103800000D01*
X144600000Y-103800000D02*
X144600000Y-102724264D01*
X144600000Y-102724264D02*
X144600000Y-102300000D01*
X147811777Y-109153328D02*
X148111776Y-108853329D01*
X147700000Y-109265105D02*
X147811777Y-109153328D01*
X147700000Y-112150000D02*
X147700000Y-109265105D01*
X142350000Y-108400000D02*
X143900000Y-108400000D01*
X143900000Y-108400000D02*
X144400000Y-107900000D01*
X144400000Y-107356874D02*
X146156874Y-105600000D01*
X144400000Y-107900000D02*
X144400000Y-107356874D01*
X146156874Y-105600000D02*
X146175736Y-105600000D01*
X146175736Y-105600000D02*
X146600000Y-105600000D01*
X144000000Y-110000000D02*
X144100000Y-110000000D01*
X144100000Y-110000000D02*
X145600000Y-108500000D01*
X145600000Y-108500000D02*
X145600000Y-108089964D01*
X145600000Y-108089964D02*
X146444980Y-107244984D01*
X144000000Y-110000000D02*
X142350000Y-110000000D01*
X143850001Y-110000000D02*
X144000000Y-110000000D01*
X144200002Y-106000000D02*
X145900003Y-104299999D01*
X142350000Y-106000000D02*
X144200002Y-106000000D01*
X145900003Y-104299999D02*
X146200002Y-104000000D01*
D17*
X147250000Y-93520000D02*
X147230000Y-93500000D01*
D18*
X152310000Y-93652400D02*
X152310000Y-93500000D01*
X149750000Y-93500000D02*
X149770000Y-93500000D01*
D17*
X149770000Y-93500000D02*
X149770000Y-95430000D01*
X148400000Y-96800000D02*
X147237500Y-96800000D01*
X149770000Y-95430000D02*
X148400000Y-96800000D01*
X146900000Y-99850000D02*
X146900000Y-98300000D01*
X147237500Y-97962500D02*
X147237500Y-96800000D01*
X146900000Y-98300000D02*
X147237500Y-97962500D01*
X146900000Y-101800000D02*
X146900000Y-99850000D01*
D18*
X149400001Y-97199999D02*
X148900001Y-97199999D01*
X149700000Y-96900000D02*
X149400001Y-97199999D01*
X147700000Y-98400000D02*
X147700000Y-99850000D01*
X148900001Y-97199999D02*
X147700000Y-98400000D01*
D17*
X145300000Y-98000000D02*
X145300000Y-99850000D01*
X146100000Y-101600000D02*
X145600000Y-101600000D01*
X146100000Y-99850000D02*
X146100000Y-101250000D01*
X146100000Y-101250000D02*
X146100000Y-101600000D01*
X145300000Y-101300000D02*
X145300000Y-99850000D01*
X145600000Y-101600000D02*
X145300000Y-101300000D01*
X145300000Y-96850000D02*
X145350000Y-96800000D01*
X145350000Y-99800000D02*
X145300000Y-99850000D01*
X145362500Y-96800000D02*
X145362500Y-95562500D01*
X144690000Y-94890000D02*
X144690000Y-93500000D01*
X145362500Y-95562500D02*
X144690000Y-94890000D01*
X145362500Y-97937500D02*
X145300000Y-98000000D01*
X145362500Y-96800000D02*
X145362500Y-97937500D01*
X146100000Y-102100000D02*
X146100000Y-101600000D01*
X147500000Y-102600000D02*
X146600000Y-102600000D01*
X146600000Y-102600000D02*
X146100000Y-102100000D01*
X148500000Y-101600000D02*
X147500000Y-102600000D01*
X148500000Y-99850000D02*
X148500000Y-101600000D01*
D18*
X144300000Y-98350000D02*
X144300000Y-95600000D01*
X144500000Y-98550000D02*
X144300000Y-98350000D01*
X144500000Y-99850000D02*
X144500000Y-98550000D01*
X191950000Y-117500000D02*
X191950000Y-114950000D01*
X191950000Y-114950000D02*
X190000000Y-113000000D01*
X184700000Y-117500000D02*
X185250000Y-117500000D01*
X185250000Y-117500000D02*
X186000000Y-116750000D01*
X186000000Y-116750000D02*
X186000000Y-115555634D01*
X186000000Y-115555634D02*
X186000000Y-114000000D01*
X188500000Y-110000000D02*
X189000000Y-109500000D01*
X189000000Y-109500000D02*
X191750000Y-109500000D01*
X186950000Y-110000000D02*
X188500000Y-110000000D01*
X175250000Y-113050000D02*
X175250000Y-112250000D01*
X178000000Y-109500000D02*
X178694366Y-109500000D01*
X175250000Y-112250000D02*
X178000000Y-109500000D01*
X178694366Y-109500000D02*
X180250000Y-109500000D01*
X137550000Y-117500000D02*
X137550000Y-114050000D01*
X137550000Y-114050000D02*
X136500000Y-113000000D01*
X131850000Y-117500000D02*
X131850000Y-114650000D01*
X131850000Y-114650000D02*
X132500000Y-114000000D01*
X139850000Y-113200000D02*
X139850000Y-111100000D01*
X139850000Y-111100000D02*
X138250000Y-109500000D01*
X136550000Y-93000000D02*
X136550000Y-96950000D01*
X136550000Y-96950000D02*
X136500000Y-97000000D01*
X126750000Y-109500000D02*
X125550000Y-110700000D01*
X125550000Y-110700000D02*
X125550000Y-117500000D01*
X131550000Y-110000000D02*
X130500000Y-110000000D01*
X131550000Y-100000000D02*
X130500000Y-100000000D01*
M02*
