M48
; DRILL file {KiCad (5.1.5-0-10_14)} date Tuesday, March 24, 2020 at 06:15:52 PM
; FORMAT={2:4/ absolute / inch / suppress leading zeros}
; #@! TF.CreationDate,2020-03-24T18:15:52-07:00
; #@! TF.GenerationSoftware,Kicad,Pcbnew,(5.1.5-0-10_14)
FMAT,2
INCH,TZ
T1C0.0118
T2C0.0394
T3C0.0591
T4C0.0866
T5C0.1969
%
G90
G05
T1
X50197Y-45472
X51378Y-39370
X51378Y-43307
X52657Y-45669
X56811Y-37638
X56929Y-40276
X57244Y-40630
X57559Y-40945
X57656Y-42222
X57717Y-41575
X57835Y-40079
X57853Y-42516
X57953Y-41890
X58071Y-41260
X58191Y-42410
X58312Y-42856
X58547Y-43120
X58773Y-43394
X58937Y-38150
X59449Y-40433
X59488Y-43307
X59724Y-41102
X59803Y-43071
X59921Y-42323
X60118Y-43386
X60157Y-41102
X60866Y-44331
X68209Y-45276
X71555Y-46260
X72343Y-43307
X74094Y-46260
T2
X57465Y-45866
X58465Y-45866
X59465Y-45866
X56965Y-36811
X57965Y-36811
X58965Y-36811
X59965Y-36811
T3
X49902Y-39567
X49902Y-41339
X49902Y-43110
X50591Y-38189
X50591Y-44488
X52165Y-37795
X52165Y-44882
X53740Y-38189
X53740Y-44488
X54429Y-39567
X54429Y-41339
X54429Y-43110
X70965Y-39567
X70965Y-41339
X70965Y-43110
X71654Y-38189
X71654Y-44488
X73228Y-37795
X73228Y-44882
X74803Y-38189
X74803Y-44488
X75492Y-39567
X75492Y-41339
X75492Y-43110
X62500Y-39567
X62500Y-41339
X62500Y-43110
X63189Y-38189
X63189Y-44488
X64764Y-37795
X64764Y-44882
X66339Y-38189
X66339Y-44488
X67028Y-39567
X67028Y-41339
X67028Y-43110
X41437Y-39567
X41437Y-41339
X41437Y-43110
X42126Y-38189
X42126Y-44488
X43701Y-37795
X43701Y-44882
X45276Y-38189
X45276Y-44488
X45965Y-39567
X45965Y-41339
X45965Y-43110
T4
X68996Y-48228
X47933Y-34449
X47933Y-48228
X68996Y-34449
T5
X43701Y-41339
X52165Y-41339
X73228Y-41339
X64764Y-41339
T0
M30
