G04 #@! TF.GenerationSoftware,KiCad,Pcbnew,(5.1.5-0-10_14)*
G04 #@! TF.CreationDate,2020-03-24T18:15:21-07:00*
G04 #@! TF.ProjectId,display_module,64697370-6c61-4795-9f6d-6f64756c652e,rev?*
G04 #@! TF.SameCoordinates,Original*
G04 #@! TF.FileFunction,Legend,Top*
G04 #@! TF.FilePolarity,Positive*
%FSLAX46Y46*%
G04 Gerber Fmt 4.6, Leading zero omitted, Abs format (unit mm)*
G04 Created by KiCad (PCBNEW (5.1.5-0-10_14)) date 2020-03-24 18:15:21*
%MOMM*%
%LPD*%
G04 APERTURE LIST*
%ADD10C,0.120000*%
%ADD11C,0.150000*%
G04 APERTURE END LIST*
D10*
X132541422Y-118210000D02*
X133058578Y-118210000D01*
X132541422Y-116790000D02*
X133058578Y-116790000D01*
X184008578Y-116790000D02*
X183491422Y-116790000D01*
X184008578Y-118210000D02*
X183491422Y-118210000D01*
X108258578Y-116790000D02*
X107741422Y-116790000D01*
X108258578Y-118210000D02*
X107741422Y-118210000D01*
X137241422Y-93710000D02*
X137758578Y-93710000D01*
X137241422Y-92290000D02*
X137758578Y-92290000D01*
X132241422Y-100710000D02*
X132758578Y-100710000D01*
X132241422Y-99290000D02*
X132758578Y-99290000D01*
X132241422Y-110710000D02*
X132758578Y-110710000D01*
X132241422Y-109290000D02*
X132758578Y-109290000D01*
X140541422Y-113910000D02*
X141058578Y-113910000D01*
X140541422Y-112490000D02*
X141058578Y-112490000D01*
X138241422Y-118210000D02*
X138758578Y-118210000D01*
X138241422Y-116790000D02*
X138758578Y-116790000D01*
X126241422Y-118210000D02*
X126758578Y-118210000D01*
X126241422Y-116790000D02*
X126758578Y-116790000D01*
X157210000Y-116758578D02*
X157210000Y-116241422D01*
X155790000Y-116758578D02*
X155790000Y-116241422D01*
X186258578Y-109290000D02*
X185741422Y-109290000D01*
X186258578Y-110710000D02*
X185741422Y-110710000D01*
X191258578Y-116790000D02*
X190741422Y-116790000D01*
X191258578Y-118210000D02*
X190741422Y-118210000D01*
X174540000Y-113741422D02*
X174540000Y-114258578D01*
X175960000Y-113741422D02*
X175960000Y-114258578D01*
X146041422Y-97510000D02*
X146558578Y-97510000D01*
X146041422Y-96090000D02*
X146558578Y-96090000D01*
X153640000Y-92170000D02*
X153640000Y-93500000D01*
X152310000Y-92170000D02*
X153640000Y-92170000D01*
X151040000Y-92170000D02*
X151040000Y-94830000D01*
X151040000Y-94830000D02*
X143360000Y-94830000D01*
X151040000Y-92170000D02*
X143360000Y-92170000D01*
X143360000Y-92170000D02*
X143360000Y-94830000D01*
X152370000Y-115170000D02*
X152370000Y-116500000D01*
X151040000Y-115170000D02*
X152370000Y-115170000D01*
X149770000Y-115170000D02*
X149770000Y-117830000D01*
X149770000Y-117830000D02*
X144630000Y-117830000D01*
X149770000Y-115170000D02*
X144630000Y-115170000D01*
X144630000Y-115170000D02*
X144630000Y-117830000D01*
D11*
X143325000Y-111175000D02*
X143925000Y-111175000D01*
X143325000Y-100825000D02*
X143995000Y-100825000D01*
X153675000Y-100825000D02*
X153005000Y-100825000D01*
X153675000Y-111175000D02*
X153005000Y-111175000D01*
X143325000Y-111175000D02*
X143325000Y-110505000D01*
X153675000Y-111175000D02*
X153675000Y-110505000D01*
X153675000Y-100825000D02*
X153675000Y-101495000D01*
X143325000Y-100825000D02*
X143325000Y-101495000D01*
X143925000Y-111175000D02*
X143925000Y-112650000D01*
M02*
