G04 #@! TF.GenerationSoftware,KiCad,Pcbnew,(5.1.5-0-10_14)*
G04 #@! TF.CreationDate,2020-05-10T15:33:43-07:00*
G04 #@! TF.ProjectId,control_module,636f6e74-726f-46c5-9f6d-6f64756c652e,rev?*
G04 #@! TF.SameCoordinates,Original*
G04 #@! TF.FileFunction,Copper,L2,Bot*
G04 #@! TF.FilePolarity,Positive*
%FSLAX46Y46*%
G04 Gerber Fmt 4.6, Leading zero omitted, Abs format (unit mm)*
G04 Created by KiCad (PCBNEW (5.1.5-0-10_14)) date 2020-05-10 15:33:43*
%MOMM*%
%LPD*%
G04 APERTURE LIST*
%ADD10O,1.700000X1.700000*%
%ADD11C,1.700000*%
%ADD12C,2.000000*%
%ADD13O,3.200000X3.200000*%
%ADD14C,0.600000*%
%ADD15C,0.200000*%
%ADD16C,0.250000*%
G04 APERTURE END LIST*
D10*
X91460000Y-78200000D03*
D11*
X94000000Y-78200000D03*
D10*
X60060000Y-56800000D03*
D11*
X62600000Y-56800000D03*
D10*
X60060000Y-60500000D03*
D11*
X62600000Y-60500000D03*
D10*
X85260000Y-78200000D03*
D11*
X87800000Y-78200000D03*
D10*
X117960000Y-52400000D03*
X115420000Y-52400000D03*
X112880000Y-52400000D03*
X110340000Y-52400000D03*
D11*
X107800000Y-52400000D03*
D10*
X121540000Y-52400000D03*
X124080000Y-52400000D03*
X126620000Y-52400000D03*
X129160000Y-52400000D03*
D11*
X131700000Y-52400000D03*
D12*
X145900000Y-62800000D03*
X145900000Y-67300000D03*
X139400000Y-62800000D03*
X139400000Y-67300000D03*
X139400000Y-77300000D03*
X139400000Y-72800000D03*
X145900000Y-77300000D03*
X145900000Y-72800000D03*
D10*
X96190000Y-53500000D03*
X98730000Y-53500000D03*
X101270000Y-53500000D03*
D11*
X103810000Y-53500000D03*
D10*
X97460000Y-76500000D03*
X100000000Y-76500000D03*
D11*
X102540000Y-76500000D03*
X146400000Y-55700000D03*
X136400000Y-55700000D03*
D13*
X55200000Y-73700000D03*
X58700000Y-77500000D03*
X62500000Y-73700000D03*
D14*
X105600000Y-61500000D03*
X86300000Y-68350000D03*
X74750000Y-70400000D03*
X88750000Y-54100000D03*
X101299990Y-61500000D03*
X69800000Y-73050000D03*
X67350000Y-71950000D03*
X67300000Y-59200000D03*
X83500000Y-55500000D03*
X82900000Y-55500000D03*
X82300000Y-55500000D03*
X78500000Y-74100000D03*
X82000000Y-69700000D03*
X67500000Y-64500000D03*
X82200000Y-65900000D03*
X125000000Y-70000000D03*
X113900000Y-69800000D03*
X132200000Y-76900000D03*
X131300000Y-69600000D03*
X115800000Y-59900000D03*
X120600000Y-60700000D03*
X115000000Y-64700000D03*
X105600000Y-66800000D03*
X118550000Y-65200000D03*
X105600012Y-70900000D03*
X73900000Y-54800000D03*
X75400000Y-54800000D03*
X76900000Y-54800000D03*
X73900000Y-56300000D03*
X75400000Y-56300000D03*
X76900000Y-56300000D03*
X73900000Y-57800000D03*
X75400000Y-57800000D03*
X76900000Y-57800000D03*
X73900000Y-59300000D03*
X75400000Y-59300000D03*
X76900000Y-59300000D03*
X73900000Y-60800000D03*
X75400000Y-60800000D03*
X76900000Y-60800000D03*
X73900000Y-62300000D03*
X75400000Y-62300000D03*
X76900000Y-62300000D03*
X111100000Y-59600000D03*
X116000000Y-62000000D03*
X105500000Y-57100000D03*
X97300000Y-57100000D03*
X107100000Y-63700000D03*
X107100000Y-59400000D03*
X122000000Y-76900000D03*
X122000000Y-69800000D03*
X128800000Y-58500000D03*
X128737500Y-61662500D03*
X70800000Y-52400000D03*
X66800000Y-52400000D03*
X73700000Y-66200000D03*
X74700000Y-69099994D03*
X66200000Y-53700000D03*
X69800000Y-53250000D03*
X115100000Y-63450000D03*
X113100006Y-69300000D03*
D15*
X69300000Y-54200000D02*
X68900000Y-54200000D01*
X111100000Y-59600000D02*
X113500000Y-62000000D01*
X113500000Y-62000000D02*
X116000000Y-62000000D01*
X103810000Y-55410000D02*
X105500000Y-57100000D01*
X103810000Y-53500000D02*
X103810000Y-55410000D01*
X98730000Y-55670000D02*
X97300000Y-57100000D01*
X98730000Y-53500000D02*
X98730000Y-55670000D01*
X107100000Y-63700000D02*
X107100000Y-59400000D01*
X122000000Y-76900000D02*
X122000000Y-69900000D01*
X122000000Y-69900000D02*
X122000000Y-69700000D01*
X128800000Y-60200000D02*
X128737500Y-60262500D01*
X128737500Y-60262500D02*
X128737500Y-61662500D01*
X128800000Y-58500000D02*
X128800000Y-60200000D01*
X70800000Y-52400000D02*
X66800000Y-52400000D01*
X73700000Y-66200000D02*
X74700000Y-67200000D01*
X74700000Y-67200000D02*
X74700000Y-69099994D01*
X66650000Y-53250000D02*
X66200000Y-53700000D01*
X69800000Y-53250000D02*
X66650000Y-53250000D01*
X113100006Y-65449994D02*
X113100006Y-69300000D01*
X115100000Y-63450000D02*
X113100006Y-65449994D01*
D16*
G36*
X77086062Y-50208692D02*
G01*
X77123777Y-50224237D01*
X77161257Y-50240301D01*
X77167260Y-50242159D01*
X77634349Y-50383182D01*
X77674415Y-50391115D01*
X77714253Y-50399583D01*
X77720500Y-50400240D01*
X77720502Y-50400240D01*
X78205433Y-50447788D01*
X78227895Y-50450000D01*
X95782686Y-50450000D01*
X95791113Y-50459763D01*
X96409740Y-51098136D01*
X96420458Y-51107387D01*
X96430041Y-51117809D01*
X96470303Y-51150413D01*
X97192199Y-51669148D01*
X97204387Y-51676355D01*
X97215663Y-51684915D01*
X97261063Y-51709873D01*
X98063410Y-52092573D01*
X98076679Y-52097508D01*
X98089295Y-52103936D01*
X98138397Y-52120461D01*
X98703296Y-52275000D01*
X98609348Y-52275000D01*
X98372681Y-52322076D01*
X98149745Y-52414419D01*
X97949108Y-52548481D01*
X97778481Y-52719108D01*
X97644419Y-52919745D01*
X97552076Y-53142681D01*
X97505000Y-53379348D01*
X97505000Y-53620652D01*
X97552076Y-53857319D01*
X97644419Y-54080255D01*
X97778481Y-54280892D01*
X97949108Y-54451519D01*
X98149745Y-54585581D01*
X98255001Y-54629179D01*
X98255001Y-55473248D01*
X97303250Y-56425000D01*
X97233518Y-56425000D01*
X97103110Y-56450940D01*
X96980268Y-56501823D01*
X96869713Y-56575693D01*
X96775693Y-56669713D01*
X96701823Y-56780268D01*
X96650940Y-56903110D01*
X96625000Y-57033518D01*
X96625000Y-57166482D01*
X96650940Y-57296890D01*
X96701823Y-57419732D01*
X96775693Y-57530287D01*
X96869713Y-57624307D01*
X96980268Y-57698177D01*
X97103110Y-57749060D01*
X97233518Y-57775000D01*
X97366482Y-57775000D01*
X97496890Y-57749060D01*
X97619732Y-57698177D01*
X97730287Y-57624307D01*
X97824307Y-57530287D01*
X97898177Y-57419732D01*
X97949060Y-57296890D01*
X97975000Y-57166482D01*
X97975000Y-57096750D01*
X99049371Y-56022380D01*
X99067501Y-56007501D01*
X99126859Y-55935173D01*
X99170966Y-55852654D01*
X99198127Y-55763116D01*
X99205000Y-55693332D01*
X99207298Y-55670001D01*
X99205000Y-55646669D01*
X99205000Y-54629179D01*
X99310255Y-54585581D01*
X99510892Y-54451519D01*
X99681519Y-54280892D01*
X99815581Y-54080255D01*
X99907924Y-53857319D01*
X99940782Y-53692126D01*
X100060160Y-53692126D01*
X100120889Y-53924462D01*
X100225777Y-54140487D01*
X100370794Y-54331898D01*
X100550367Y-54491340D01*
X100757595Y-54612685D01*
X100984515Y-54691270D01*
X101077874Y-54709840D01*
X101269500Y-54631250D01*
X101269500Y-53500500D01*
X101270500Y-53500500D01*
X101270500Y-54631250D01*
X101462126Y-54709840D01*
X101555485Y-54691270D01*
X101782405Y-54612685D01*
X101989633Y-54491340D01*
X102169206Y-54331898D01*
X102314223Y-54140487D01*
X102419111Y-53924462D01*
X102479840Y-53692126D01*
X102401250Y-53500500D01*
X101270500Y-53500500D01*
X101269500Y-53500500D01*
X100138750Y-53500500D01*
X100060160Y-53692126D01*
X99940782Y-53692126D01*
X99955000Y-53620652D01*
X99955000Y-53379348D01*
X99907924Y-53142681D01*
X99815581Y-52919745D01*
X99681519Y-52719108D01*
X99510892Y-52548481D01*
X99310255Y-52414419D01*
X99235819Y-52383587D01*
X99959997Y-52448218D01*
X99964694Y-52448218D01*
X100008364Y-52449922D01*
X100194208Y-52446467D01*
X100198880Y-52445962D01*
X100242478Y-52442967D01*
X100801784Y-52372012D01*
X100757595Y-52387315D01*
X100550367Y-52508660D01*
X100370794Y-52668102D01*
X100225777Y-52859513D01*
X100120889Y-53075538D01*
X100060160Y-53307874D01*
X100138750Y-53499500D01*
X101269500Y-53499500D01*
X101269500Y-53479500D01*
X101270500Y-53479500D01*
X101270500Y-53499500D01*
X102401250Y-53499500D01*
X102450526Y-53379348D01*
X102585000Y-53379348D01*
X102585000Y-53620652D01*
X102632076Y-53857319D01*
X102724419Y-54080255D01*
X102858481Y-54280892D01*
X103029108Y-54451519D01*
X103229745Y-54585581D01*
X103335001Y-54629179D01*
X103335001Y-55386658D01*
X103332702Y-55410000D01*
X103341873Y-55503116D01*
X103364999Y-55579348D01*
X103369035Y-55592654D01*
X103413142Y-55675173D01*
X103472500Y-55747501D01*
X103490629Y-55762379D01*
X104825000Y-57096751D01*
X104825000Y-57166482D01*
X104850940Y-57296890D01*
X104901823Y-57419732D01*
X104975693Y-57530287D01*
X105069713Y-57624307D01*
X105180268Y-57698177D01*
X105303110Y-57749060D01*
X105433518Y-57775000D01*
X105566482Y-57775000D01*
X105696890Y-57749060D01*
X105819732Y-57698177D01*
X105930287Y-57624307D01*
X106024307Y-57530287D01*
X106098177Y-57419732D01*
X106149060Y-57296890D01*
X106175000Y-57166482D01*
X106175000Y-57033518D01*
X106149060Y-56903110D01*
X106098177Y-56780268D01*
X106024307Y-56669713D01*
X105930287Y-56575693D01*
X105819732Y-56501823D01*
X105696890Y-56450940D01*
X105566482Y-56425000D01*
X105496751Y-56425000D01*
X104651099Y-55579348D01*
X135175000Y-55579348D01*
X135175000Y-55820652D01*
X135222076Y-56057319D01*
X135314419Y-56280255D01*
X135448481Y-56480892D01*
X135619108Y-56651519D01*
X135819745Y-56785581D01*
X136042681Y-56877924D01*
X136279348Y-56925000D01*
X136520652Y-56925000D01*
X136757319Y-56877924D01*
X136980255Y-56785581D01*
X137180892Y-56651519D01*
X137327952Y-56504459D01*
X145596248Y-56504459D01*
X145676884Y-56696135D01*
X145885115Y-56818067D01*
X146113132Y-56897033D01*
X146352174Y-56929998D01*
X146593054Y-56915694D01*
X146826514Y-56854671D01*
X147043584Y-56749276D01*
X147123116Y-56696135D01*
X147203752Y-56504459D01*
X146400000Y-55700707D01*
X145596248Y-56504459D01*
X137327952Y-56504459D01*
X137351519Y-56480892D01*
X137485581Y-56280255D01*
X137577924Y-56057319D01*
X137625000Y-55820652D01*
X137625000Y-55652174D01*
X145170002Y-55652174D01*
X145184306Y-55893054D01*
X145245329Y-56126514D01*
X145350724Y-56343584D01*
X145403865Y-56423116D01*
X145595541Y-56503752D01*
X146399293Y-55700000D01*
X145595541Y-54896248D01*
X145403865Y-54976884D01*
X145281933Y-55185115D01*
X145202967Y-55413132D01*
X145170002Y-55652174D01*
X137625000Y-55652174D01*
X137625000Y-55579348D01*
X137577924Y-55342681D01*
X137485581Y-55119745D01*
X137351519Y-54919108D01*
X137327952Y-54895541D01*
X145596248Y-54895541D01*
X146400000Y-55699293D01*
X147203752Y-54895541D01*
X147123116Y-54703865D01*
X146914885Y-54581933D01*
X146686868Y-54502967D01*
X146447826Y-54470002D01*
X146206946Y-54484306D01*
X145973486Y-54545329D01*
X145756416Y-54650724D01*
X145676884Y-54703865D01*
X145596248Y-54895541D01*
X137327952Y-54895541D01*
X137180892Y-54748481D01*
X136980255Y-54614419D01*
X136757319Y-54522076D01*
X136520652Y-54475000D01*
X136279348Y-54475000D01*
X136042681Y-54522076D01*
X135819745Y-54614419D01*
X135619108Y-54748481D01*
X135448481Y-54919108D01*
X135314419Y-55119745D01*
X135222076Y-55342681D01*
X135175000Y-55579348D01*
X104651099Y-55579348D01*
X104285000Y-55213250D01*
X104285000Y-54629179D01*
X104390255Y-54585581D01*
X104590892Y-54451519D01*
X104761519Y-54280892D01*
X104895581Y-54080255D01*
X104987924Y-53857319D01*
X105035000Y-53620652D01*
X105035000Y-53379348D01*
X104987924Y-53142681D01*
X104895581Y-52919745D01*
X104761519Y-52719108D01*
X104590892Y-52548481D01*
X104390255Y-52414419D01*
X104167319Y-52322076D01*
X103952511Y-52279348D01*
X106575000Y-52279348D01*
X106575000Y-52520652D01*
X106622076Y-52757319D01*
X106714419Y-52980255D01*
X106848481Y-53180892D01*
X107019108Y-53351519D01*
X107219745Y-53485581D01*
X107442681Y-53577924D01*
X107679348Y-53625000D01*
X107920652Y-53625000D01*
X108157319Y-53577924D01*
X108380255Y-53485581D01*
X108580892Y-53351519D01*
X108751519Y-53180892D01*
X108885581Y-52980255D01*
X108977924Y-52757319D01*
X109025000Y-52520652D01*
X109025000Y-52279348D01*
X109115000Y-52279348D01*
X109115000Y-52520652D01*
X109162076Y-52757319D01*
X109254419Y-52980255D01*
X109388481Y-53180892D01*
X109559108Y-53351519D01*
X109759745Y-53485581D01*
X109982681Y-53577924D01*
X110219348Y-53625000D01*
X110460652Y-53625000D01*
X110697319Y-53577924D01*
X110920255Y-53485581D01*
X111120892Y-53351519D01*
X111291519Y-53180892D01*
X111425581Y-52980255D01*
X111517924Y-52757319D01*
X111565000Y-52520652D01*
X111565000Y-52279348D01*
X111655000Y-52279348D01*
X111655000Y-52520652D01*
X111702076Y-52757319D01*
X111794419Y-52980255D01*
X111928481Y-53180892D01*
X112099108Y-53351519D01*
X112299745Y-53485581D01*
X112522681Y-53577924D01*
X112759348Y-53625000D01*
X113000652Y-53625000D01*
X113237319Y-53577924D01*
X113460255Y-53485581D01*
X113660892Y-53351519D01*
X113831519Y-53180892D01*
X113965581Y-52980255D01*
X114057924Y-52757319D01*
X114105000Y-52520652D01*
X114105000Y-52279348D01*
X114195000Y-52279348D01*
X114195000Y-52520652D01*
X114242076Y-52757319D01*
X114334419Y-52980255D01*
X114468481Y-53180892D01*
X114639108Y-53351519D01*
X114839745Y-53485581D01*
X115062681Y-53577924D01*
X115299348Y-53625000D01*
X115540652Y-53625000D01*
X115777319Y-53577924D01*
X116000255Y-53485581D01*
X116200892Y-53351519D01*
X116371519Y-53180892D01*
X116505581Y-52980255D01*
X116597924Y-52757319D01*
X116630782Y-52592126D01*
X116750160Y-52592126D01*
X116810889Y-52824462D01*
X116915777Y-53040487D01*
X117060794Y-53231898D01*
X117240367Y-53391340D01*
X117447595Y-53512685D01*
X117674515Y-53591270D01*
X117767874Y-53609840D01*
X117959500Y-53531250D01*
X117959500Y-52400500D01*
X117960500Y-52400500D01*
X117960500Y-53531250D01*
X118152126Y-53609840D01*
X118245485Y-53591270D01*
X118472405Y-53512685D01*
X118679633Y-53391340D01*
X118859206Y-53231898D01*
X119004223Y-53040487D01*
X119109111Y-52824462D01*
X119169840Y-52592126D01*
X120330160Y-52592126D01*
X120390889Y-52824462D01*
X120495777Y-53040487D01*
X120640794Y-53231898D01*
X120820367Y-53391340D01*
X121027595Y-53512685D01*
X121254515Y-53591270D01*
X121347874Y-53609840D01*
X121539500Y-53531250D01*
X121539500Y-52400500D01*
X121540500Y-52400500D01*
X121540500Y-53531250D01*
X121732126Y-53609840D01*
X121825485Y-53591270D01*
X122052405Y-53512685D01*
X122259633Y-53391340D01*
X122439206Y-53231898D01*
X122584223Y-53040487D01*
X122689111Y-52824462D01*
X122749840Y-52592126D01*
X122870160Y-52592126D01*
X122930889Y-52824462D01*
X123035777Y-53040487D01*
X123180794Y-53231898D01*
X123360367Y-53391340D01*
X123567595Y-53512685D01*
X123794515Y-53591270D01*
X123887874Y-53609840D01*
X124079500Y-53531250D01*
X124079500Y-52400500D01*
X124080500Y-52400500D01*
X124080500Y-53531250D01*
X124272126Y-53609840D01*
X124365485Y-53591270D01*
X124592405Y-53512685D01*
X124799633Y-53391340D01*
X124979206Y-53231898D01*
X125124223Y-53040487D01*
X125229111Y-52824462D01*
X125289840Y-52592126D01*
X125211250Y-52400500D01*
X124080500Y-52400500D01*
X124079500Y-52400500D01*
X122948750Y-52400500D01*
X122870160Y-52592126D01*
X122749840Y-52592126D01*
X122671250Y-52400500D01*
X121540500Y-52400500D01*
X121539500Y-52400500D01*
X120408750Y-52400500D01*
X120330160Y-52592126D01*
X119169840Y-52592126D01*
X119091250Y-52400500D01*
X117960500Y-52400500D01*
X117959500Y-52400500D01*
X116828750Y-52400500D01*
X116750160Y-52592126D01*
X116630782Y-52592126D01*
X116645000Y-52520652D01*
X116645000Y-52279348D01*
X116630783Y-52207874D01*
X116750160Y-52207874D01*
X116828750Y-52399500D01*
X117959500Y-52399500D01*
X117959500Y-51268750D01*
X117960500Y-51268750D01*
X117960500Y-52399500D01*
X119091250Y-52399500D01*
X119169840Y-52207874D01*
X120330160Y-52207874D01*
X120408750Y-52399500D01*
X121539500Y-52399500D01*
X121539500Y-51268750D01*
X121540500Y-51268750D01*
X121540500Y-52399500D01*
X122671250Y-52399500D01*
X122749840Y-52207874D01*
X122870160Y-52207874D01*
X122948750Y-52399500D01*
X124079500Y-52399500D01*
X124079500Y-51268750D01*
X124080500Y-51268750D01*
X124080500Y-52399500D01*
X125211250Y-52399500D01*
X125260526Y-52279348D01*
X125395000Y-52279348D01*
X125395000Y-52520652D01*
X125442076Y-52757319D01*
X125534419Y-52980255D01*
X125668481Y-53180892D01*
X125839108Y-53351519D01*
X126039745Y-53485581D01*
X126262681Y-53577924D01*
X126499348Y-53625000D01*
X126740652Y-53625000D01*
X126977319Y-53577924D01*
X127200255Y-53485581D01*
X127400892Y-53351519D01*
X127571519Y-53180892D01*
X127705581Y-52980255D01*
X127797924Y-52757319D01*
X127845000Y-52520652D01*
X127845000Y-52279348D01*
X127935000Y-52279348D01*
X127935000Y-52520652D01*
X127982076Y-52757319D01*
X128074419Y-52980255D01*
X128208481Y-53180892D01*
X128379108Y-53351519D01*
X128579745Y-53485581D01*
X128802681Y-53577924D01*
X129039348Y-53625000D01*
X129280652Y-53625000D01*
X129517319Y-53577924D01*
X129740255Y-53485581D01*
X129940892Y-53351519D01*
X130111519Y-53180892D01*
X130245581Y-52980255D01*
X130337924Y-52757319D01*
X130385000Y-52520652D01*
X130385000Y-52279348D01*
X130475000Y-52279348D01*
X130475000Y-52520652D01*
X130522076Y-52757319D01*
X130614419Y-52980255D01*
X130748481Y-53180892D01*
X130919108Y-53351519D01*
X131119745Y-53485581D01*
X131342681Y-53577924D01*
X131579348Y-53625000D01*
X131820652Y-53625000D01*
X132057319Y-53577924D01*
X132280255Y-53485581D01*
X132480892Y-53351519D01*
X132651519Y-53180892D01*
X132785581Y-52980255D01*
X132877924Y-52757319D01*
X132925000Y-52520652D01*
X132925000Y-52279348D01*
X132877924Y-52042681D01*
X132785581Y-51819745D01*
X132651519Y-51619108D01*
X132480892Y-51448481D01*
X132280255Y-51314419D01*
X132057319Y-51222076D01*
X131820652Y-51175000D01*
X131579348Y-51175000D01*
X131342681Y-51222076D01*
X131119745Y-51314419D01*
X130919108Y-51448481D01*
X130748481Y-51619108D01*
X130614419Y-51819745D01*
X130522076Y-52042681D01*
X130475000Y-52279348D01*
X130385000Y-52279348D01*
X130337924Y-52042681D01*
X130245581Y-51819745D01*
X130111519Y-51619108D01*
X129940892Y-51448481D01*
X129740255Y-51314419D01*
X129517319Y-51222076D01*
X129280652Y-51175000D01*
X129039348Y-51175000D01*
X128802681Y-51222076D01*
X128579745Y-51314419D01*
X128379108Y-51448481D01*
X128208481Y-51619108D01*
X128074419Y-51819745D01*
X127982076Y-52042681D01*
X127935000Y-52279348D01*
X127845000Y-52279348D01*
X127797924Y-52042681D01*
X127705581Y-51819745D01*
X127571519Y-51619108D01*
X127400892Y-51448481D01*
X127200255Y-51314419D01*
X126977319Y-51222076D01*
X126740652Y-51175000D01*
X126499348Y-51175000D01*
X126262681Y-51222076D01*
X126039745Y-51314419D01*
X125839108Y-51448481D01*
X125668481Y-51619108D01*
X125534419Y-51819745D01*
X125442076Y-52042681D01*
X125395000Y-52279348D01*
X125260526Y-52279348D01*
X125289840Y-52207874D01*
X125229111Y-51975538D01*
X125124223Y-51759513D01*
X124979206Y-51568102D01*
X124799633Y-51408660D01*
X124592405Y-51287315D01*
X124365485Y-51208730D01*
X124272126Y-51190160D01*
X124080500Y-51268750D01*
X124079500Y-51268750D01*
X123887874Y-51190160D01*
X123794515Y-51208730D01*
X123567595Y-51287315D01*
X123360367Y-51408660D01*
X123180794Y-51568102D01*
X123035777Y-51759513D01*
X122930889Y-51975538D01*
X122870160Y-52207874D01*
X122749840Y-52207874D01*
X122689111Y-51975538D01*
X122584223Y-51759513D01*
X122439206Y-51568102D01*
X122259633Y-51408660D01*
X122052405Y-51287315D01*
X121825485Y-51208730D01*
X121732126Y-51190160D01*
X121540500Y-51268750D01*
X121539500Y-51268750D01*
X121347874Y-51190160D01*
X121254515Y-51208730D01*
X121027595Y-51287315D01*
X120820367Y-51408660D01*
X120640794Y-51568102D01*
X120495777Y-51759513D01*
X120390889Y-51975538D01*
X120330160Y-52207874D01*
X119169840Y-52207874D01*
X119109111Y-51975538D01*
X119004223Y-51759513D01*
X118859206Y-51568102D01*
X118679633Y-51408660D01*
X118472405Y-51287315D01*
X118245485Y-51208730D01*
X118152126Y-51190160D01*
X117960500Y-51268750D01*
X117959500Y-51268750D01*
X117767874Y-51190160D01*
X117674515Y-51208730D01*
X117447595Y-51287315D01*
X117240367Y-51408660D01*
X117060794Y-51568102D01*
X116915777Y-51759513D01*
X116810889Y-51975538D01*
X116750160Y-52207874D01*
X116630783Y-52207874D01*
X116597924Y-52042681D01*
X116505581Y-51819745D01*
X116371519Y-51619108D01*
X116200892Y-51448481D01*
X116000255Y-51314419D01*
X115777319Y-51222076D01*
X115540652Y-51175000D01*
X115299348Y-51175000D01*
X115062681Y-51222076D01*
X114839745Y-51314419D01*
X114639108Y-51448481D01*
X114468481Y-51619108D01*
X114334419Y-51819745D01*
X114242076Y-52042681D01*
X114195000Y-52279348D01*
X114105000Y-52279348D01*
X114057924Y-52042681D01*
X113965581Y-51819745D01*
X113831519Y-51619108D01*
X113660892Y-51448481D01*
X113460255Y-51314419D01*
X113237319Y-51222076D01*
X113000652Y-51175000D01*
X112759348Y-51175000D01*
X112522681Y-51222076D01*
X112299745Y-51314419D01*
X112099108Y-51448481D01*
X111928481Y-51619108D01*
X111794419Y-51819745D01*
X111702076Y-52042681D01*
X111655000Y-52279348D01*
X111565000Y-52279348D01*
X111517924Y-52042681D01*
X111425581Y-51819745D01*
X111291519Y-51619108D01*
X111120892Y-51448481D01*
X110920255Y-51314419D01*
X110697319Y-51222076D01*
X110460652Y-51175000D01*
X110219348Y-51175000D01*
X109982681Y-51222076D01*
X109759745Y-51314419D01*
X109559108Y-51448481D01*
X109388481Y-51619108D01*
X109254419Y-51819745D01*
X109162076Y-52042681D01*
X109115000Y-52279348D01*
X109025000Y-52279348D01*
X108977924Y-52042681D01*
X108885581Y-51819745D01*
X108751519Y-51619108D01*
X108580892Y-51448481D01*
X108380255Y-51314419D01*
X108157319Y-51222076D01*
X107920652Y-51175000D01*
X107679348Y-51175000D01*
X107442681Y-51222076D01*
X107219745Y-51314419D01*
X107019108Y-51448481D01*
X106848481Y-51619108D01*
X106714419Y-51819745D01*
X106622076Y-52042681D01*
X106575000Y-52279348D01*
X103952511Y-52279348D01*
X103930652Y-52275000D01*
X103689348Y-52275000D01*
X103452681Y-52322076D01*
X103229745Y-52414419D01*
X103029108Y-52548481D01*
X102858481Y-52719108D01*
X102724419Y-52919745D01*
X102632076Y-53142681D01*
X102585000Y-53379348D01*
X102450526Y-53379348D01*
X102479840Y-53307874D01*
X102419111Y-53075538D01*
X102314223Y-52859513D01*
X102169206Y-52668102D01*
X101989633Y-52508660D01*
X101782405Y-52387315D01*
X101555485Y-52308730D01*
X101462126Y-52290160D01*
X101270502Y-52368749D01*
X101270502Y-52292659D01*
X102050638Y-52047729D01*
X102063710Y-52042306D01*
X102077330Y-52038419D01*
X102124537Y-52017074D01*
X102912105Y-51604816D01*
X102924014Y-51597162D01*
X102936726Y-51590926D01*
X102979407Y-51561559D01*
X103681523Y-51016351D01*
X103691887Y-51006710D01*
X103703296Y-50998320D01*
X103740101Y-50961859D01*
X104200494Y-50450000D01*
X121772105Y-50450000D01*
X121792636Y-50447978D01*
X121808238Y-50448087D01*
X121814491Y-50447474D01*
X122299733Y-50396473D01*
X122339692Y-50388270D01*
X122379748Y-50380629D01*
X122385763Y-50378813D01*
X122851857Y-50234533D01*
X122889460Y-50218726D01*
X122927272Y-50203449D01*
X122932820Y-50200500D01*
X123072454Y-50125000D01*
X130428661Y-50125000D01*
X130586062Y-50208692D01*
X130623777Y-50224237D01*
X130661257Y-50240301D01*
X130667260Y-50242159D01*
X131134349Y-50383182D01*
X131174415Y-50391115D01*
X131214253Y-50399583D01*
X131220500Y-50400240D01*
X131220502Y-50400240D01*
X131705433Y-50447788D01*
X131727895Y-50450000D01*
X144477995Y-50450000D01*
X145091993Y-50510203D01*
X145661446Y-50682131D01*
X146186650Y-50961388D01*
X146647613Y-51337339D01*
X147026776Y-51795668D01*
X147309694Y-52318916D01*
X147485590Y-52887143D01*
X147549997Y-53499935D01*
X147550000Y-53500703D01*
X147550000Y-55263866D01*
X147449276Y-55056416D01*
X147396135Y-54976884D01*
X147204459Y-54896248D01*
X146400707Y-55700000D01*
X147204459Y-56503752D01*
X147396135Y-56423116D01*
X147518067Y-56214885D01*
X147550000Y-56122677D01*
X147550001Y-76477985D01*
X147489797Y-77091993D01*
X147317869Y-77661445D01*
X147038613Y-78186648D01*
X146662661Y-78647613D01*
X146204330Y-79026777D01*
X145681085Y-79309694D01*
X145112857Y-79485590D01*
X144500065Y-79549997D01*
X144499297Y-79550000D01*
X131727895Y-79550000D01*
X131707364Y-79552022D01*
X131691763Y-79551913D01*
X131685509Y-79552526D01*
X131200267Y-79603527D01*
X131160283Y-79611735D01*
X131120251Y-79619371D01*
X131114236Y-79621187D01*
X130648143Y-79765467D01*
X130610554Y-79781268D01*
X130572727Y-79796551D01*
X130567180Y-79799500D01*
X130427546Y-79875000D01*
X123071338Y-79875000D01*
X122913938Y-79791309D01*
X122876218Y-79775761D01*
X122838742Y-79759699D01*
X122832744Y-79757842D01*
X122832738Y-79757840D01*
X122365650Y-79616818D01*
X122325592Y-79608886D01*
X122285747Y-79600417D01*
X122279499Y-79599760D01*
X121794566Y-79552212D01*
X121772105Y-79550000D01*
X104217314Y-79550000D01*
X104208887Y-79540237D01*
X103590260Y-78901864D01*
X103579542Y-78892613D01*
X103569959Y-78882191D01*
X103529696Y-78849587D01*
X102807801Y-78330852D01*
X102795613Y-78323645D01*
X102784337Y-78315085D01*
X102738937Y-78290127D01*
X102573124Y-78211038D01*
X138489669Y-78211038D01*
X138588289Y-78418074D01*
X138822012Y-78554948D01*
X139077946Y-78643594D01*
X139346256Y-78680607D01*
X139616632Y-78664563D01*
X139878682Y-78596081D01*
X140122337Y-78477790D01*
X140211711Y-78418074D01*
X140310331Y-78211038D01*
X144989669Y-78211038D01*
X145088289Y-78418074D01*
X145322012Y-78554948D01*
X145577946Y-78643594D01*
X145846256Y-78680607D01*
X146116632Y-78664563D01*
X146378682Y-78596081D01*
X146622337Y-78477790D01*
X146711711Y-78418074D01*
X146810331Y-78211038D01*
X145900000Y-77300707D01*
X144989669Y-78211038D01*
X140310331Y-78211038D01*
X139400000Y-77300707D01*
X138489669Y-78211038D01*
X102573124Y-78211038D01*
X101936590Y-77907427D01*
X101923324Y-77902493D01*
X101910704Y-77896063D01*
X101861613Y-77879543D01*
X101861603Y-77879539D01*
X101861600Y-77879538D01*
X101624256Y-77814609D01*
X101623351Y-77304459D01*
X101736248Y-77304459D01*
X101816884Y-77496135D01*
X102025115Y-77618067D01*
X102253132Y-77697033D01*
X102492174Y-77729998D01*
X102733054Y-77715694D01*
X102966514Y-77654671D01*
X103183584Y-77549276D01*
X103263116Y-77496135D01*
X103343752Y-77304459D01*
X102540000Y-76500707D01*
X101736248Y-77304459D01*
X101623351Y-77304459D01*
X101623265Y-77256519D01*
X101735541Y-77303752D01*
X102539293Y-76500000D01*
X102540707Y-76500000D01*
X103344459Y-77303752D01*
X103536135Y-77223116D01*
X103658067Y-77014885D01*
X103737033Y-76786868D01*
X103769998Y-76547826D01*
X103755694Y-76306946D01*
X103694671Y-76073486D01*
X103589276Y-75856416D01*
X103536135Y-75776884D01*
X103344459Y-75696248D01*
X102540707Y-76500000D01*
X102539293Y-76500000D01*
X101735541Y-75696248D01*
X101620579Y-75744611D01*
X101620492Y-75695541D01*
X101736248Y-75695541D01*
X102540000Y-76499293D01*
X103343752Y-75695541D01*
X103263116Y-75503865D01*
X103054885Y-75381933D01*
X102826868Y-75302967D01*
X102587826Y-75270002D01*
X102346946Y-75284306D01*
X102113486Y-75345329D01*
X101896416Y-75450724D01*
X101816884Y-75503865D01*
X101736248Y-75695541D01*
X101620492Y-75695541D01*
X101618750Y-74715403D01*
X101616348Y-74691239D01*
X101609235Y-74667790D01*
X101597684Y-74646179D01*
X101582138Y-74627237D01*
X101563196Y-74611691D01*
X101541585Y-74600140D01*
X101518136Y-74593027D01*
X101493750Y-74590625D01*
X85918750Y-74590625D01*
X85894871Y-74592927D01*
X85871392Y-74599943D01*
X85849734Y-74611405D01*
X85830728Y-74626872D01*
X85815104Y-74645750D01*
X85803464Y-74667313D01*
X85796254Y-74690732D01*
X85793751Y-74715108D01*
X85783918Y-77094056D01*
X85772405Y-77087315D01*
X85545485Y-77008730D01*
X85452126Y-76990160D01*
X85260500Y-77068750D01*
X85260500Y-78199500D01*
X85280500Y-78199500D01*
X85280500Y-78200500D01*
X85260500Y-78200500D01*
X85260500Y-79331250D01*
X85452126Y-79409840D01*
X85545485Y-79391270D01*
X85772405Y-79312685D01*
X85774753Y-79311310D01*
X85773766Y-79550000D01*
X78227895Y-79550000D01*
X78207364Y-79552022D01*
X78191763Y-79551913D01*
X78185509Y-79552526D01*
X77700267Y-79603527D01*
X77660283Y-79611735D01*
X77620251Y-79619371D01*
X77614236Y-79621187D01*
X77148143Y-79765467D01*
X77110554Y-79781268D01*
X77072727Y-79796551D01*
X77067180Y-79799500D01*
X76927546Y-79875000D01*
X69571338Y-79875000D01*
X69413938Y-79791309D01*
X69376218Y-79775761D01*
X69338742Y-79759699D01*
X69332744Y-79757842D01*
X69332738Y-79757840D01*
X68865650Y-79616818D01*
X68825592Y-79608886D01*
X68785747Y-79600417D01*
X68779499Y-79599760D01*
X68294566Y-79552212D01*
X68272105Y-79550000D01*
X55522005Y-79550000D01*
X54908007Y-79489797D01*
X54338555Y-79317869D01*
X53813352Y-79038613D01*
X53352387Y-78662661D01*
X52973223Y-78204330D01*
X52759714Y-77809452D01*
X56749394Y-77809452D01*
X56847245Y-78184050D01*
X57016297Y-78532361D01*
X57250053Y-78840999D01*
X57539529Y-79098103D01*
X57873602Y-79293793D01*
X58239433Y-79420548D01*
X58390548Y-79450606D01*
X58699500Y-79381250D01*
X58699500Y-77500500D01*
X58700500Y-77500500D01*
X58700500Y-79381250D01*
X59009452Y-79450606D01*
X59160567Y-79420548D01*
X59526398Y-79293793D01*
X59860471Y-79098103D01*
X60149947Y-78840999D01*
X60383703Y-78532361D01*
X60451765Y-78392126D01*
X84050160Y-78392126D01*
X84110889Y-78624462D01*
X84215777Y-78840487D01*
X84360794Y-79031898D01*
X84540367Y-79191340D01*
X84747595Y-79312685D01*
X84974515Y-79391270D01*
X85067874Y-79409840D01*
X85259500Y-79331250D01*
X85259500Y-78200500D01*
X84128750Y-78200500D01*
X84050160Y-78392126D01*
X60451765Y-78392126D01*
X60552755Y-78184050D01*
X60598774Y-78007874D01*
X84050160Y-78007874D01*
X84128750Y-78199500D01*
X85259500Y-78199500D01*
X85259500Y-77068750D01*
X85067874Y-76990160D01*
X84974515Y-77008730D01*
X84747595Y-77087315D01*
X84540367Y-77208660D01*
X84360794Y-77368102D01*
X84215777Y-77559513D01*
X84110889Y-77775538D01*
X84050160Y-78007874D01*
X60598774Y-78007874D01*
X60650606Y-77809452D01*
X60581250Y-77500500D01*
X58700500Y-77500500D01*
X58699500Y-77500500D01*
X56818750Y-77500500D01*
X56749394Y-77809452D01*
X52759714Y-77809452D01*
X52690306Y-77681085D01*
X52538460Y-77190548D01*
X56749394Y-77190548D01*
X56818750Y-77499500D01*
X58699500Y-77499500D01*
X58699500Y-75618750D01*
X58700500Y-75618750D01*
X58700500Y-77499500D01*
X60581250Y-77499500D01*
X60650606Y-77190548D01*
X60552755Y-76815950D01*
X60383703Y-76467639D01*
X60149947Y-76159001D01*
X59860471Y-75901897D01*
X59526398Y-75706207D01*
X59160567Y-75579452D01*
X59009452Y-75549394D01*
X58700500Y-75618750D01*
X58699500Y-75618750D01*
X58390548Y-75549394D01*
X58239433Y-75579452D01*
X57873602Y-75706207D01*
X57539529Y-75901897D01*
X57250053Y-76159001D01*
X57016297Y-76467639D01*
X56847245Y-76815950D01*
X56749394Y-77190548D01*
X52538460Y-77190548D01*
X52514410Y-77112857D01*
X52450003Y-76500065D01*
X52450000Y-76499293D01*
X52450000Y-73505479D01*
X53225000Y-73505479D01*
X53225000Y-73894521D01*
X53300898Y-74276086D01*
X53449778Y-74635513D01*
X53665917Y-74958989D01*
X53941011Y-75234083D01*
X54264487Y-75450222D01*
X54623914Y-75599102D01*
X55005479Y-75675000D01*
X55394521Y-75675000D01*
X55776086Y-75599102D01*
X56135513Y-75450222D01*
X56458989Y-75234083D01*
X56734083Y-74958989D01*
X56950222Y-74635513D01*
X57099102Y-74276086D01*
X57175000Y-73894521D01*
X57175000Y-73505479D01*
X60525000Y-73505479D01*
X60525000Y-73894521D01*
X60600898Y-74276086D01*
X60749778Y-74635513D01*
X60965917Y-74958989D01*
X61241011Y-75234083D01*
X61564487Y-75450222D01*
X61923914Y-75599102D01*
X62305479Y-75675000D01*
X62694521Y-75675000D01*
X63076086Y-75599102D01*
X63435513Y-75450222D01*
X63758989Y-75234083D01*
X64034083Y-74958989D01*
X64250222Y-74635513D01*
X64399102Y-74276086D01*
X64475000Y-73894521D01*
X64475000Y-73505479D01*
X64399102Y-73123914D01*
X64250222Y-72764487D01*
X64034083Y-72441011D01*
X63758989Y-72165917D01*
X63435513Y-71949778D01*
X63076086Y-71800898D01*
X62694521Y-71725000D01*
X62305479Y-71725000D01*
X61923914Y-71800898D01*
X61564487Y-71949778D01*
X61241011Y-72165917D01*
X60965917Y-72441011D01*
X60749778Y-72764487D01*
X60600898Y-73123914D01*
X60525000Y-73505479D01*
X57175000Y-73505479D01*
X57099102Y-73123914D01*
X56950222Y-72764487D01*
X56734083Y-72441011D01*
X56458989Y-72165917D01*
X56135513Y-71949778D01*
X55776086Y-71800898D01*
X55394521Y-71725000D01*
X55005479Y-71725000D01*
X54623914Y-71800898D01*
X54264487Y-71949778D01*
X53941011Y-72165917D01*
X53665917Y-72441011D01*
X53449778Y-72764487D01*
X53300898Y-73123914D01*
X53225000Y-73505479D01*
X52450000Y-73505479D01*
X52450000Y-66133518D01*
X73025000Y-66133518D01*
X73025000Y-66266482D01*
X73050940Y-66396890D01*
X73101823Y-66519732D01*
X73175693Y-66630287D01*
X73269713Y-66724307D01*
X73380268Y-66798177D01*
X73503110Y-66849060D01*
X73633518Y-66875000D01*
X73703249Y-66875000D01*
X74225000Y-67396752D01*
X74225001Y-68620399D01*
X74175693Y-68669707D01*
X74101823Y-68780262D01*
X74050940Y-68903104D01*
X74025000Y-69033512D01*
X74025000Y-69166476D01*
X74050940Y-69296884D01*
X74101823Y-69419726D01*
X74175693Y-69530281D01*
X74269713Y-69624301D01*
X74380268Y-69698171D01*
X74503110Y-69749054D01*
X74633518Y-69774994D01*
X74766482Y-69774994D01*
X74896890Y-69749054D01*
X75019732Y-69698171D01*
X75130287Y-69624301D01*
X75224307Y-69530281D01*
X75298177Y-69419726D01*
X75349060Y-69296884D01*
X75361664Y-69233518D01*
X112425006Y-69233518D01*
X112425006Y-69366482D01*
X112450946Y-69496890D01*
X112501829Y-69619732D01*
X112575699Y-69730287D01*
X112669719Y-69824307D01*
X112780274Y-69898177D01*
X112903116Y-69949060D01*
X113033524Y-69975000D01*
X113166488Y-69975000D01*
X113296896Y-69949060D01*
X113419738Y-69898177D01*
X113530293Y-69824307D01*
X113621082Y-69733518D01*
X121325000Y-69733518D01*
X121325000Y-69866482D01*
X121350940Y-69996890D01*
X121401823Y-70119732D01*
X121475693Y-70230287D01*
X121525001Y-70279595D01*
X121525000Y-76420406D01*
X121475693Y-76469713D01*
X121401823Y-76580268D01*
X121350940Y-76703110D01*
X121325000Y-76833518D01*
X121325000Y-76966482D01*
X121350940Y-77096890D01*
X121401823Y-77219732D01*
X121475693Y-77330287D01*
X121569713Y-77424307D01*
X121680268Y-77498177D01*
X121803110Y-77549060D01*
X121933518Y-77575000D01*
X122066482Y-77575000D01*
X122196890Y-77549060D01*
X122319732Y-77498177D01*
X122430287Y-77424307D01*
X122524307Y-77330287D01*
X122580454Y-77246256D01*
X138019393Y-77246256D01*
X138035437Y-77516632D01*
X138103919Y-77778682D01*
X138222210Y-78022337D01*
X138281926Y-78111711D01*
X138488962Y-78210331D01*
X139399293Y-77300000D01*
X139400707Y-77300000D01*
X140311038Y-78210331D01*
X140518074Y-78111711D01*
X140654948Y-77877988D01*
X140743594Y-77622054D01*
X140780607Y-77353744D01*
X140774229Y-77246256D01*
X144519393Y-77246256D01*
X144535437Y-77516632D01*
X144603919Y-77778682D01*
X144722210Y-78022337D01*
X144781926Y-78111711D01*
X144988962Y-78210331D01*
X145899293Y-77300000D01*
X145900707Y-77300000D01*
X146811038Y-78210331D01*
X147018074Y-78111711D01*
X147154948Y-77877988D01*
X147243594Y-77622054D01*
X147280607Y-77353744D01*
X147264563Y-77083368D01*
X147196081Y-76821318D01*
X147077790Y-76577663D01*
X147018074Y-76488289D01*
X146811038Y-76389669D01*
X145900707Y-77300000D01*
X145899293Y-77300000D01*
X144988962Y-76389669D01*
X144781926Y-76488289D01*
X144645052Y-76722012D01*
X144556406Y-76977946D01*
X144519393Y-77246256D01*
X140774229Y-77246256D01*
X140764563Y-77083368D01*
X140696081Y-76821318D01*
X140577790Y-76577663D01*
X140518074Y-76488289D01*
X140311038Y-76389669D01*
X139400707Y-77300000D01*
X139399293Y-77300000D01*
X138488962Y-76389669D01*
X138281926Y-76488289D01*
X138145052Y-76722012D01*
X138056406Y-76977946D01*
X138019393Y-77246256D01*
X122580454Y-77246256D01*
X122598177Y-77219732D01*
X122649060Y-77096890D01*
X122675000Y-76966482D01*
X122675000Y-76833518D01*
X122649060Y-76703110D01*
X122598177Y-76580268D01*
X122524307Y-76469713D01*
X122475000Y-76420406D01*
X122475000Y-76388962D01*
X138489669Y-76388962D01*
X139400000Y-77299293D01*
X140310331Y-76388962D01*
X144989669Y-76388962D01*
X145900000Y-77299293D01*
X146810331Y-76388962D01*
X146711711Y-76181926D01*
X146477988Y-76045052D01*
X146222054Y-75956406D01*
X145953744Y-75919393D01*
X145683368Y-75935437D01*
X145421318Y-76003919D01*
X145177663Y-76122210D01*
X145088289Y-76181926D01*
X144989669Y-76388962D01*
X140310331Y-76388962D01*
X140211711Y-76181926D01*
X139977988Y-76045052D01*
X139722054Y-75956406D01*
X139453744Y-75919393D01*
X139183368Y-75935437D01*
X138921318Y-76003919D01*
X138677663Y-76122210D01*
X138588289Y-76181926D01*
X138489669Y-76388962D01*
X122475000Y-76388962D01*
X122475000Y-72664574D01*
X138025000Y-72664574D01*
X138025000Y-72935426D01*
X138077841Y-73201073D01*
X138181491Y-73451307D01*
X138331968Y-73676511D01*
X138523489Y-73868032D01*
X138748693Y-74018509D01*
X138998927Y-74122159D01*
X139264574Y-74175000D01*
X139535426Y-74175000D01*
X139801073Y-74122159D01*
X140051307Y-74018509D01*
X140276511Y-73868032D01*
X140468032Y-73676511D01*
X140618509Y-73451307D01*
X140722159Y-73201073D01*
X140775000Y-72935426D01*
X140775000Y-72664574D01*
X144525000Y-72664574D01*
X144525000Y-72935426D01*
X144577841Y-73201073D01*
X144681491Y-73451307D01*
X144831968Y-73676511D01*
X145023489Y-73868032D01*
X145248693Y-74018509D01*
X145498927Y-74122159D01*
X145764574Y-74175000D01*
X146035426Y-74175000D01*
X146301073Y-74122159D01*
X146551307Y-74018509D01*
X146776511Y-73868032D01*
X146968032Y-73676511D01*
X147118509Y-73451307D01*
X147222159Y-73201073D01*
X147275000Y-72935426D01*
X147275000Y-72664574D01*
X147222159Y-72398927D01*
X147118509Y-72148693D01*
X146968032Y-71923489D01*
X146776511Y-71731968D01*
X146551307Y-71581491D01*
X146301073Y-71477841D01*
X146035426Y-71425000D01*
X145764574Y-71425000D01*
X145498927Y-71477841D01*
X145248693Y-71581491D01*
X145023489Y-71731968D01*
X144831968Y-71923489D01*
X144681491Y-72148693D01*
X144577841Y-72398927D01*
X144525000Y-72664574D01*
X140775000Y-72664574D01*
X140722159Y-72398927D01*
X140618509Y-72148693D01*
X140468032Y-71923489D01*
X140276511Y-71731968D01*
X140051307Y-71581491D01*
X139801073Y-71477841D01*
X139535426Y-71425000D01*
X139264574Y-71425000D01*
X138998927Y-71477841D01*
X138748693Y-71581491D01*
X138523489Y-71731968D01*
X138331968Y-71923489D01*
X138181491Y-72148693D01*
X138077841Y-72398927D01*
X138025000Y-72664574D01*
X122475000Y-72664574D01*
X122475000Y-70279594D01*
X122524307Y-70230287D01*
X122598177Y-70119732D01*
X122649060Y-69996890D01*
X122675000Y-69866482D01*
X122675000Y-69733518D01*
X122649060Y-69603110D01*
X122598177Y-69480268D01*
X122524307Y-69369713D01*
X122430287Y-69275693D01*
X122319732Y-69201823D01*
X122196890Y-69150940D01*
X122066482Y-69125000D01*
X121933518Y-69125000D01*
X121803110Y-69150940D01*
X121680268Y-69201823D01*
X121569713Y-69275693D01*
X121475693Y-69369713D01*
X121401823Y-69480268D01*
X121350940Y-69603110D01*
X121325000Y-69733518D01*
X113621082Y-69733518D01*
X113624313Y-69730287D01*
X113698183Y-69619732D01*
X113749066Y-69496890D01*
X113775006Y-69366482D01*
X113775006Y-69233518D01*
X113749066Y-69103110D01*
X113698183Y-68980268D01*
X113624313Y-68869713D01*
X113575006Y-68820406D01*
X113575006Y-67164574D01*
X138025000Y-67164574D01*
X138025000Y-67435426D01*
X138077841Y-67701073D01*
X138181491Y-67951307D01*
X138331968Y-68176511D01*
X138523489Y-68368032D01*
X138748693Y-68518509D01*
X138998927Y-68622159D01*
X139264574Y-68675000D01*
X139535426Y-68675000D01*
X139801073Y-68622159D01*
X140051307Y-68518509D01*
X140276511Y-68368032D01*
X140468032Y-68176511D01*
X140618509Y-67951307D01*
X140722159Y-67701073D01*
X140775000Y-67435426D01*
X140775000Y-67164574D01*
X144525000Y-67164574D01*
X144525000Y-67435426D01*
X144577841Y-67701073D01*
X144681491Y-67951307D01*
X144831968Y-68176511D01*
X145023489Y-68368032D01*
X145248693Y-68518509D01*
X145498927Y-68622159D01*
X145764574Y-68675000D01*
X146035426Y-68675000D01*
X146301073Y-68622159D01*
X146551307Y-68518509D01*
X146776511Y-68368032D01*
X146968032Y-68176511D01*
X147118509Y-67951307D01*
X147222159Y-67701073D01*
X147275000Y-67435426D01*
X147275000Y-67164574D01*
X147222159Y-66898927D01*
X147118509Y-66648693D01*
X146968032Y-66423489D01*
X146776511Y-66231968D01*
X146551307Y-66081491D01*
X146301073Y-65977841D01*
X146035426Y-65925000D01*
X145764574Y-65925000D01*
X145498927Y-65977841D01*
X145248693Y-66081491D01*
X145023489Y-66231968D01*
X144831968Y-66423489D01*
X144681491Y-66648693D01*
X144577841Y-66898927D01*
X144525000Y-67164574D01*
X140775000Y-67164574D01*
X140722159Y-66898927D01*
X140618509Y-66648693D01*
X140468032Y-66423489D01*
X140276511Y-66231968D01*
X140051307Y-66081491D01*
X139801073Y-65977841D01*
X139535426Y-65925000D01*
X139264574Y-65925000D01*
X138998927Y-65977841D01*
X138748693Y-66081491D01*
X138523489Y-66231968D01*
X138331968Y-66423489D01*
X138181491Y-66648693D01*
X138077841Y-66898927D01*
X138025000Y-67164574D01*
X113575006Y-67164574D01*
X113575006Y-65646744D01*
X115096752Y-64125000D01*
X115166482Y-64125000D01*
X115296890Y-64099060D01*
X115419732Y-64048177D01*
X115530287Y-63974307D01*
X115624307Y-63880287D01*
X115698177Y-63769732D01*
X115722488Y-63711038D01*
X138489669Y-63711038D01*
X138588289Y-63918074D01*
X138822012Y-64054948D01*
X139077946Y-64143594D01*
X139346256Y-64180607D01*
X139616632Y-64164563D01*
X139878682Y-64096081D01*
X140122337Y-63977790D01*
X140211711Y-63918074D01*
X140310331Y-63711038D01*
X144989669Y-63711038D01*
X145088289Y-63918074D01*
X145322012Y-64054948D01*
X145577946Y-64143594D01*
X145846256Y-64180607D01*
X146116632Y-64164563D01*
X146378682Y-64096081D01*
X146622337Y-63977790D01*
X146711711Y-63918074D01*
X146810331Y-63711038D01*
X145900000Y-62800707D01*
X144989669Y-63711038D01*
X140310331Y-63711038D01*
X139400000Y-62800707D01*
X138489669Y-63711038D01*
X115722488Y-63711038D01*
X115749060Y-63646890D01*
X115775000Y-63516482D01*
X115775000Y-63383518D01*
X115749060Y-63253110D01*
X115698177Y-63130268D01*
X115624307Y-63019713D01*
X115530287Y-62925693D01*
X115419732Y-62851823D01*
X115296890Y-62800940D01*
X115166482Y-62775000D01*
X115033518Y-62775000D01*
X114903110Y-62800940D01*
X114780268Y-62851823D01*
X114669713Y-62925693D01*
X114575693Y-63019713D01*
X114501823Y-63130268D01*
X114450940Y-63253110D01*
X114425000Y-63383518D01*
X114425000Y-63453248D01*
X112780640Y-65097610D01*
X112762505Y-65112493D01*
X112703147Y-65184821D01*
X112659040Y-65267341D01*
X112640118Y-65329717D01*
X112631879Y-65356878D01*
X112622708Y-65449994D01*
X112625006Y-65473326D01*
X112625007Y-68820405D01*
X112575699Y-68869713D01*
X112501829Y-68980268D01*
X112450946Y-69103110D01*
X112425006Y-69233518D01*
X75361664Y-69233518D01*
X75375000Y-69166476D01*
X75375000Y-69033512D01*
X75349060Y-68903104D01*
X75298177Y-68780262D01*
X75224307Y-68669707D01*
X75175000Y-68620400D01*
X75175000Y-67223332D01*
X75177298Y-67200000D01*
X75168127Y-67106884D01*
X75140966Y-67017346D01*
X75096859Y-66934827D01*
X75052374Y-66880622D01*
X75037501Y-66862499D01*
X75019377Y-66847625D01*
X74375000Y-66203249D01*
X74375000Y-66133518D01*
X74349060Y-66003110D01*
X74298177Y-65880268D01*
X74224307Y-65769713D01*
X74130287Y-65675693D01*
X74019732Y-65601823D01*
X73896890Y-65550940D01*
X73766482Y-65525000D01*
X73633518Y-65525000D01*
X73503110Y-65550940D01*
X73380268Y-65601823D01*
X73269713Y-65675693D01*
X73175693Y-65769713D01*
X73101823Y-65880268D01*
X73050940Y-66003110D01*
X73025000Y-66133518D01*
X52450000Y-66133518D01*
X52450000Y-60692126D01*
X58850160Y-60692126D01*
X58910889Y-60924462D01*
X59015777Y-61140487D01*
X59160794Y-61331898D01*
X59340367Y-61491340D01*
X59547595Y-61612685D01*
X59774515Y-61691270D01*
X59867874Y-61709840D01*
X60059500Y-61631250D01*
X60059500Y-60500500D01*
X60060500Y-60500500D01*
X60060500Y-61631250D01*
X60252126Y-61709840D01*
X60345485Y-61691270D01*
X60572405Y-61612685D01*
X60779633Y-61491340D01*
X60959206Y-61331898D01*
X61104223Y-61140487D01*
X61209111Y-60924462D01*
X61269840Y-60692126D01*
X61191250Y-60500500D01*
X60060500Y-60500500D01*
X60059500Y-60500500D01*
X58928750Y-60500500D01*
X58850160Y-60692126D01*
X52450000Y-60692126D01*
X52450000Y-60307874D01*
X58850160Y-60307874D01*
X58928750Y-60499500D01*
X60059500Y-60499500D01*
X60059500Y-59368750D01*
X60060500Y-59368750D01*
X60060500Y-60499500D01*
X61191250Y-60499500D01*
X61240526Y-60379348D01*
X61375000Y-60379348D01*
X61375000Y-60620652D01*
X61422076Y-60857319D01*
X61514419Y-61080255D01*
X61648481Y-61280892D01*
X61819108Y-61451519D01*
X62019745Y-61585581D01*
X62242681Y-61677924D01*
X62479348Y-61725000D01*
X62720652Y-61725000D01*
X62957319Y-61677924D01*
X63180255Y-61585581D01*
X63380892Y-61451519D01*
X63551519Y-61280892D01*
X63685581Y-61080255D01*
X63777924Y-60857319D01*
X63825000Y-60620652D01*
X63825000Y-60379348D01*
X63777924Y-60142681D01*
X63685581Y-59919745D01*
X63551519Y-59719108D01*
X63380892Y-59548481D01*
X63180255Y-59414419D01*
X62984943Y-59333518D01*
X106425000Y-59333518D01*
X106425000Y-59466482D01*
X106450940Y-59596890D01*
X106501823Y-59719732D01*
X106575693Y-59830287D01*
X106625001Y-59879595D01*
X106625000Y-63220406D01*
X106575693Y-63269713D01*
X106501823Y-63380268D01*
X106450940Y-63503110D01*
X106425000Y-63633518D01*
X106425000Y-63766482D01*
X106450940Y-63896890D01*
X106501823Y-64019732D01*
X106575693Y-64130287D01*
X106669713Y-64224307D01*
X106780268Y-64298177D01*
X106903110Y-64349060D01*
X107033518Y-64375000D01*
X107166482Y-64375000D01*
X107296890Y-64349060D01*
X107419732Y-64298177D01*
X107530287Y-64224307D01*
X107624307Y-64130287D01*
X107698177Y-64019732D01*
X107749060Y-63896890D01*
X107775000Y-63766482D01*
X107775000Y-63633518D01*
X107749060Y-63503110D01*
X107698177Y-63380268D01*
X107624307Y-63269713D01*
X107575000Y-63220406D01*
X107575000Y-62746256D01*
X138019393Y-62746256D01*
X138035437Y-63016632D01*
X138103919Y-63278682D01*
X138222210Y-63522337D01*
X138281926Y-63611711D01*
X138488962Y-63710331D01*
X139399293Y-62800000D01*
X139400707Y-62800000D01*
X140311038Y-63710331D01*
X140518074Y-63611711D01*
X140654948Y-63377988D01*
X140743594Y-63122054D01*
X140780607Y-62853744D01*
X140774229Y-62746256D01*
X144519393Y-62746256D01*
X144535437Y-63016632D01*
X144603919Y-63278682D01*
X144722210Y-63522337D01*
X144781926Y-63611711D01*
X144988962Y-63710331D01*
X145899293Y-62800000D01*
X145900707Y-62800000D01*
X146811038Y-63710331D01*
X147018074Y-63611711D01*
X147154948Y-63377988D01*
X147243594Y-63122054D01*
X147280607Y-62853744D01*
X147264563Y-62583368D01*
X147196081Y-62321318D01*
X147077790Y-62077663D01*
X147018074Y-61988289D01*
X146811038Y-61889669D01*
X145900707Y-62800000D01*
X145899293Y-62800000D01*
X144988962Y-61889669D01*
X144781926Y-61988289D01*
X144645052Y-62222012D01*
X144556406Y-62477946D01*
X144519393Y-62746256D01*
X140774229Y-62746256D01*
X140764563Y-62583368D01*
X140696081Y-62321318D01*
X140577790Y-62077663D01*
X140518074Y-61988289D01*
X140311038Y-61889669D01*
X139400707Y-62800000D01*
X139399293Y-62800000D01*
X138488962Y-61889669D01*
X138281926Y-61988289D01*
X138145052Y-62222012D01*
X138056406Y-62477946D01*
X138019393Y-62746256D01*
X107575000Y-62746256D01*
X107575000Y-59879594D01*
X107624307Y-59830287D01*
X107698177Y-59719732D01*
X107749060Y-59596890D01*
X107761665Y-59533518D01*
X110425000Y-59533518D01*
X110425000Y-59666482D01*
X110450940Y-59796890D01*
X110501823Y-59919732D01*
X110575693Y-60030287D01*
X110669713Y-60124307D01*
X110780268Y-60198177D01*
X110903110Y-60249060D01*
X111033518Y-60275000D01*
X111103250Y-60275000D01*
X113147625Y-62319377D01*
X113162499Y-62337501D01*
X113180622Y-62352374D01*
X113234827Y-62396859D01*
X113317346Y-62440966D01*
X113406884Y-62468127D01*
X113500000Y-62477298D01*
X113523332Y-62475000D01*
X115520406Y-62475000D01*
X115569713Y-62524307D01*
X115680268Y-62598177D01*
X115803110Y-62649060D01*
X115933518Y-62675000D01*
X116066482Y-62675000D01*
X116196890Y-62649060D01*
X116319732Y-62598177D01*
X116430287Y-62524307D01*
X116524307Y-62430287D01*
X116598177Y-62319732D01*
X116649060Y-62196890D01*
X116675000Y-62066482D01*
X116675000Y-61933518D01*
X116649060Y-61803110D01*
X116598177Y-61680268D01*
X116541884Y-61596018D01*
X128062500Y-61596018D01*
X128062500Y-61728982D01*
X128088440Y-61859390D01*
X128139323Y-61982232D01*
X128213193Y-62092787D01*
X128307213Y-62186807D01*
X128417768Y-62260677D01*
X128540610Y-62311560D01*
X128671018Y-62337500D01*
X128803982Y-62337500D01*
X128934390Y-62311560D01*
X129057232Y-62260677D01*
X129167787Y-62186807D01*
X129261807Y-62092787D01*
X129335677Y-61982232D01*
X129374310Y-61888962D01*
X138489669Y-61888962D01*
X139400000Y-62799293D01*
X140310331Y-61888962D01*
X144989669Y-61888962D01*
X145900000Y-62799293D01*
X146810331Y-61888962D01*
X146711711Y-61681926D01*
X146477988Y-61545052D01*
X146222054Y-61456406D01*
X145953744Y-61419393D01*
X145683368Y-61435437D01*
X145421318Y-61503919D01*
X145177663Y-61622210D01*
X145088289Y-61681926D01*
X144989669Y-61888962D01*
X140310331Y-61888962D01*
X140211711Y-61681926D01*
X139977988Y-61545052D01*
X139722054Y-61456406D01*
X139453744Y-61419393D01*
X139183368Y-61435437D01*
X138921318Y-61503919D01*
X138677663Y-61622210D01*
X138588289Y-61681926D01*
X138489669Y-61888962D01*
X129374310Y-61888962D01*
X129386560Y-61859390D01*
X129412500Y-61728982D01*
X129412500Y-61596018D01*
X129386560Y-61465610D01*
X129335677Y-61342768D01*
X129261807Y-61232213D01*
X129212500Y-61182906D01*
X129212500Y-60435911D01*
X129240966Y-60382654D01*
X129268127Y-60293116D01*
X129275000Y-60223332D01*
X129277298Y-60200001D01*
X129275000Y-60176669D01*
X129275000Y-58979594D01*
X129324307Y-58930287D01*
X129398177Y-58819732D01*
X129449060Y-58696890D01*
X129475000Y-58566482D01*
X129475000Y-58433518D01*
X129449060Y-58303110D01*
X129398177Y-58180268D01*
X129324307Y-58069713D01*
X129230287Y-57975693D01*
X129119732Y-57901823D01*
X128996890Y-57850940D01*
X128866482Y-57825000D01*
X128733518Y-57825000D01*
X128603110Y-57850940D01*
X128480268Y-57901823D01*
X128369713Y-57975693D01*
X128275693Y-58069713D01*
X128201823Y-58180268D01*
X128150940Y-58303110D01*
X128125000Y-58433518D01*
X128125000Y-58566482D01*
X128150940Y-58696890D01*
X128201823Y-58819732D01*
X128275693Y-58930287D01*
X128325000Y-58979594D01*
X128325001Y-60026588D01*
X128296534Y-60079847D01*
X128283047Y-60124307D01*
X128269373Y-60169384D01*
X128260202Y-60262500D01*
X128262500Y-60285833D01*
X128262501Y-61182905D01*
X128213193Y-61232213D01*
X128139323Y-61342768D01*
X128088440Y-61465610D01*
X128062500Y-61596018D01*
X116541884Y-61596018D01*
X116524307Y-61569713D01*
X116430287Y-61475693D01*
X116319732Y-61401823D01*
X116196890Y-61350940D01*
X116066482Y-61325000D01*
X115933518Y-61325000D01*
X115803110Y-61350940D01*
X115680268Y-61401823D01*
X115569713Y-61475693D01*
X115520406Y-61525000D01*
X113696752Y-61525000D01*
X111775000Y-59603250D01*
X111775000Y-59533518D01*
X111749060Y-59403110D01*
X111698177Y-59280268D01*
X111624307Y-59169713D01*
X111530287Y-59075693D01*
X111419732Y-59001823D01*
X111296890Y-58950940D01*
X111166482Y-58925000D01*
X111033518Y-58925000D01*
X110903110Y-58950940D01*
X110780268Y-59001823D01*
X110669713Y-59075693D01*
X110575693Y-59169713D01*
X110501823Y-59280268D01*
X110450940Y-59403110D01*
X110425000Y-59533518D01*
X107761665Y-59533518D01*
X107775000Y-59466482D01*
X107775000Y-59333518D01*
X107749060Y-59203110D01*
X107698177Y-59080268D01*
X107624307Y-58969713D01*
X107530287Y-58875693D01*
X107419732Y-58801823D01*
X107296890Y-58750940D01*
X107166482Y-58725000D01*
X107033518Y-58725000D01*
X106903110Y-58750940D01*
X106780268Y-58801823D01*
X106669713Y-58875693D01*
X106575693Y-58969713D01*
X106501823Y-59080268D01*
X106450940Y-59203110D01*
X106425000Y-59333518D01*
X62984943Y-59333518D01*
X62957319Y-59322076D01*
X62720652Y-59275000D01*
X62479348Y-59275000D01*
X62242681Y-59322076D01*
X62019745Y-59414419D01*
X61819108Y-59548481D01*
X61648481Y-59719108D01*
X61514419Y-59919745D01*
X61422076Y-60142681D01*
X61375000Y-60379348D01*
X61240526Y-60379348D01*
X61269840Y-60307874D01*
X61209111Y-60075538D01*
X61104223Y-59859513D01*
X60959206Y-59668102D01*
X60779633Y-59508660D01*
X60572405Y-59387315D01*
X60345485Y-59308730D01*
X60252126Y-59290160D01*
X60060500Y-59368750D01*
X60059500Y-59368750D01*
X59867874Y-59290160D01*
X59774515Y-59308730D01*
X59547595Y-59387315D01*
X59340367Y-59508660D01*
X59160794Y-59668102D01*
X59015777Y-59859513D01*
X58910889Y-60075538D01*
X58850160Y-60307874D01*
X52450000Y-60307874D01*
X52450000Y-56679348D01*
X58835000Y-56679348D01*
X58835000Y-56920652D01*
X58882076Y-57157319D01*
X58974419Y-57380255D01*
X59108481Y-57580892D01*
X59279108Y-57751519D01*
X59479745Y-57885581D01*
X59702681Y-57977924D01*
X59939348Y-58025000D01*
X60180652Y-58025000D01*
X60417319Y-57977924D01*
X60640255Y-57885581D01*
X60840892Y-57751519D01*
X61011519Y-57580892D01*
X61145581Y-57380255D01*
X61237924Y-57157319D01*
X61285000Y-56920652D01*
X61285000Y-56679348D01*
X61375000Y-56679348D01*
X61375000Y-56920652D01*
X61422076Y-57157319D01*
X61514419Y-57380255D01*
X61648481Y-57580892D01*
X61819108Y-57751519D01*
X62019745Y-57885581D01*
X62242681Y-57977924D01*
X62479348Y-58025000D01*
X62720652Y-58025000D01*
X62957319Y-57977924D01*
X63180255Y-57885581D01*
X63380892Y-57751519D01*
X63551519Y-57580892D01*
X63685581Y-57380255D01*
X63777924Y-57157319D01*
X63825000Y-56920652D01*
X63825000Y-56679348D01*
X63777924Y-56442681D01*
X63685581Y-56219745D01*
X63551519Y-56019108D01*
X63380892Y-55848481D01*
X63180255Y-55714419D01*
X62957319Y-55622076D01*
X62720652Y-55575000D01*
X62479348Y-55575000D01*
X62242681Y-55622076D01*
X62019745Y-55714419D01*
X61819108Y-55848481D01*
X61648481Y-56019108D01*
X61514419Y-56219745D01*
X61422076Y-56442681D01*
X61375000Y-56679348D01*
X61285000Y-56679348D01*
X61237924Y-56442681D01*
X61145581Y-56219745D01*
X61011519Y-56019108D01*
X60840892Y-55848481D01*
X60640255Y-55714419D01*
X60417319Y-55622076D01*
X60180652Y-55575000D01*
X59939348Y-55575000D01*
X59702681Y-55622076D01*
X59479745Y-55714419D01*
X59279108Y-55848481D01*
X59108481Y-56019108D01*
X58974419Y-56219745D01*
X58882076Y-56442681D01*
X58835000Y-56679348D01*
X52450000Y-56679348D01*
X52450000Y-53633518D01*
X65525000Y-53633518D01*
X65525000Y-53766482D01*
X65550940Y-53896890D01*
X65601823Y-54019732D01*
X65675693Y-54130287D01*
X65769713Y-54224307D01*
X65880268Y-54298177D01*
X66003110Y-54349060D01*
X66133518Y-54375000D01*
X66266482Y-54375000D01*
X66396890Y-54349060D01*
X66519732Y-54298177D01*
X66630287Y-54224307D01*
X66724307Y-54130287D01*
X66798177Y-54019732D01*
X66849060Y-53896890D01*
X66875000Y-53766482D01*
X66875000Y-53725000D01*
X69320406Y-53725000D01*
X69369713Y-53774307D01*
X69480268Y-53848177D01*
X69603110Y-53899060D01*
X69733518Y-53925000D01*
X69866482Y-53925000D01*
X69996890Y-53899060D01*
X70119732Y-53848177D01*
X70230287Y-53774307D01*
X70324307Y-53680287D01*
X70398177Y-53569732D01*
X70449060Y-53446890D01*
X70462495Y-53379348D01*
X94965000Y-53379348D01*
X94965000Y-53620652D01*
X95012076Y-53857319D01*
X95104419Y-54080255D01*
X95238481Y-54280892D01*
X95409108Y-54451519D01*
X95609745Y-54585581D01*
X95832681Y-54677924D01*
X96069348Y-54725000D01*
X96310652Y-54725000D01*
X96547319Y-54677924D01*
X96770255Y-54585581D01*
X96970892Y-54451519D01*
X97141519Y-54280892D01*
X97275581Y-54080255D01*
X97367924Y-53857319D01*
X97415000Y-53620652D01*
X97415000Y-53379348D01*
X97367924Y-53142681D01*
X97275581Y-52919745D01*
X97141519Y-52719108D01*
X96970892Y-52548481D01*
X96770255Y-52414419D01*
X96547319Y-52322076D01*
X96310652Y-52275000D01*
X96069348Y-52275000D01*
X95832681Y-52322076D01*
X95609745Y-52414419D01*
X95409108Y-52548481D01*
X95238481Y-52719108D01*
X95104419Y-52919745D01*
X95012076Y-53142681D01*
X94965000Y-53379348D01*
X70462495Y-53379348D01*
X70475000Y-53316482D01*
X70475000Y-53183518D01*
X70449060Y-53053110D01*
X70405656Y-52948323D01*
X70480268Y-52998177D01*
X70603110Y-53049060D01*
X70733518Y-53075000D01*
X70866482Y-53075000D01*
X70996890Y-53049060D01*
X71119732Y-52998177D01*
X71230287Y-52924307D01*
X71324307Y-52830287D01*
X71398177Y-52719732D01*
X71449060Y-52596890D01*
X71475000Y-52466482D01*
X71475000Y-52333518D01*
X71449060Y-52203110D01*
X71398177Y-52080268D01*
X71324307Y-51969713D01*
X71230287Y-51875693D01*
X71119732Y-51801823D01*
X70996890Y-51750940D01*
X70866482Y-51725000D01*
X70733518Y-51725000D01*
X70603110Y-51750940D01*
X70480268Y-51801823D01*
X70369713Y-51875693D01*
X70320406Y-51925000D01*
X67279594Y-51925000D01*
X67230287Y-51875693D01*
X67119732Y-51801823D01*
X66996890Y-51750940D01*
X66866482Y-51725000D01*
X66733518Y-51725000D01*
X66603110Y-51750940D01*
X66480268Y-51801823D01*
X66369713Y-51875693D01*
X66275693Y-51969713D01*
X66201823Y-52080268D01*
X66150940Y-52203110D01*
X66125000Y-52333518D01*
X66125000Y-52466482D01*
X66150940Y-52596890D01*
X66201823Y-52719732D01*
X66275693Y-52830287D01*
X66337438Y-52892032D01*
X66312499Y-52912499D01*
X66297620Y-52930629D01*
X66203249Y-53025000D01*
X66133518Y-53025000D01*
X66003110Y-53050940D01*
X65880268Y-53101823D01*
X65769713Y-53175693D01*
X65675693Y-53269713D01*
X65601823Y-53380268D01*
X65550940Y-53503110D01*
X65525000Y-53633518D01*
X52450000Y-53633518D01*
X52450000Y-53522005D01*
X52510203Y-52908007D01*
X52682131Y-52338554D01*
X52961388Y-51813350D01*
X53337339Y-51352387D01*
X53795668Y-50973224D01*
X54318916Y-50690306D01*
X54887143Y-50514410D01*
X55499935Y-50450003D01*
X55500703Y-50450000D01*
X68272105Y-50450000D01*
X68292636Y-50447978D01*
X68308238Y-50448087D01*
X68314491Y-50447474D01*
X68799733Y-50396473D01*
X68839692Y-50388270D01*
X68879748Y-50380629D01*
X68885763Y-50378813D01*
X69351857Y-50234533D01*
X69389460Y-50218726D01*
X69427272Y-50203449D01*
X69432820Y-50200500D01*
X69572454Y-50125000D01*
X76928661Y-50125000D01*
X77086062Y-50208692D01*
G37*
X77086062Y-50208692D02*
X77123777Y-50224237D01*
X77161257Y-50240301D01*
X77167260Y-50242159D01*
X77634349Y-50383182D01*
X77674415Y-50391115D01*
X77714253Y-50399583D01*
X77720500Y-50400240D01*
X77720502Y-50400240D01*
X78205433Y-50447788D01*
X78227895Y-50450000D01*
X95782686Y-50450000D01*
X95791113Y-50459763D01*
X96409740Y-51098136D01*
X96420458Y-51107387D01*
X96430041Y-51117809D01*
X96470303Y-51150413D01*
X97192199Y-51669148D01*
X97204387Y-51676355D01*
X97215663Y-51684915D01*
X97261063Y-51709873D01*
X98063410Y-52092573D01*
X98076679Y-52097508D01*
X98089295Y-52103936D01*
X98138397Y-52120461D01*
X98703296Y-52275000D01*
X98609348Y-52275000D01*
X98372681Y-52322076D01*
X98149745Y-52414419D01*
X97949108Y-52548481D01*
X97778481Y-52719108D01*
X97644419Y-52919745D01*
X97552076Y-53142681D01*
X97505000Y-53379348D01*
X97505000Y-53620652D01*
X97552076Y-53857319D01*
X97644419Y-54080255D01*
X97778481Y-54280892D01*
X97949108Y-54451519D01*
X98149745Y-54585581D01*
X98255001Y-54629179D01*
X98255001Y-55473248D01*
X97303250Y-56425000D01*
X97233518Y-56425000D01*
X97103110Y-56450940D01*
X96980268Y-56501823D01*
X96869713Y-56575693D01*
X96775693Y-56669713D01*
X96701823Y-56780268D01*
X96650940Y-56903110D01*
X96625000Y-57033518D01*
X96625000Y-57166482D01*
X96650940Y-57296890D01*
X96701823Y-57419732D01*
X96775693Y-57530287D01*
X96869713Y-57624307D01*
X96980268Y-57698177D01*
X97103110Y-57749060D01*
X97233518Y-57775000D01*
X97366482Y-57775000D01*
X97496890Y-57749060D01*
X97619732Y-57698177D01*
X97730287Y-57624307D01*
X97824307Y-57530287D01*
X97898177Y-57419732D01*
X97949060Y-57296890D01*
X97975000Y-57166482D01*
X97975000Y-57096750D01*
X99049371Y-56022380D01*
X99067501Y-56007501D01*
X99126859Y-55935173D01*
X99170966Y-55852654D01*
X99198127Y-55763116D01*
X99205000Y-55693332D01*
X99207298Y-55670001D01*
X99205000Y-55646669D01*
X99205000Y-54629179D01*
X99310255Y-54585581D01*
X99510892Y-54451519D01*
X99681519Y-54280892D01*
X99815581Y-54080255D01*
X99907924Y-53857319D01*
X99940782Y-53692126D01*
X100060160Y-53692126D01*
X100120889Y-53924462D01*
X100225777Y-54140487D01*
X100370794Y-54331898D01*
X100550367Y-54491340D01*
X100757595Y-54612685D01*
X100984515Y-54691270D01*
X101077874Y-54709840D01*
X101269500Y-54631250D01*
X101269500Y-53500500D01*
X101270500Y-53500500D01*
X101270500Y-54631250D01*
X101462126Y-54709840D01*
X101555485Y-54691270D01*
X101782405Y-54612685D01*
X101989633Y-54491340D01*
X102169206Y-54331898D01*
X102314223Y-54140487D01*
X102419111Y-53924462D01*
X102479840Y-53692126D01*
X102401250Y-53500500D01*
X101270500Y-53500500D01*
X101269500Y-53500500D01*
X100138750Y-53500500D01*
X100060160Y-53692126D01*
X99940782Y-53692126D01*
X99955000Y-53620652D01*
X99955000Y-53379348D01*
X99907924Y-53142681D01*
X99815581Y-52919745D01*
X99681519Y-52719108D01*
X99510892Y-52548481D01*
X99310255Y-52414419D01*
X99235819Y-52383587D01*
X99959997Y-52448218D01*
X99964694Y-52448218D01*
X100008364Y-52449922D01*
X100194208Y-52446467D01*
X100198880Y-52445962D01*
X100242478Y-52442967D01*
X100801784Y-52372012D01*
X100757595Y-52387315D01*
X100550367Y-52508660D01*
X100370794Y-52668102D01*
X100225777Y-52859513D01*
X100120889Y-53075538D01*
X100060160Y-53307874D01*
X100138750Y-53499500D01*
X101269500Y-53499500D01*
X101269500Y-53479500D01*
X101270500Y-53479500D01*
X101270500Y-53499500D01*
X102401250Y-53499500D01*
X102450526Y-53379348D01*
X102585000Y-53379348D01*
X102585000Y-53620652D01*
X102632076Y-53857319D01*
X102724419Y-54080255D01*
X102858481Y-54280892D01*
X103029108Y-54451519D01*
X103229745Y-54585581D01*
X103335001Y-54629179D01*
X103335001Y-55386658D01*
X103332702Y-55410000D01*
X103341873Y-55503116D01*
X103364999Y-55579348D01*
X103369035Y-55592654D01*
X103413142Y-55675173D01*
X103472500Y-55747501D01*
X103490629Y-55762379D01*
X104825000Y-57096751D01*
X104825000Y-57166482D01*
X104850940Y-57296890D01*
X104901823Y-57419732D01*
X104975693Y-57530287D01*
X105069713Y-57624307D01*
X105180268Y-57698177D01*
X105303110Y-57749060D01*
X105433518Y-57775000D01*
X105566482Y-57775000D01*
X105696890Y-57749060D01*
X105819732Y-57698177D01*
X105930287Y-57624307D01*
X106024307Y-57530287D01*
X106098177Y-57419732D01*
X106149060Y-57296890D01*
X106175000Y-57166482D01*
X106175000Y-57033518D01*
X106149060Y-56903110D01*
X106098177Y-56780268D01*
X106024307Y-56669713D01*
X105930287Y-56575693D01*
X105819732Y-56501823D01*
X105696890Y-56450940D01*
X105566482Y-56425000D01*
X105496751Y-56425000D01*
X104651099Y-55579348D01*
X135175000Y-55579348D01*
X135175000Y-55820652D01*
X135222076Y-56057319D01*
X135314419Y-56280255D01*
X135448481Y-56480892D01*
X135619108Y-56651519D01*
X135819745Y-56785581D01*
X136042681Y-56877924D01*
X136279348Y-56925000D01*
X136520652Y-56925000D01*
X136757319Y-56877924D01*
X136980255Y-56785581D01*
X137180892Y-56651519D01*
X137327952Y-56504459D01*
X145596248Y-56504459D01*
X145676884Y-56696135D01*
X145885115Y-56818067D01*
X146113132Y-56897033D01*
X146352174Y-56929998D01*
X146593054Y-56915694D01*
X146826514Y-56854671D01*
X147043584Y-56749276D01*
X147123116Y-56696135D01*
X147203752Y-56504459D01*
X146400000Y-55700707D01*
X145596248Y-56504459D01*
X137327952Y-56504459D01*
X137351519Y-56480892D01*
X137485581Y-56280255D01*
X137577924Y-56057319D01*
X137625000Y-55820652D01*
X137625000Y-55652174D01*
X145170002Y-55652174D01*
X145184306Y-55893054D01*
X145245329Y-56126514D01*
X145350724Y-56343584D01*
X145403865Y-56423116D01*
X145595541Y-56503752D01*
X146399293Y-55700000D01*
X145595541Y-54896248D01*
X145403865Y-54976884D01*
X145281933Y-55185115D01*
X145202967Y-55413132D01*
X145170002Y-55652174D01*
X137625000Y-55652174D01*
X137625000Y-55579348D01*
X137577924Y-55342681D01*
X137485581Y-55119745D01*
X137351519Y-54919108D01*
X137327952Y-54895541D01*
X145596248Y-54895541D01*
X146400000Y-55699293D01*
X147203752Y-54895541D01*
X147123116Y-54703865D01*
X146914885Y-54581933D01*
X146686868Y-54502967D01*
X146447826Y-54470002D01*
X146206946Y-54484306D01*
X145973486Y-54545329D01*
X145756416Y-54650724D01*
X145676884Y-54703865D01*
X145596248Y-54895541D01*
X137327952Y-54895541D01*
X137180892Y-54748481D01*
X136980255Y-54614419D01*
X136757319Y-54522076D01*
X136520652Y-54475000D01*
X136279348Y-54475000D01*
X136042681Y-54522076D01*
X135819745Y-54614419D01*
X135619108Y-54748481D01*
X135448481Y-54919108D01*
X135314419Y-55119745D01*
X135222076Y-55342681D01*
X135175000Y-55579348D01*
X104651099Y-55579348D01*
X104285000Y-55213250D01*
X104285000Y-54629179D01*
X104390255Y-54585581D01*
X104590892Y-54451519D01*
X104761519Y-54280892D01*
X104895581Y-54080255D01*
X104987924Y-53857319D01*
X105035000Y-53620652D01*
X105035000Y-53379348D01*
X104987924Y-53142681D01*
X104895581Y-52919745D01*
X104761519Y-52719108D01*
X104590892Y-52548481D01*
X104390255Y-52414419D01*
X104167319Y-52322076D01*
X103952511Y-52279348D01*
X106575000Y-52279348D01*
X106575000Y-52520652D01*
X106622076Y-52757319D01*
X106714419Y-52980255D01*
X106848481Y-53180892D01*
X107019108Y-53351519D01*
X107219745Y-53485581D01*
X107442681Y-53577924D01*
X107679348Y-53625000D01*
X107920652Y-53625000D01*
X108157319Y-53577924D01*
X108380255Y-53485581D01*
X108580892Y-53351519D01*
X108751519Y-53180892D01*
X108885581Y-52980255D01*
X108977924Y-52757319D01*
X109025000Y-52520652D01*
X109025000Y-52279348D01*
X109115000Y-52279348D01*
X109115000Y-52520652D01*
X109162076Y-52757319D01*
X109254419Y-52980255D01*
X109388481Y-53180892D01*
X109559108Y-53351519D01*
X109759745Y-53485581D01*
X109982681Y-53577924D01*
X110219348Y-53625000D01*
X110460652Y-53625000D01*
X110697319Y-53577924D01*
X110920255Y-53485581D01*
X111120892Y-53351519D01*
X111291519Y-53180892D01*
X111425581Y-52980255D01*
X111517924Y-52757319D01*
X111565000Y-52520652D01*
X111565000Y-52279348D01*
X111655000Y-52279348D01*
X111655000Y-52520652D01*
X111702076Y-52757319D01*
X111794419Y-52980255D01*
X111928481Y-53180892D01*
X112099108Y-53351519D01*
X112299745Y-53485581D01*
X112522681Y-53577924D01*
X112759348Y-53625000D01*
X113000652Y-53625000D01*
X113237319Y-53577924D01*
X113460255Y-53485581D01*
X113660892Y-53351519D01*
X113831519Y-53180892D01*
X113965581Y-52980255D01*
X114057924Y-52757319D01*
X114105000Y-52520652D01*
X114105000Y-52279348D01*
X114195000Y-52279348D01*
X114195000Y-52520652D01*
X114242076Y-52757319D01*
X114334419Y-52980255D01*
X114468481Y-53180892D01*
X114639108Y-53351519D01*
X114839745Y-53485581D01*
X115062681Y-53577924D01*
X115299348Y-53625000D01*
X115540652Y-53625000D01*
X115777319Y-53577924D01*
X116000255Y-53485581D01*
X116200892Y-53351519D01*
X116371519Y-53180892D01*
X116505581Y-52980255D01*
X116597924Y-52757319D01*
X116630782Y-52592126D01*
X116750160Y-52592126D01*
X116810889Y-52824462D01*
X116915777Y-53040487D01*
X117060794Y-53231898D01*
X117240367Y-53391340D01*
X117447595Y-53512685D01*
X117674515Y-53591270D01*
X117767874Y-53609840D01*
X117959500Y-53531250D01*
X117959500Y-52400500D01*
X117960500Y-52400500D01*
X117960500Y-53531250D01*
X118152126Y-53609840D01*
X118245485Y-53591270D01*
X118472405Y-53512685D01*
X118679633Y-53391340D01*
X118859206Y-53231898D01*
X119004223Y-53040487D01*
X119109111Y-52824462D01*
X119169840Y-52592126D01*
X120330160Y-52592126D01*
X120390889Y-52824462D01*
X120495777Y-53040487D01*
X120640794Y-53231898D01*
X120820367Y-53391340D01*
X121027595Y-53512685D01*
X121254515Y-53591270D01*
X121347874Y-53609840D01*
X121539500Y-53531250D01*
X121539500Y-52400500D01*
X121540500Y-52400500D01*
X121540500Y-53531250D01*
X121732126Y-53609840D01*
X121825485Y-53591270D01*
X122052405Y-53512685D01*
X122259633Y-53391340D01*
X122439206Y-53231898D01*
X122584223Y-53040487D01*
X122689111Y-52824462D01*
X122749840Y-52592126D01*
X122870160Y-52592126D01*
X122930889Y-52824462D01*
X123035777Y-53040487D01*
X123180794Y-53231898D01*
X123360367Y-53391340D01*
X123567595Y-53512685D01*
X123794515Y-53591270D01*
X123887874Y-53609840D01*
X124079500Y-53531250D01*
X124079500Y-52400500D01*
X124080500Y-52400500D01*
X124080500Y-53531250D01*
X124272126Y-53609840D01*
X124365485Y-53591270D01*
X124592405Y-53512685D01*
X124799633Y-53391340D01*
X124979206Y-53231898D01*
X125124223Y-53040487D01*
X125229111Y-52824462D01*
X125289840Y-52592126D01*
X125211250Y-52400500D01*
X124080500Y-52400500D01*
X124079500Y-52400500D01*
X122948750Y-52400500D01*
X122870160Y-52592126D01*
X122749840Y-52592126D01*
X122671250Y-52400500D01*
X121540500Y-52400500D01*
X121539500Y-52400500D01*
X120408750Y-52400500D01*
X120330160Y-52592126D01*
X119169840Y-52592126D01*
X119091250Y-52400500D01*
X117960500Y-52400500D01*
X117959500Y-52400500D01*
X116828750Y-52400500D01*
X116750160Y-52592126D01*
X116630782Y-52592126D01*
X116645000Y-52520652D01*
X116645000Y-52279348D01*
X116630783Y-52207874D01*
X116750160Y-52207874D01*
X116828750Y-52399500D01*
X117959500Y-52399500D01*
X117959500Y-51268750D01*
X117960500Y-51268750D01*
X117960500Y-52399500D01*
X119091250Y-52399500D01*
X119169840Y-52207874D01*
X120330160Y-52207874D01*
X120408750Y-52399500D01*
X121539500Y-52399500D01*
X121539500Y-51268750D01*
X121540500Y-51268750D01*
X121540500Y-52399500D01*
X122671250Y-52399500D01*
X122749840Y-52207874D01*
X122870160Y-52207874D01*
X122948750Y-52399500D01*
X124079500Y-52399500D01*
X124079500Y-51268750D01*
X124080500Y-51268750D01*
X124080500Y-52399500D01*
X125211250Y-52399500D01*
X125260526Y-52279348D01*
X125395000Y-52279348D01*
X125395000Y-52520652D01*
X125442076Y-52757319D01*
X125534419Y-52980255D01*
X125668481Y-53180892D01*
X125839108Y-53351519D01*
X126039745Y-53485581D01*
X126262681Y-53577924D01*
X126499348Y-53625000D01*
X126740652Y-53625000D01*
X126977319Y-53577924D01*
X127200255Y-53485581D01*
X127400892Y-53351519D01*
X127571519Y-53180892D01*
X127705581Y-52980255D01*
X127797924Y-52757319D01*
X127845000Y-52520652D01*
X127845000Y-52279348D01*
X127935000Y-52279348D01*
X127935000Y-52520652D01*
X127982076Y-52757319D01*
X128074419Y-52980255D01*
X128208481Y-53180892D01*
X128379108Y-53351519D01*
X128579745Y-53485581D01*
X128802681Y-53577924D01*
X129039348Y-53625000D01*
X129280652Y-53625000D01*
X129517319Y-53577924D01*
X129740255Y-53485581D01*
X129940892Y-53351519D01*
X130111519Y-53180892D01*
X130245581Y-52980255D01*
X130337924Y-52757319D01*
X130385000Y-52520652D01*
X130385000Y-52279348D01*
X130475000Y-52279348D01*
X130475000Y-52520652D01*
X130522076Y-52757319D01*
X130614419Y-52980255D01*
X130748481Y-53180892D01*
X130919108Y-53351519D01*
X131119745Y-53485581D01*
X131342681Y-53577924D01*
X131579348Y-53625000D01*
X131820652Y-53625000D01*
X132057319Y-53577924D01*
X132280255Y-53485581D01*
X132480892Y-53351519D01*
X132651519Y-53180892D01*
X132785581Y-52980255D01*
X132877924Y-52757319D01*
X132925000Y-52520652D01*
X132925000Y-52279348D01*
X132877924Y-52042681D01*
X132785581Y-51819745D01*
X132651519Y-51619108D01*
X132480892Y-51448481D01*
X132280255Y-51314419D01*
X132057319Y-51222076D01*
X131820652Y-51175000D01*
X131579348Y-51175000D01*
X131342681Y-51222076D01*
X131119745Y-51314419D01*
X130919108Y-51448481D01*
X130748481Y-51619108D01*
X130614419Y-51819745D01*
X130522076Y-52042681D01*
X130475000Y-52279348D01*
X130385000Y-52279348D01*
X130337924Y-52042681D01*
X130245581Y-51819745D01*
X130111519Y-51619108D01*
X129940892Y-51448481D01*
X129740255Y-51314419D01*
X129517319Y-51222076D01*
X129280652Y-51175000D01*
X129039348Y-51175000D01*
X128802681Y-51222076D01*
X128579745Y-51314419D01*
X128379108Y-51448481D01*
X128208481Y-51619108D01*
X128074419Y-51819745D01*
X127982076Y-52042681D01*
X127935000Y-52279348D01*
X127845000Y-52279348D01*
X127797924Y-52042681D01*
X127705581Y-51819745D01*
X127571519Y-51619108D01*
X127400892Y-51448481D01*
X127200255Y-51314419D01*
X126977319Y-51222076D01*
X126740652Y-51175000D01*
X126499348Y-51175000D01*
X126262681Y-51222076D01*
X126039745Y-51314419D01*
X125839108Y-51448481D01*
X125668481Y-51619108D01*
X125534419Y-51819745D01*
X125442076Y-52042681D01*
X125395000Y-52279348D01*
X125260526Y-52279348D01*
X125289840Y-52207874D01*
X125229111Y-51975538D01*
X125124223Y-51759513D01*
X124979206Y-51568102D01*
X124799633Y-51408660D01*
X124592405Y-51287315D01*
X124365485Y-51208730D01*
X124272126Y-51190160D01*
X124080500Y-51268750D01*
X124079500Y-51268750D01*
X123887874Y-51190160D01*
X123794515Y-51208730D01*
X123567595Y-51287315D01*
X123360367Y-51408660D01*
X123180794Y-51568102D01*
X123035777Y-51759513D01*
X122930889Y-51975538D01*
X122870160Y-52207874D01*
X122749840Y-52207874D01*
X122689111Y-51975538D01*
X122584223Y-51759513D01*
X122439206Y-51568102D01*
X122259633Y-51408660D01*
X122052405Y-51287315D01*
X121825485Y-51208730D01*
X121732126Y-51190160D01*
X121540500Y-51268750D01*
X121539500Y-51268750D01*
X121347874Y-51190160D01*
X121254515Y-51208730D01*
X121027595Y-51287315D01*
X120820367Y-51408660D01*
X120640794Y-51568102D01*
X120495777Y-51759513D01*
X120390889Y-51975538D01*
X120330160Y-52207874D01*
X119169840Y-52207874D01*
X119109111Y-51975538D01*
X119004223Y-51759513D01*
X118859206Y-51568102D01*
X118679633Y-51408660D01*
X118472405Y-51287315D01*
X118245485Y-51208730D01*
X118152126Y-51190160D01*
X117960500Y-51268750D01*
X117959500Y-51268750D01*
X117767874Y-51190160D01*
X117674515Y-51208730D01*
X117447595Y-51287315D01*
X117240367Y-51408660D01*
X117060794Y-51568102D01*
X116915777Y-51759513D01*
X116810889Y-51975538D01*
X116750160Y-52207874D01*
X116630783Y-52207874D01*
X116597924Y-52042681D01*
X116505581Y-51819745D01*
X116371519Y-51619108D01*
X116200892Y-51448481D01*
X116000255Y-51314419D01*
X115777319Y-51222076D01*
X115540652Y-51175000D01*
X115299348Y-51175000D01*
X115062681Y-51222076D01*
X114839745Y-51314419D01*
X114639108Y-51448481D01*
X114468481Y-51619108D01*
X114334419Y-51819745D01*
X114242076Y-52042681D01*
X114195000Y-52279348D01*
X114105000Y-52279348D01*
X114057924Y-52042681D01*
X113965581Y-51819745D01*
X113831519Y-51619108D01*
X113660892Y-51448481D01*
X113460255Y-51314419D01*
X113237319Y-51222076D01*
X113000652Y-51175000D01*
X112759348Y-51175000D01*
X112522681Y-51222076D01*
X112299745Y-51314419D01*
X112099108Y-51448481D01*
X111928481Y-51619108D01*
X111794419Y-51819745D01*
X111702076Y-52042681D01*
X111655000Y-52279348D01*
X111565000Y-52279348D01*
X111517924Y-52042681D01*
X111425581Y-51819745D01*
X111291519Y-51619108D01*
X111120892Y-51448481D01*
X110920255Y-51314419D01*
X110697319Y-51222076D01*
X110460652Y-51175000D01*
X110219348Y-51175000D01*
X109982681Y-51222076D01*
X109759745Y-51314419D01*
X109559108Y-51448481D01*
X109388481Y-51619108D01*
X109254419Y-51819745D01*
X109162076Y-52042681D01*
X109115000Y-52279348D01*
X109025000Y-52279348D01*
X108977924Y-52042681D01*
X108885581Y-51819745D01*
X108751519Y-51619108D01*
X108580892Y-51448481D01*
X108380255Y-51314419D01*
X108157319Y-51222076D01*
X107920652Y-51175000D01*
X107679348Y-51175000D01*
X107442681Y-51222076D01*
X107219745Y-51314419D01*
X107019108Y-51448481D01*
X106848481Y-51619108D01*
X106714419Y-51819745D01*
X106622076Y-52042681D01*
X106575000Y-52279348D01*
X103952511Y-52279348D01*
X103930652Y-52275000D01*
X103689348Y-52275000D01*
X103452681Y-52322076D01*
X103229745Y-52414419D01*
X103029108Y-52548481D01*
X102858481Y-52719108D01*
X102724419Y-52919745D01*
X102632076Y-53142681D01*
X102585000Y-53379348D01*
X102450526Y-53379348D01*
X102479840Y-53307874D01*
X102419111Y-53075538D01*
X102314223Y-52859513D01*
X102169206Y-52668102D01*
X101989633Y-52508660D01*
X101782405Y-52387315D01*
X101555485Y-52308730D01*
X101462126Y-52290160D01*
X101270502Y-52368749D01*
X101270502Y-52292659D01*
X102050638Y-52047729D01*
X102063710Y-52042306D01*
X102077330Y-52038419D01*
X102124537Y-52017074D01*
X102912105Y-51604816D01*
X102924014Y-51597162D01*
X102936726Y-51590926D01*
X102979407Y-51561559D01*
X103681523Y-51016351D01*
X103691887Y-51006710D01*
X103703296Y-50998320D01*
X103740101Y-50961859D01*
X104200494Y-50450000D01*
X121772105Y-50450000D01*
X121792636Y-50447978D01*
X121808238Y-50448087D01*
X121814491Y-50447474D01*
X122299733Y-50396473D01*
X122339692Y-50388270D01*
X122379748Y-50380629D01*
X122385763Y-50378813D01*
X122851857Y-50234533D01*
X122889460Y-50218726D01*
X122927272Y-50203449D01*
X122932820Y-50200500D01*
X123072454Y-50125000D01*
X130428661Y-50125000D01*
X130586062Y-50208692D01*
X130623777Y-50224237D01*
X130661257Y-50240301D01*
X130667260Y-50242159D01*
X131134349Y-50383182D01*
X131174415Y-50391115D01*
X131214253Y-50399583D01*
X131220500Y-50400240D01*
X131220502Y-50400240D01*
X131705433Y-50447788D01*
X131727895Y-50450000D01*
X144477995Y-50450000D01*
X145091993Y-50510203D01*
X145661446Y-50682131D01*
X146186650Y-50961388D01*
X146647613Y-51337339D01*
X147026776Y-51795668D01*
X147309694Y-52318916D01*
X147485590Y-52887143D01*
X147549997Y-53499935D01*
X147550000Y-53500703D01*
X147550000Y-55263866D01*
X147449276Y-55056416D01*
X147396135Y-54976884D01*
X147204459Y-54896248D01*
X146400707Y-55700000D01*
X147204459Y-56503752D01*
X147396135Y-56423116D01*
X147518067Y-56214885D01*
X147550000Y-56122677D01*
X147550001Y-76477985D01*
X147489797Y-77091993D01*
X147317869Y-77661445D01*
X147038613Y-78186648D01*
X146662661Y-78647613D01*
X146204330Y-79026777D01*
X145681085Y-79309694D01*
X145112857Y-79485590D01*
X144500065Y-79549997D01*
X144499297Y-79550000D01*
X131727895Y-79550000D01*
X131707364Y-79552022D01*
X131691763Y-79551913D01*
X131685509Y-79552526D01*
X131200267Y-79603527D01*
X131160283Y-79611735D01*
X131120251Y-79619371D01*
X131114236Y-79621187D01*
X130648143Y-79765467D01*
X130610554Y-79781268D01*
X130572727Y-79796551D01*
X130567180Y-79799500D01*
X130427546Y-79875000D01*
X123071338Y-79875000D01*
X122913938Y-79791309D01*
X122876218Y-79775761D01*
X122838742Y-79759699D01*
X122832744Y-79757842D01*
X122832738Y-79757840D01*
X122365650Y-79616818D01*
X122325592Y-79608886D01*
X122285747Y-79600417D01*
X122279499Y-79599760D01*
X121794566Y-79552212D01*
X121772105Y-79550000D01*
X104217314Y-79550000D01*
X104208887Y-79540237D01*
X103590260Y-78901864D01*
X103579542Y-78892613D01*
X103569959Y-78882191D01*
X103529696Y-78849587D01*
X102807801Y-78330852D01*
X102795613Y-78323645D01*
X102784337Y-78315085D01*
X102738937Y-78290127D01*
X102573124Y-78211038D01*
X138489669Y-78211038D01*
X138588289Y-78418074D01*
X138822012Y-78554948D01*
X139077946Y-78643594D01*
X139346256Y-78680607D01*
X139616632Y-78664563D01*
X139878682Y-78596081D01*
X140122337Y-78477790D01*
X140211711Y-78418074D01*
X140310331Y-78211038D01*
X144989669Y-78211038D01*
X145088289Y-78418074D01*
X145322012Y-78554948D01*
X145577946Y-78643594D01*
X145846256Y-78680607D01*
X146116632Y-78664563D01*
X146378682Y-78596081D01*
X146622337Y-78477790D01*
X146711711Y-78418074D01*
X146810331Y-78211038D01*
X145900000Y-77300707D01*
X144989669Y-78211038D01*
X140310331Y-78211038D01*
X139400000Y-77300707D01*
X138489669Y-78211038D01*
X102573124Y-78211038D01*
X101936590Y-77907427D01*
X101923324Y-77902493D01*
X101910704Y-77896063D01*
X101861613Y-77879543D01*
X101861603Y-77879539D01*
X101861600Y-77879538D01*
X101624256Y-77814609D01*
X101623351Y-77304459D01*
X101736248Y-77304459D01*
X101816884Y-77496135D01*
X102025115Y-77618067D01*
X102253132Y-77697033D01*
X102492174Y-77729998D01*
X102733054Y-77715694D01*
X102966514Y-77654671D01*
X103183584Y-77549276D01*
X103263116Y-77496135D01*
X103343752Y-77304459D01*
X102540000Y-76500707D01*
X101736248Y-77304459D01*
X101623351Y-77304459D01*
X101623265Y-77256519D01*
X101735541Y-77303752D01*
X102539293Y-76500000D01*
X102540707Y-76500000D01*
X103344459Y-77303752D01*
X103536135Y-77223116D01*
X103658067Y-77014885D01*
X103737033Y-76786868D01*
X103769998Y-76547826D01*
X103755694Y-76306946D01*
X103694671Y-76073486D01*
X103589276Y-75856416D01*
X103536135Y-75776884D01*
X103344459Y-75696248D01*
X102540707Y-76500000D01*
X102539293Y-76500000D01*
X101735541Y-75696248D01*
X101620579Y-75744611D01*
X101620492Y-75695541D01*
X101736248Y-75695541D01*
X102540000Y-76499293D01*
X103343752Y-75695541D01*
X103263116Y-75503865D01*
X103054885Y-75381933D01*
X102826868Y-75302967D01*
X102587826Y-75270002D01*
X102346946Y-75284306D01*
X102113486Y-75345329D01*
X101896416Y-75450724D01*
X101816884Y-75503865D01*
X101736248Y-75695541D01*
X101620492Y-75695541D01*
X101618750Y-74715403D01*
X101616348Y-74691239D01*
X101609235Y-74667790D01*
X101597684Y-74646179D01*
X101582138Y-74627237D01*
X101563196Y-74611691D01*
X101541585Y-74600140D01*
X101518136Y-74593027D01*
X101493750Y-74590625D01*
X85918750Y-74590625D01*
X85894871Y-74592927D01*
X85871392Y-74599943D01*
X85849734Y-74611405D01*
X85830728Y-74626872D01*
X85815104Y-74645750D01*
X85803464Y-74667313D01*
X85796254Y-74690732D01*
X85793751Y-74715108D01*
X85783918Y-77094056D01*
X85772405Y-77087315D01*
X85545485Y-77008730D01*
X85452126Y-76990160D01*
X85260500Y-77068750D01*
X85260500Y-78199500D01*
X85280500Y-78199500D01*
X85280500Y-78200500D01*
X85260500Y-78200500D01*
X85260500Y-79331250D01*
X85452126Y-79409840D01*
X85545485Y-79391270D01*
X85772405Y-79312685D01*
X85774753Y-79311310D01*
X85773766Y-79550000D01*
X78227895Y-79550000D01*
X78207364Y-79552022D01*
X78191763Y-79551913D01*
X78185509Y-79552526D01*
X77700267Y-79603527D01*
X77660283Y-79611735D01*
X77620251Y-79619371D01*
X77614236Y-79621187D01*
X77148143Y-79765467D01*
X77110554Y-79781268D01*
X77072727Y-79796551D01*
X77067180Y-79799500D01*
X76927546Y-79875000D01*
X69571338Y-79875000D01*
X69413938Y-79791309D01*
X69376218Y-79775761D01*
X69338742Y-79759699D01*
X69332744Y-79757842D01*
X69332738Y-79757840D01*
X68865650Y-79616818D01*
X68825592Y-79608886D01*
X68785747Y-79600417D01*
X68779499Y-79599760D01*
X68294566Y-79552212D01*
X68272105Y-79550000D01*
X55522005Y-79550000D01*
X54908007Y-79489797D01*
X54338555Y-79317869D01*
X53813352Y-79038613D01*
X53352387Y-78662661D01*
X52973223Y-78204330D01*
X52759714Y-77809452D01*
X56749394Y-77809452D01*
X56847245Y-78184050D01*
X57016297Y-78532361D01*
X57250053Y-78840999D01*
X57539529Y-79098103D01*
X57873602Y-79293793D01*
X58239433Y-79420548D01*
X58390548Y-79450606D01*
X58699500Y-79381250D01*
X58699500Y-77500500D01*
X58700500Y-77500500D01*
X58700500Y-79381250D01*
X59009452Y-79450606D01*
X59160567Y-79420548D01*
X59526398Y-79293793D01*
X59860471Y-79098103D01*
X60149947Y-78840999D01*
X60383703Y-78532361D01*
X60451765Y-78392126D01*
X84050160Y-78392126D01*
X84110889Y-78624462D01*
X84215777Y-78840487D01*
X84360794Y-79031898D01*
X84540367Y-79191340D01*
X84747595Y-79312685D01*
X84974515Y-79391270D01*
X85067874Y-79409840D01*
X85259500Y-79331250D01*
X85259500Y-78200500D01*
X84128750Y-78200500D01*
X84050160Y-78392126D01*
X60451765Y-78392126D01*
X60552755Y-78184050D01*
X60598774Y-78007874D01*
X84050160Y-78007874D01*
X84128750Y-78199500D01*
X85259500Y-78199500D01*
X85259500Y-77068750D01*
X85067874Y-76990160D01*
X84974515Y-77008730D01*
X84747595Y-77087315D01*
X84540367Y-77208660D01*
X84360794Y-77368102D01*
X84215777Y-77559513D01*
X84110889Y-77775538D01*
X84050160Y-78007874D01*
X60598774Y-78007874D01*
X60650606Y-77809452D01*
X60581250Y-77500500D01*
X58700500Y-77500500D01*
X58699500Y-77500500D01*
X56818750Y-77500500D01*
X56749394Y-77809452D01*
X52759714Y-77809452D01*
X52690306Y-77681085D01*
X52538460Y-77190548D01*
X56749394Y-77190548D01*
X56818750Y-77499500D01*
X58699500Y-77499500D01*
X58699500Y-75618750D01*
X58700500Y-75618750D01*
X58700500Y-77499500D01*
X60581250Y-77499500D01*
X60650606Y-77190548D01*
X60552755Y-76815950D01*
X60383703Y-76467639D01*
X60149947Y-76159001D01*
X59860471Y-75901897D01*
X59526398Y-75706207D01*
X59160567Y-75579452D01*
X59009452Y-75549394D01*
X58700500Y-75618750D01*
X58699500Y-75618750D01*
X58390548Y-75549394D01*
X58239433Y-75579452D01*
X57873602Y-75706207D01*
X57539529Y-75901897D01*
X57250053Y-76159001D01*
X57016297Y-76467639D01*
X56847245Y-76815950D01*
X56749394Y-77190548D01*
X52538460Y-77190548D01*
X52514410Y-77112857D01*
X52450003Y-76500065D01*
X52450000Y-76499293D01*
X52450000Y-73505479D01*
X53225000Y-73505479D01*
X53225000Y-73894521D01*
X53300898Y-74276086D01*
X53449778Y-74635513D01*
X53665917Y-74958989D01*
X53941011Y-75234083D01*
X54264487Y-75450222D01*
X54623914Y-75599102D01*
X55005479Y-75675000D01*
X55394521Y-75675000D01*
X55776086Y-75599102D01*
X56135513Y-75450222D01*
X56458989Y-75234083D01*
X56734083Y-74958989D01*
X56950222Y-74635513D01*
X57099102Y-74276086D01*
X57175000Y-73894521D01*
X57175000Y-73505479D01*
X60525000Y-73505479D01*
X60525000Y-73894521D01*
X60600898Y-74276086D01*
X60749778Y-74635513D01*
X60965917Y-74958989D01*
X61241011Y-75234083D01*
X61564487Y-75450222D01*
X61923914Y-75599102D01*
X62305479Y-75675000D01*
X62694521Y-75675000D01*
X63076086Y-75599102D01*
X63435513Y-75450222D01*
X63758989Y-75234083D01*
X64034083Y-74958989D01*
X64250222Y-74635513D01*
X64399102Y-74276086D01*
X64475000Y-73894521D01*
X64475000Y-73505479D01*
X64399102Y-73123914D01*
X64250222Y-72764487D01*
X64034083Y-72441011D01*
X63758989Y-72165917D01*
X63435513Y-71949778D01*
X63076086Y-71800898D01*
X62694521Y-71725000D01*
X62305479Y-71725000D01*
X61923914Y-71800898D01*
X61564487Y-71949778D01*
X61241011Y-72165917D01*
X60965917Y-72441011D01*
X60749778Y-72764487D01*
X60600898Y-73123914D01*
X60525000Y-73505479D01*
X57175000Y-73505479D01*
X57099102Y-73123914D01*
X56950222Y-72764487D01*
X56734083Y-72441011D01*
X56458989Y-72165917D01*
X56135513Y-71949778D01*
X55776086Y-71800898D01*
X55394521Y-71725000D01*
X55005479Y-71725000D01*
X54623914Y-71800898D01*
X54264487Y-71949778D01*
X53941011Y-72165917D01*
X53665917Y-72441011D01*
X53449778Y-72764487D01*
X53300898Y-73123914D01*
X53225000Y-73505479D01*
X52450000Y-73505479D01*
X52450000Y-66133518D01*
X73025000Y-66133518D01*
X73025000Y-66266482D01*
X73050940Y-66396890D01*
X73101823Y-66519732D01*
X73175693Y-66630287D01*
X73269713Y-66724307D01*
X73380268Y-66798177D01*
X73503110Y-66849060D01*
X73633518Y-66875000D01*
X73703249Y-66875000D01*
X74225000Y-67396752D01*
X74225001Y-68620399D01*
X74175693Y-68669707D01*
X74101823Y-68780262D01*
X74050940Y-68903104D01*
X74025000Y-69033512D01*
X74025000Y-69166476D01*
X74050940Y-69296884D01*
X74101823Y-69419726D01*
X74175693Y-69530281D01*
X74269713Y-69624301D01*
X74380268Y-69698171D01*
X74503110Y-69749054D01*
X74633518Y-69774994D01*
X74766482Y-69774994D01*
X74896890Y-69749054D01*
X75019732Y-69698171D01*
X75130287Y-69624301D01*
X75224307Y-69530281D01*
X75298177Y-69419726D01*
X75349060Y-69296884D01*
X75361664Y-69233518D01*
X112425006Y-69233518D01*
X112425006Y-69366482D01*
X112450946Y-69496890D01*
X112501829Y-69619732D01*
X112575699Y-69730287D01*
X112669719Y-69824307D01*
X112780274Y-69898177D01*
X112903116Y-69949060D01*
X113033524Y-69975000D01*
X113166488Y-69975000D01*
X113296896Y-69949060D01*
X113419738Y-69898177D01*
X113530293Y-69824307D01*
X113621082Y-69733518D01*
X121325000Y-69733518D01*
X121325000Y-69866482D01*
X121350940Y-69996890D01*
X121401823Y-70119732D01*
X121475693Y-70230287D01*
X121525001Y-70279595D01*
X121525000Y-76420406D01*
X121475693Y-76469713D01*
X121401823Y-76580268D01*
X121350940Y-76703110D01*
X121325000Y-76833518D01*
X121325000Y-76966482D01*
X121350940Y-77096890D01*
X121401823Y-77219732D01*
X121475693Y-77330287D01*
X121569713Y-77424307D01*
X121680268Y-77498177D01*
X121803110Y-77549060D01*
X121933518Y-77575000D01*
X122066482Y-77575000D01*
X122196890Y-77549060D01*
X122319732Y-77498177D01*
X122430287Y-77424307D01*
X122524307Y-77330287D01*
X122580454Y-77246256D01*
X138019393Y-77246256D01*
X138035437Y-77516632D01*
X138103919Y-77778682D01*
X138222210Y-78022337D01*
X138281926Y-78111711D01*
X138488962Y-78210331D01*
X139399293Y-77300000D01*
X139400707Y-77300000D01*
X140311038Y-78210331D01*
X140518074Y-78111711D01*
X140654948Y-77877988D01*
X140743594Y-77622054D01*
X140780607Y-77353744D01*
X140774229Y-77246256D01*
X144519393Y-77246256D01*
X144535437Y-77516632D01*
X144603919Y-77778682D01*
X144722210Y-78022337D01*
X144781926Y-78111711D01*
X144988962Y-78210331D01*
X145899293Y-77300000D01*
X145900707Y-77300000D01*
X146811038Y-78210331D01*
X147018074Y-78111711D01*
X147154948Y-77877988D01*
X147243594Y-77622054D01*
X147280607Y-77353744D01*
X147264563Y-77083368D01*
X147196081Y-76821318D01*
X147077790Y-76577663D01*
X147018074Y-76488289D01*
X146811038Y-76389669D01*
X145900707Y-77300000D01*
X145899293Y-77300000D01*
X144988962Y-76389669D01*
X144781926Y-76488289D01*
X144645052Y-76722012D01*
X144556406Y-76977946D01*
X144519393Y-77246256D01*
X140774229Y-77246256D01*
X140764563Y-77083368D01*
X140696081Y-76821318D01*
X140577790Y-76577663D01*
X140518074Y-76488289D01*
X140311038Y-76389669D01*
X139400707Y-77300000D01*
X139399293Y-77300000D01*
X138488962Y-76389669D01*
X138281926Y-76488289D01*
X138145052Y-76722012D01*
X138056406Y-76977946D01*
X138019393Y-77246256D01*
X122580454Y-77246256D01*
X122598177Y-77219732D01*
X122649060Y-77096890D01*
X122675000Y-76966482D01*
X122675000Y-76833518D01*
X122649060Y-76703110D01*
X122598177Y-76580268D01*
X122524307Y-76469713D01*
X122475000Y-76420406D01*
X122475000Y-76388962D01*
X138489669Y-76388962D01*
X139400000Y-77299293D01*
X140310331Y-76388962D01*
X144989669Y-76388962D01*
X145900000Y-77299293D01*
X146810331Y-76388962D01*
X146711711Y-76181926D01*
X146477988Y-76045052D01*
X146222054Y-75956406D01*
X145953744Y-75919393D01*
X145683368Y-75935437D01*
X145421318Y-76003919D01*
X145177663Y-76122210D01*
X145088289Y-76181926D01*
X144989669Y-76388962D01*
X140310331Y-76388962D01*
X140211711Y-76181926D01*
X139977988Y-76045052D01*
X139722054Y-75956406D01*
X139453744Y-75919393D01*
X139183368Y-75935437D01*
X138921318Y-76003919D01*
X138677663Y-76122210D01*
X138588289Y-76181926D01*
X138489669Y-76388962D01*
X122475000Y-76388962D01*
X122475000Y-72664574D01*
X138025000Y-72664574D01*
X138025000Y-72935426D01*
X138077841Y-73201073D01*
X138181491Y-73451307D01*
X138331968Y-73676511D01*
X138523489Y-73868032D01*
X138748693Y-74018509D01*
X138998927Y-74122159D01*
X139264574Y-74175000D01*
X139535426Y-74175000D01*
X139801073Y-74122159D01*
X140051307Y-74018509D01*
X140276511Y-73868032D01*
X140468032Y-73676511D01*
X140618509Y-73451307D01*
X140722159Y-73201073D01*
X140775000Y-72935426D01*
X140775000Y-72664574D01*
X144525000Y-72664574D01*
X144525000Y-72935426D01*
X144577841Y-73201073D01*
X144681491Y-73451307D01*
X144831968Y-73676511D01*
X145023489Y-73868032D01*
X145248693Y-74018509D01*
X145498927Y-74122159D01*
X145764574Y-74175000D01*
X146035426Y-74175000D01*
X146301073Y-74122159D01*
X146551307Y-74018509D01*
X146776511Y-73868032D01*
X146968032Y-73676511D01*
X147118509Y-73451307D01*
X147222159Y-73201073D01*
X147275000Y-72935426D01*
X147275000Y-72664574D01*
X147222159Y-72398927D01*
X147118509Y-72148693D01*
X146968032Y-71923489D01*
X146776511Y-71731968D01*
X146551307Y-71581491D01*
X146301073Y-71477841D01*
X146035426Y-71425000D01*
X145764574Y-71425000D01*
X145498927Y-71477841D01*
X145248693Y-71581491D01*
X145023489Y-71731968D01*
X144831968Y-71923489D01*
X144681491Y-72148693D01*
X144577841Y-72398927D01*
X144525000Y-72664574D01*
X140775000Y-72664574D01*
X140722159Y-72398927D01*
X140618509Y-72148693D01*
X140468032Y-71923489D01*
X140276511Y-71731968D01*
X140051307Y-71581491D01*
X139801073Y-71477841D01*
X139535426Y-71425000D01*
X139264574Y-71425000D01*
X138998927Y-71477841D01*
X138748693Y-71581491D01*
X138523489Y-71731968D01*
X138331968Y-71923489D01*
X138181491Y-72148693D01*
X138077841Y-72398927D01*
X138025000Y-72664574D01*
X122475000Y-72664574D01*
X122475000Y-70279594D01*
X122524307Y-70230287D01*
X122598177Y-70119732D01*
X122649060Y-69996890D01*
X122675000Y-69866482D01*
X122675000Y-69733518D01*
X122649060Y-69603110D01*
X122598177Y-69480268D01*
X122524307Y-69369713D01*
X122430287Y-69275693D01*
X122319732Y-69201823D01*
X122196890Y-69150940D01*
X122066482Y-69125000D01*
X121933518Y-69125000D01*
X121803110Y-69150940D01*
X121680268Y-69201823D01*
X121569713Y-69275693D01*
X121475693Y-69369713D01*
X121401823Y-69480268D01*
X121350940Y-69603110D01*
X121325000Y-69733518D01*
X113621082Y-69733518D01*
X113624313Y-69730287D01*
X113698183Y-69619732D01*
X113749066Y-69496890D01*
X113775006Y-69366482D01*
X113775006Y-69233518D01*
X113749066Y-69103110D01*
X113698183Y-68980268D01*
X113624313Y-68869713D01*
X113575006Y-68820406D01*
X113575006Y-67164574D01*
X138025000Y-67164574D01*
X138025000Y-67435426D01*
X138077841Y-67701073D01*
X138181491Y-67951307D01*
X138331968Y-68176511D01*
X138523489Y-68368032D01*
X138748693Y-68518509D01*
X138998927Y-68622159D01*
X139264574Y-68675000D01*
X139535426Y-68675000D01*
X139801073Y-68622159D01*
X140051307Y-68518509D01*
X140276511Y-68368032D01*
X140468032Y-68176511D01*
X140618509Y-67951307D01*
X140722159Y-67701073D01*
X140775000Y-67435426D01*
X140775000Y-67164574D01*
X144525000Y-67164574D01*
X144525000Y-67435426D01*
X144577841Y-67701073D01*
X144681491Y-67951307D01*
X144831968Y-68176511D01*
X145023489Y-68368032D01*
X145248693Y-68518509D01*
X145498927Y-68622159D01*
X145764574Y-68675000D01*
X146035426Y-68675000D01*
X146301073Y-68622159D01*
X146551307Y-68518509D01*
X146776511Y-68368032D01*
X146968032Y-68176511D01*
X147118509Y-67951307D01*
X147222159Y-67701073D01*
X147275000Y-67435426D01*
X147275000Y-67164574D01*
X147222159Y-66898927D01*
X147118509Y-66648693D01*
X146968032Y-66423489D01*
X146776511Y-66231968D01*
X146551307Y-66081491D01*
X146301073Y-65977841D01*
X146035426Y-65925000D01*
X145764574Y-65925000D01*
X145498927Y-65977841D01*
X145248693Y-66081491D01*
X145023489Y-66231968D01*
X144831968Y-66423489D01*
X144681491Y-66648693D01*
X144577841Y-66898927D01*
X144525000Y-67164574D01*
X140775000Y-67164574D01*
X140722159Y-66898927D01*
X140618509Y-66648693D01*
X140468032Y-66423489D01*
X140276511Y-66231968D01*
X140051307Y-66081491D01*
X139801073Y-65977841D01*
X139535426Y-65925000D01*
X139264574Y-65925000D01*
X138998927Y-65977841D01*
X138748693Y-66081491D01*
X138523489Y-66231968D01*
X138331968Y-66423489D01*
X138181491Y-66648693D01*
X138077841Y-66898927D01*
X138025000Y-67164574D01*
X113575006Y-67164574D01*
X113575006Y-65646744D01*
X115096752Y-64125000D01*
X115166482Y-64125000D01*
X115296890Y-64099060D01*
X115419732Y-64048177D01*
X115530287Y-63974307D01*
X115624307Y-63880287D01*
X115698177Y-63769732D01*
X115722488Y-63711038D01*
X138489669Y-63711038D01*
X138588289Y-63918074D01*
X138822012Y-64054948D01*
X139077946Y-64143594D01*
X139346256Y-64180607D01*
X139616632Y-64164563D01*
X139878682Y-64096081D01*
X140122337Y-63977790D01*
X140211711Y-63918074D01*
X140310331Y-63711038D01*
X144989669Y-63711038D01*
X145088289Y-63918074D01*
X145322012Y-64054948D01*
X145577946Y-64143594D01*
X145846256Y-64180607D01*
X146116632Y-64164563D01*
X146378682Y-64096081D01*
X146622337Y-63977790D01*
X146711711Y-63918074D01*
X146810331Y-63711038D01*
X145900000Y-62800707D01*
X144989669Y-63711038D01*
X140310331Y-63711038D01*
X139400000Y-62800707D01*
X138489669Y-63711038D01*
X115722488Y-63711038D01*
X115749060Y-63646890D01*
X115775000Y-63516482D01*
X115775000Y-63383518D01*
X115749060Y-63253110D01*
X115698177Y-63130268D01*
X115624307Y-63019713D01*
X115530287Y-62925693D01*
X115419732Y-62851823D01*
X115296890Y-62800940D01*
X115166482Y-62775000D01*
X115033518Y-62775000D01*
X114903110Y-62800940D01*
X114780268Y-62851823D01*
X114669713Y-62925693D01*
X114575693Y-63019713D01*
X114501823Y-63130268D01*
X114450940Y-63253110D01*
X114425000Y-63383518D01*
X114425000Y-63453248D01*
X112780640Y-65097610D01*
X112762505Y-65112493D01*
X112703147Y-65184821D01*
X112659040Y-65267341D01*
X112640118Y-65329717D01*
X112631879Y-65356878D01*
X112622708Y-65449994D01*
X112625006Y-65473326D01*
X112625007Y-68820405D01*
X112575699Y-68869713D01*
X112501829Y-68980268D01*
X112450946Y-69103110D01*
X112425006Y-69233518D01*
X75361664Y-69233518D01*
X75375000Y-69166476D01*
X75375000Y-69033512D01*
X75349060Y-68903104D01*
X75298177Y-68780262D01*
X75224307Y-68669707D01*
X75175000Y-68620400D01*
X75175000Y-67223332D01*
X75177298Y-67200000D01*
X75168127Y-67106884D01*
X75140966Y-67017346D01*
X75096859Y-66934827D01*
X75052374Y-66880622D01*
X75037501Y-66862499D01*
X75019377Y-66847625D01*
X74375000Y-66203249D01*
X74375000Y-66133518D01*
X74349060Y-66003110D01*
X74298177Y-65880268D01*
X74224307Y-65769713D01*
X74130287Y-65675693D01*
X74019732Y-65601823D01*
X73896890Y-65550940D01*
X73766482Y-65525000D01*
X73633518Y-65525000D01*
X73503110Y-65550940D01*
X73380268Y-65601823D01*
X73269713Y-65675693D01*
X73175693Y-65769713D01*
X73101823Y-65880268D01*
X73050940Y-66003110D01*
X73025000Y-66133518D01*
X52450000Y-66133518D01*
X52450000Y-60692126D01*
X58850160Y-60692126D01*
X58910889Y-60924462D01*
X59015777Y-61140487D01*
X59160794Y-61331898D01*
X59340367Y-61491340D01*
X59547595Y-61612685D01*
X59774515Y-61691270D01*
X59867874Y-61709840D01*
X60059500Y-61631250D01*
X60059500Y-60500500D01*
X60060500Y-60500500D01*
X60060500Y-61631250D01*
X60252126Y-61709840D01*
X60345485Y-61691270D01*
X60572405Y-61612685D01*
X60779633Y-61491340D01*
X60959206Y-61331898D01*
X61104223Y-61140487D01*
X61209111Y-60924462D01*
X61269840Y-60692126D01*
X61191250Y-60500500D01*
X60060500Y-60500500D01*
X60059500Y-60500500D01*
X58928750Y-60500500D01*
X58850160Y-60692126D01*
X52450000Y-60692126D01*
X52450000Y-60307874D01*
X58850160Y-60307874D01*
X58928750Y-60499500D01*
X60059500Y-60499500D01*
X60059500Y-59368750D01*
X60060500Y-59368750D01*
X60060500Y-60499500D01*
X61191250Y-60499500D01*
X61240526Y-60379348D01*
X61375000Y-60379348D01*
X61375000Y-60620652D01*
X61422076Y-60857319D01*
X61514419Y-61080255D01*
X61648481Y-61280892D01*
X61819108Y-61451519D01*
X62019745Y-61585581D01*
X62242681Y-61677924D01*
X62479348Y-61725000D01*
X62720652Y-61725000D01*
X62957319Y-61677924D01*
X63180255Y-61585581D01*
X63380892Y-61451519D01*
X63551519Y-61280892D01*
X63685581Y-61080255D01*
X63777924Y-60857319D01*
X63825000Y-60620652D01*
X63825000Y-60379348D01*
X63777924Y-60142681D01*
X63685581Y-59919745D01*
X63551519Y-59719108D01*
X63380892Y-59548481D01*
X63180255Y-59414419D01*
X62984943Y-59333518D01*
X106425000Y-59333518D01*
X106425000Y-59466482D01*
X106450940Y-59596890D01*
X106501823Y-59719732D01*
X106575693Y-59830287D01*
X106625001Y-59879595D01*
X106625000Y-63220406D01*
X106575693Y-63269713D01*
X106501823Y-63380268D01*
X106450940Y-63503110D01*
X106425000Y-63633518D01*
X106425000Y-63766482D01*
X106450940Y-63896890D01*
X106501823Y-64019732D01*
X106575693Y-64130287D01*
X106669713Y-64224307D01*
X106780268Y-64298177D01*
X106903110Y-64349060D01*
X107033518Y-64375000D01*
X107166482Y-64375000D01*
X107296890Y-64349060D01*
X107419732Y-64298177D01*
X107530287Y-64224307D01*
X107624307Y-64130287D01*
X107698177Y-64019732D01*
X107749060Y-63896890D01*
X107775000Y-63766482D01*
X107775000Y-63633518D01*
X107749060Y-63503110D01*
X107698177Y-63380268D01*
X107624307Y-63269713D01*
X107575000Y-63220406D01*
X107575000Y-62746256D01*
X138019393Y-62746256D01*
X138035437Y-63016632D01*
X138103919Y-63278682D01*
X138222210Y-63522337D01*
X138281926Y-63611711D01*
X138488962Y-63710331D01*
X139399293Y-62800000D01*
X139400707Y-62800000D01*
X140311038Y-63710331D01*
X140518074Y-63611711D01*
X140654948Y-63377988D01*
X140743594Y-63122054D01*
X140780607Y-62853744D01*
X140774229Y-62746256D01*
X144519393Y-62746256D01*
X144535437Y-63016632D01*
X144603919Y-63278682D01*
X144722210Y-63522337D01*
X144781926Y-63611711D01*
X144988962Y-63710331D01*
X145899293Y-62800000D01*
X145900707Y-62800000D01*
X146811038Y-63710331D01*
X147018074Y-63611711D01*
X147154948Y-63377988D01*
X147243594Y-63122054D01*
X147280607Y-62853744D01*
X147264563Y-62583368D01*
X147196081Y-62321318D01*
X147077790Y-62077663D01*
X147018074Y-61988289D01*
X146811038Y-61889669D01*
X145900707Y-62800000D01*
X145899293Y-62800000D01*
X144988962Y-61889669D01*
X144781926Y-61988289D01*
X144645052Y-62222012D01*
X144556406Y-62477946D01*
X144519393Y-62746256D01*
X140774229Y-62746256D01*
X140764563Y-62583368D01*
X140696081Y-62321318D01*
X140577790Y-62077663D01*
X140518074Y-61988289D01*
X140311038Y-61889669D01*
X139400707Y-62800000D01*
X139399293Y-62800000D01*
X138488962Y-61889669D01*
X138281926Y-61988289D01*
X138145052Y-62222012D01*
X138056406Y-62477946D01*
X138019393Y-62746256D01*
X107575000Y-62746256D01*
X107575000Y-59879594D01*
X107624307Y-59830287D01*
X107698177Y-59719732D01*
X107749060Y-59596890D01*
X107761665Y-59533518D01*
X110425000Y-59533518D01*
X110425000Y-59666482D01*
X110450940Y-59796890D01*
X110501823Y-59919732D01*
X110575693Y-60030287D01*
X110669713Y-60124307D01*
X110780268Y-60198177D01*
X110903110Y-60249060D01*
X111033518Y-60275000D01*
X111103250Y-60275000D01*
X113147625Y-62319377D01*
X113162499Y-62337501D01*
X113180622Y-62352374D01*
X113234827Y-62396859D01*
X113317346Y-62440966D01*
X113406884Y-62468127D01*
X113500000Y-62477298D01*
X113523332Y-62475000D01*
X115520406Y-62475000D01*
X115569713Y-62524307D01*
X115680268Y-62598177D01*
X115803110Y-62649060D01*
X115933518Y-62675000D01*
X116066482Y-62675000D01*
X116196890Y-62649060D01*
X116319732Y-62598177D01*
X116430287Y-62524307D01*
X116524307Y-62430287D01*
X116598177Y-62319732D01*
X116649060Y-62196890D01*
X116675000Y-62066482D01*
X116675000Y-61933518D01*
X116649060Y-61803110D01*
X116598177Y-61680268D01*
X116541884Y-61596018D01*
X128062500Y-61596018D01*
X128062500Y-61728982D01*
X128088440Y-61859390D01*
X128139323Y-61982232D01*
X128213193Y-62092787D01*
X128307213Y-62186807D01*
X128417768Y-62260677D01*
X128540610Y-62311560D01*
X128671018Y-62337500D01*
X128803982Y-62337500D01*
X128934390Y-62311560D01*
X129057232Y-62260677D01*
X129167787Y-62186807D01*
X129261807Y-62092787D01*
X129335677Y-61982232D01*
X129374310Y-61888962D01*
X138489669Y-61888962D01*
X139400000Y-62799293D01*
X140310331Y-61888962D01*
X144989669Y-61888962D01*
X145900000Y-62799293D01*
X146810331Y-61888962D01*
X146711711Y-61681926D01*
X146477988Y-61545052D01*
X146222054Y-61456406D01*
X145953744Y-61419393D01*
X145683368Y-61435437D01*
X145421318Y-61503919D01*
X145177663Y-61622210D01*
X145088289Y-61681926D01*
X144989669Y-61888962D01*
X140310331Y-61888962D01*
X140211711Y-61681926D01*
X139977988Y-61545052D01*
X139722054Y-61456406D01*
X139453744Y-61419393D01*
X139183368Y-61435437D01*
X138921318Y-61503919D01*
X138677663Y-61622210D01*
X138588289Y-61681926D01*
X138489669Y-61888962D01*
X129374310Y-61888962D01*
X129386560Y-61859390D01*
X129412500Y-61728982D01*
X129412500Y-61596018D01*
X129386560Y-61465610D01*
X129335677Y-61342768D01*
X129261807Y-61232213D01*
X129212500Y-61182906D01*
X129212500Y-60435911D01*
X129240966Y-60382654D01*
X129268127Y-60293116D01*
X129275000Y-60223332D01*
X129277298Y-60200001D01*
X129275000Y-60176669D01*
X129275000Y-58979594D01*
X129324307Y-58930287D01*
X129398177Y-58819732D01*
X129449060Y-58696890D01*
X129475000Y-58566482D01*
X129475000Y-58433518D01*
X129449060Y-58303110D01*
X129398177Y-58180268D01*
X129324307Y-58069713D01*
X129230287Y-57975693D01*
X129119732Y-57901823D01*
X128996890Y-57850940D01*
X128866482Y-57825000D01*
X128733518Y-57825000D01*
X128603110Y-57850940D01*
X128480268Y-57901823D01*
X128369713Y-57975693D01*
X128275693Y-58069713D01*
X128201823Y-58180268D01*
X128150940Y-58303110D01*
X128125000Y-58433518D01*
X128125000Y-58566482D01*
X128150940Y-58696890D01*
X128201823Y-58819732D01*
X128275693Y-58930287D01*
X128325000Y-58979594D01*
X128325001Y-60026588D01*
X128296534Y-60079847D01*
X128283047Y-60124307D01*
X128269373Y-60169384D01*
X128260202Y-60262500D01*
X128262500Y-60285833D01*
X128262501Y-61182905D01*
X128213193Y-61232213D01*
X128139323Y-61342768D01*
X128088440Y-61465610D01*
X128062500Y-61596018D01*
X116541884Y-61596018D01*
X116524307Y-61569713D01*
X116430287Y-61475693D01*
X116319732Y-61401823D01*
X116196890Y-61350940D01*
X116066482Y-61325000D01*
X115933518Y-61325000D01*
X115803110Y-61350940D01*
X115680268Y-61401823D01*
X115569713Y-61475693D01*
X115520406Y-61525000D01*
X113696752Y-61525000D01*
X111775000Y-59603250D01*
X111775000Y-59533518D01*
X111749060Y-59403110D01*
X111698177Y-59280268D01*
X111624307Y-59169713D01*
X111530287Y-59075693D01*
X111419732Y-59001823D01*
X111296890Y-58950940D01*
X111166482Y-58925000D01*
X111033518Y-58925000D01*
X110903110Y-58950940D01*
X110780268Y-59001823D01*
X110669713Y-59075693D01*
X110575693Y-59169713D01*
X110501823Y-59280268D01*
X110450940Y-59403110D01*
X110425000Y-59533518D01*
X107761665Y-59533518D01*
X107775000Y-59466482D01*
X107775000Y-59333518D01*
X107749060Y-59203110D01*
X107698177Y-59080268D01*
X107624307Y-58969713D01*
X107530287Y-58875693D01*
X107419732Y-58801823D01*
X107296890Y-58750940D01*
X107166482Y-58725000D01*
X107033518Y-58725000D01*
X106903110Y-58750940D01*
X106780268Y-58801823D01*
X106669713Y-58875693D01*
X106575693Y-58969713D01*
X106501823Y-59080268D01*
X106450940Y-59203110D01*
X106425000Y-59333518D01*
X62984943Y-59333518D01*
X62957319Y-59322076D01*
X62720652Y-59275000D01*
X62479348Y-59275000D01*
X62242681Y-59322076D01*
X62019745Y-59414419D01*
X61819108Y-59548481D01*
X61648481Y-59719108D01*
X61514419Y-59919745D01*
X61422076Y-60142681D01*
X61375000Y-60379348D01*
X61240526Y-60379348D01*
X61269840Y-60307874D01*
X61209111Y-60075538D01*
X61104223Y-59859513D01*
X60959206Y-59668102D01*
X60779633Y-59508660D01*
X60572405Y-59387315D01*
X60345485Y-59308730D01*
X60252126Y-59290160D01*
X60060500Y-59368750D01*
X60059500Y-59368750D01*
X59867874Y-59290160D01*
X59774515Y-59308730D01*
X59547595Y-59387315D01*
X59340367Y-59508660D01*
X59160794Y-59668102D01*
X59015777Y-59859513D01*
X58910889Y-60075538D01*
X58850160Y-60307874D01*
X52450000Y-60307874D01*
X52450000Y-56679348D01*
X58835000Y-56679348D01*
X58835000Y-56920652D01*
X58882076Y-57157319D01*
X58974419Y-57380255D01*
X59108481Y-57580892D01*
X59279108Y-57751519D01*
X59479745Y-57885581D01*
X59702681Y-57977924D01*
X59939348Y-58025000D01*
X60180652Y-58025000D01*
X60417319Y-57977924D01*
X60640255Y-57885581D01*
X60840892Y-57751519D01*
X61011519Y-57580892D01*
X61145581Y-57380255D01*
X61237924Y-57157319D01*
X61285000Y-56920652D01*
X61285000Y-56679348D01*
X61375000Y-56679348D01*
X61375000Y-56920652D01*
X61422076Y-57157319D01*
X61514419Y-57380255D01*
X61648481Y-57580892D01*
X61819108Y-57751519D01*
X62019745Y-57885581D01*
X62242681Y-57977924D01*
X62479348Y-58025000D01*
X62720652Y-58025000D01*
X62957319Y-57977924D01*
X63180255Y-57885581D01*
X63380892Y-57751519D01*
X63551519Y-57580892D01*
X63685581Y-57380255D01*
X63777924Y-57157319D01*
X63825000Y-56920652D01*
X63825000Y-56679348D01*
X63777924Y-56442681D01*
X63685581Y-56219745D01*
X63551519Y-56019108D01*
X63380892Y-55848481D01*
X63180255Y-55714419D01*
X62957319Y-55622076D01*
X62720652Y-55575000D01*
X62479348Y-55575000D01*
X62242681Y-55622076D01*
X62019745Y-55714419D01*
X61819108Y-55848481D01*
X61648481Y-56019108D01*
X61514419Y-56219745D01*
X61422076Y-56442681D01*
X61375000Y-56679348D01*
X61285000Y-56679348D01*
X61237924Y-56442681D01*
X61145581Y-56219745D01*
X61011519Y-56019108D01*
X60840892Y-55848481D01*
X60640255Y-55714419D01*
X60417319Y-55622076D01*
X60180652Y-55575000D01*
X59939348Y-55575000D01*
X59702681Y-55622076D01*
X59479745Y-55714419D01*
X59279108Y-55848481D01*
X59108481Y-56019108D01*
X58974419Y-56219745D01*
X58882076Y-56442681D01*
X58835000Y-56679348D01*
X52450000Y-56679348D01*
X52450000Y-53633518D01*
X65525000Y-53633518D01*
X65525000Y-53766482D01*
X65550940Y-53896890D01*
X65601823Y-54019732D01*
X65675693Y-54130287D01*
X65769713Y-54224307D01*
X65880268Y-54298177D01*
X66003110Y-54349060D01*
X66133518Y-54375000D01*
X66266482Y-54375000D01*
X66396890Y-54349060D01*
X66519732Y-54298177D01*
X66630287Y-54224307D01*
X66724307Y-54130287D01*
X66798177Y-54019732D01*
X66849060Y-53896890D01*
X66875000Y-53766482D01*
X66875000Y-53725000D01*
X69320406Y-53725000D01*
X69369713Y-53774307D01*
X69480268Y-53848177D01*
X69603110Y-53899060D01*
X69733518Y-53925000D01*
X69866482Y-53925000D01*
X69996890Y-53899060D01*
X70119732Y-53848177D01*
X70230287Y-53774307D01*
X70324307Y-53680287D01*
X70398177Y-53569732D01*
X70449060Y-53446890D01*
X70462495Y-53379348D01*
X94965000Y-53379348D01*
X94965000Y-53620652D01*
X95012076Y-53857319D01*
X95104419Y-54080255D01*
X95238481Y-54280892D01*
X95409108Y-54451519D01*
X95609745Y-54585581D01*
X95832681Y-54677924D01*
X96069348Y-54725000D01*
X96310652Y-54725000D01*
X96547319Y-54677924D01*
X96770255Y-54585581D01*
X96970892Y-54451519D01*
X97141519Y-54280892D01*
X97275581Y-54080255D01*
X97367924Y-53857319D01*
X97415000Y-53620652D01*
X97415000Y-53379348D01*
X97367924Y-53142681D01*
X97275581Y-52919745D01*
X97141519Y-52719108D01*
X96970892Y-52548481D01*
X96770255Y-52414419D01*
X96547319Y-52322076D01*
X96310652Y-52275000D01*
X96069348Y-52275000D01*
X95832681Y-52322076D01*
X95609745Y-52414419D01*
X95409108Y-52548481D01*
X95238481Y-52719108D01*
X95104419Y-52919745D01*
X95012076Y-53142681D01*
X94965000Y-53379348D01*
X70462495Y-53379348D01*
X70475000Y-53316482D01*
X70475000Y-53183518D01*
X70449060Y-53053110D01*
X70405656Y-52948323D01*
X70480268Y-52998177D01*
X70603110Y-53049060D01*
X70733518Y-53075000D01*
X70866482Y-53075000D01*
X70996890Y-53049060D01*
X71119732Y-52998177D01*
X71230287Y-52924307D01*
X71324307Y-52830287D01*
X71398177Y-52719732D01*
X71449060Y-52596890D01*
X71475000Y-52466482D01*
X71475000Y-52333518D01*
X71449060Y-52203110D01*
X71398177Y-52080268D01*
X71324307Y-51969713D01*
X71230287Y-51875693D01*
X71119732Y-51801823D01*
X70996890Y-51750940D01*
X70866482Y-51725000D01*
X70733518Y-51725000D01*
X70603110Y-51750940D01*
X70480268Y-51801823D01*
X70369713Y-51875693D01*
X70320406Y-51925000D01*
X67279594Y-51925000D01*
X67230287Y-51875693D01*
X67119732Y-51801823D01*
X66996890Y-51750940D01*
X66866482Y-51725000D01*
X66733518Y-51725000D01*
X66603110Y-51750940D01*
X66480268Y-51801823D01*
X66369713Y-51875693D01*
X66275693Y-51969713D01*
X66201823Y-52080268D01*
X66150940Y-52203110D01*
X66125000Y-52333518D01*
X66125000Y-52466482D01*
X66150940Y-52596890D01*
X66201823Y-52719732D01*
X66275693Y-52830287D01*
X66337438Y-52892032D01*
X66312499Y-52912499D01*
X66297620Y-52930629D01*
X66203249Y-53025000D01*
X66133518Y-53025000D01*
X66003110Y-53050940D01*
X65880268Y-53101823D01*
X65769713Y-53175693D01*
X65675693Y-53269713D01*
X65601823Y-53380268D01*
X65550940Y-53503110D01*
X65525000Y-53633518D01*
X52450000Y-53633518D01*
X52450000Y-53522005D01*
X52510203Y-52908007D01*
X52682131Y-52338554D01*
X52961388Y-51813350D01*
X53337339Y-51352387D01*
X53795668Y-50973224D01*
X54318916Y-50690306D01*
X54887143Y-50514410D01*
X55499935Y-50450003D01*
X55500703Y-50450000D01*
X68272105Y-50450000D01*
X68292636Y-50447978D01*
X68308238Y-50448087D01*
X68314491Y-50447474D01*
X68799733Y-50396473D01*
X68839692Y-50388270D01*
X68879748Y-50380629D01*
X68885763Y-50378813D01*
X69351857Y-50234533D01*
X69389460Y-50218726D01*
X69427272Y-50203449D01*
X69432820Y-50200500D01*
X69572454Y-50125000D01*
X76928661Y-50125000D01*
X77086062Y-50208692D01*
M02*
