G04 #@! TF.GenerationSoftware,KiCad,Pcbnew,(5.1.5-0-10_14)*
G04 #@! TF.CreationDate,2020-05-10T15:33:43-07:00*
G04 #@! TF.ProjectId,control_module,636f6e74-726f-46c5-9f6d-6f64756c652e,rev?*
G04 #@! TF.SameCoordinates,Original*
G04 #@! TF.FileFunction,Soldermask,Bot*
G04 #@! TF.FilePolarity,Negative*
%FSLAX46Y46*%
G04 Gerber Fmt 4.6, Leading zero omitted, Abs format (unit mm)*
G04 Created by KiCad (PCBNEW (5.1.5-0-10_14)) date 2020-05-10 15:33:43*
%MOMM*%
%LPD*%
G04 APERTURE LIST*
%ADD10O,2.100000X2.100000*%
%ADD11C,2.100000*%
%ADD12C,2.400000*%
%ADD13C,2.600000*%
%ADD14O,3.600000X3.600000*%
G04 APERTURE END LIST*
D10*
X91460000Y-78200000D03*
D11*
X94000000Y-78200000D03*
D10*
X60060000Y-56800000D03*
D11*
X62600000Y-56800000D03*
D10*
X60060000Y-60500000D03*
D11*
X62600000Y-60500000D03*
D10*
X85260000Y-78200000D03*
D11*
X87800000Y-78200000D03*
D10*
X117960000Y-52400000D03*
X115420000Y-52400000D03*
X112880000Y-52400000D03*
X110340000Y-52400000D03*
D11*
X107800000Y-52400000D03*
D10*
X121540000Y-52400000D03*
X124080000Y-52400000D03*
X126620000Y-52400000D03*
X129160000Y-52400000D03*
D11*
X131700000Y-52400000D03*
D12*
X145900000Y-62800000D03*
X145900000Y-67300000D03*
X139400000Y-62800000D03*
X139400000Y-67300000D03*
X139400000Y-77300000D03*
X139400000Y-72800000D03*
X145900000Y-77300000D03*
X145900000Y-72800000D03*
D10*
X96190000Y-53500000D03*
X98730000Y-53500000D03*
X101270000Y-53500000D03*
D11*
X103810000Y-53500000D03*
D10*
X97460000Y-76500000D03*
X100000000Y-76500000D03*
D11*
X102540000Y-76500000D03*
D13*
X126750000Y-82500000D03*
X73250000Y-82500000D03*
X126750000Y-47500000D03*
X73250000Y-47500000D03*
D11*
X146400000Y-55700000D03*
X136400000Y-55700000D03*
D14*
X55200000Y-73700000D03*
X58700000Y-77500000D03*
X62500000Y-73700000D03*
M02*
