M48
; DRILL file {KiCad (5.1.5-0-10_14)} date Sunday, May 10, 2020 at 03:33:45 PM
; FORMAT={2:4/ absolute / inch / suppress leading zeros}
; #@! TF.CreationDate,2020-05-10T15:33:45-07:00
; #@! TF.GenerationSoftware,Kicad,Pcbnew,(5.1.5-0-10_14)
FMAT,2
INCH,TZ
T1C0.0118
T2C0.0394
T3C0.0433
T4C0.0709
T5C0.0866
%
G90
G05
T1
X26063Y-21142
X26299Y-20630
X26496Y-23307
X26516Y-28327
X26575Y-25394
X27480Y-20965
X27480Y-28760
X27874Y-20630
X29016Y-26063
X29094Y-21575
X29094Y-22165
X29094Y-22756
X29094Y-23346
X29094Y-23937
X29094Y-24528
X29409Y-27205
X29429Y-27717
X29685Y-21575
X29685Y-22165
X29685Y-22756
X29685Y-23346
X29685Y-23937
X29685Y-24528
X30276Y-21575
X30276Y-22165
X30276Y-22756
X30276Y-23346
X30276Y-23937
X30276Y-24528
X30906Y-29173
X32283Y-27441
X32362Y-25945
X32402Y-21850
X32638Y-21850
X32874Y-21850
X33976Y-26909
X34941Y-21299
X38307Y-22480
X39882Y-24213
X41535Y-22480
X41575Y-24213
X41575Y-26299
X41575Y-27913
X42165Y-23386
X42165Y-25079
X43740Y-23465
X44528Y-27283
X44843Y-27480
X45276Y-25472
X45315Y-24980
X45591Y-23583
X45669Y-24409
X46673Y-25669
X47480Y-23898
X48031Y-27480
X48031Y-30276
X49213Y-27559
X50684Y-24277
X50709Y-23031
X51693Y-27402
X52047Y-30276
T2
X23646Y-23819
X24646Y-23819
X33567Y-30787
X34567Y-30787
X53701Y-21929
X57638Y-21929
X37870Y-21063
X38870Y-21063
X39870Y-21063
X40870Y-21063
X23646Y-22362
X24646Y-22362
X47850Y-20630
X48850Y-20630
X49850Y-20630
X50850Y-20630
X51850Y-20630
X38370Y-30118
X39370Y-30118
X40370Y-30118
X36008Y-30787
X37008Y-30787
X42441Y-20630
X43441Y-20630
X44441Y-20630
X45441Y-20630
X46441Y-20630
T3
X54882Y-28661
X54882Y-30433
X57441Y-28661
X57441Y-30433
X54882Y-24724
X54882Y-26496
X57441Y-24724
X57441Y-26496
T4
X21732Y-29016
X23110Y-30512
X24606Y-29016
T5
X49902Y-32480
X28839Y-32480
X49902Y-18701
X28839Y-18701
T0
M30
